BriemScript-SemiBold.ufo
<glyph name="exclam" format="2">
  <advance width="317.0625"/>
  <unicode hex="0021"/>
  <outline>
    <contour>
      <point x="129.5125" y="231.75" type="curve" smooth="yes"/>
      <point x="178.1" y="231.75"/>
      <point x="213.3125" y="242.1"/>
      <point x="216.9875" y="261.575" type="curve" smooth="yes"/>
      <point x="218.825" y="282.3875"/>
      <point x="270.4625" y="523.9625"/>
      <point x="270.4625" y="588.675" type="curve" smooth="yes"/>
      <point x="270.4625" y="638.325"/>
      <point x="190.7875" y="652.0"/>
      <point x="140.1" y="652.0" type="curve" smooth="yes"/>
      <point x="117.4" y="652.0"/>
      <point x="104.725" y="646.325"/>
      <point x="104.725" y="631.5875" type="curve" smooth="yes"/>
      <point x="104.725" y="592.375"/>
      <point x="101.2" y="287.65"/>
      <point x="101.2" y="241.65" type="curve" smooth="yes"/>
      <point x="101.2" y="234.5875"/>
      <point x="117.0" y="231.75"/>
    </contour>
    <contour>
      <point x="139.7875" y="-0.6125" type="curve" smooth="yes"/>
      <point x="184.3875" y="-0.6125"/>
      <point x="226.66250000000002" y="20.675"/>
      <point x="226.66250000000002" y="72.85" type="curve" smooth="yes"/>
      <point x="226.66250000000002" y="112.36250000000001"/>
      <point x="198.8" y="151.6375"/>
      <point x="159.6875" y="151.6375" type="curve" smooth="yes"/>
      <point x="121.475" y="151.6375"/>
      <point x="71.2" y="116.775"/>
      <point x="71.2" y="68.075" type="curve" smooth="yes"/>
      <point x="71.2" y="18.125"/>
      <point x="102.475" y="-0.6125"/>
    </contour>
  </outline>
</glyph>
<glyph name="quotedbl" format="2">
  <advance width="397.075"/>
  <unicode hex="0022"/>
  <outline>
    <contour>
      <point x="289.1" y="427.5" type="curve" smooth="yes"/>
      <point x="312.1875" y="427.5"/>
      <point x="322.7" y="436.1125"/>
      <point x="342.2125" y="476.7875" type="curve" smooth="yes"/>
      <point x="366.4625" y="526.9375"/>
      <point x="402.75" y="610.4625"/>
      <point x="402.75" y="626.975" type="curve" smooth="yes"/>
      <point x="402.75" y="645.7125"/>
      <point x="378.05" y="651.3875"/>
      <point x="329.875" y="651.3875" type="curve" smooth="yes"/>
      <point x="279.7" y="651.3875"/>
      <point x="257.2875" y="642.9375"/>
      <point x="256.5125" y="615.8125" type="curve" smooth="yes"/>
      <point x="255.35" y="586.325"/>
      <point x="256.4375" y="490.5125"/>
      <point x="258.275" y="468.775" type="curve" smooth="yes"/>
      <point x="261.3375" y="435.4"/>
      <point x="267.175" y="427.5"/>
    </contour>
    <contour>
      <point x="87.825" y="428.1125" type="curve" smooth="yes"/>
      <point x="110.9125" y="428.1125"/>
      <point x="121.42500000000001" y="436.725"/>
      <point x="140.9375" y="477.4" type="curve" smooth="yes"/>
      <point x="165.1875" y="527.55"/>
      <point x="201.475" y="611.075"/>
      <point x="201.475" y="627.5875" type="curve" smooth="yes"/>
      <point x="201.475" y="646.325"/>
      <point x="176.775" y="652.0"/>
      <point x="128.6" y="652.0" type="curve" smooth="yes"/>
      <point x="78.425" y="652.0"/>
      <point x="56.0125" y="643.55"/>
      <point x="55.2375" y="616.425" type="curve" smooth="yes"/>
      <point x="54.075" y="586.9375"/>
      <point x="55.1625" y="491.125"/>
      <point x="57.0" y="469.3875" type="curve" smooth="yes"/>
      <point x="60.0625" y="436.0125"/>
      <point x="65.9" y="428.1125"/>
    </contour>
  </outline>
</glyph>
<glyph name="numbersign" format="2">
  <advance width="717.075"/>
  <unicode hex="0023"/>
  <outline>
    <contour>
      <point x="245.0125" y="-13.0" type="curve" smooth="yes"/>
      <point x="271.1625" y="-13.0"/>
      <point x="274.6125" y="-6.9375"/>
      <point x="274.6125" y="7.862500000000001" type="curve" smooth="yes"/>
      <point x="274.6125" y="56.7375"/>
      <point x="277.0" y="120.1625"/>
      <point x="279.775" y="185.5875" type="curve"/>
      <point x="428.525" y="185.5875" type="line"/>
      <point x="423.1375" y="99.0625"/>
      <point x="418.975" y="40.4375"/>
      <point x="418.975" y="34.825" type="curve" smooth="yes"/>
      <point x="418.975" y="2.125"/>
      <point x="483.2375" y="-13.0"/>
      <point x="525.8375" y="-13.0" type="curve" smooth="yes"/>
      <point x="551.6" y="-13.0"/>
      <point x="555.4375" y="-6.9375"/>
      <point x="555.4375" y="7.862500000000001" type="curve" smooth="yes"/>
      <point x="555.4375" y="56.7375"/>
      <point x="557.4375" y="120.1625"/>
      <point x="560.2125" y="185.5875" type="curve"/>
      <point x="641.7" y="185.5875" type="line" smooth="yes"/>
      <point x="657.0875" y="185.5875"/>
      <point x="666.5375" y="206.425"/>
      <point x="666.5375" y="235.45" type="curve" smooth="yes"/>
      <point x="666.5375" y="251.8625"/>
      <point x="663.5375" y="254.475"/>
      <point x="655.475" y="254.475" type="curve" smooth="yes"/>
      <point x="562.6625" y="254.475" type="line"/>
      <point x="564.6625" y="306.125"/>
      <point x="568.05" y="356.1625"/>
      <point x="570.825" y="399.3625" type="curve"/>
      <point x="656.7" y="399.3625" type="line" smooth="yes"/>
      <point x="672.0875" y="399.3625"/>
      <point x="681.5375" y="419.8125"/>
      <point x="681.5375" y="448.8375" type="curve" smooth="yes"/>
      <point x="681.5375" y="465.25"/>
      <point x="678.5375" y="467.8625"/>
      <point x="670.475" y="467.8625" type="curve" smooth="yes"/>
      <point x="573.6625" y="467.8625" type="line"/>
      <point x="578.2125" y="543.2625"/>
      <point x="582.375" y="598.95"/>
      <point x="582.375" y="604.5625" type="curve" smooth="yes"/>
      <point x="582.375" y="637.875"/>
      <point x="518.1125" y="652.0"/>
      <point x="476.5125" y="652.0" type="curve" smooth="yes"/>
      <point x="449.75" y="652.0"/>
      <point x="446.9125" y="646.9375"/>
      <point x="446.9125" y="631.525" type="curve" smooth="yes"/>
      <point x="446.1375" y="593.2375"/>
      <point x="444.3625" y="534.1"/>
      <point x="440.975" y="467.8625" type="curve"/>
      <point x="293.225" y="467.8625" type="line"/>
      <point x="297.3875" y="543.2625"/>
      <point x="301.9375" y="598.95"/>
      <point x="301.9375" y="604.5625" type="curve" smooth="yes"/>
      <point x="301.9375" y="637.875"/>
      <point x="237.675" y="652.0"/>
      <point x="195.6875" y="652.0" type="curve" smooth="yes"/>
      <point x="169.3125" y="652.0"/>
      <point x="166.0875" y="646.9375"/>
      <point x="166.0875" y="631.525" type="curve" smooth="yes"/>
      <point x="165.7" y="593.2375"/>
      <point x="163.5375" y="534.1"/>
      <point x="160.5375" y="467.8625" type="curve"/>
      <point x="81.5" y="467.8625" type="line" smooth="yes"/>
      <point x="65.725" y="467.8625"/>
      <point x="56.6625" y="447.025"/>
      <point x="56.6625" y="418.0" type="curve" smooth="yes"/>
      <point x="56.6625" y="401.5875"/>
      <point x="59.6625" y="399.3625"/>
      <point x="67.725" y="399.3625" type="curve" smooth="yes"/>
      <point x="158.0875" y="399.3625" type="line"/>
      <point x="150.5375" y="254.475" type="line"/>
      <point x="66.5" y="254.475" type="line" smooth="yes"/>
      <point x="50.725" y="254.475"/>
      <point x="41.6625" y="233.6375"/>
      <point x="41.6625" y="204.6125" type="curve" smooth="yes"/>
      <point x="41.6625" y="188.2"/>
      <point x="44.275000000000006" y="185.5875"/>
      <point x="52.337500000000006" y="185.5875" type="curve" smooth="yes"/>
      <point x="147.475" y="185.5875" type="line"/>
      <point x="142.3125" y="102.7375"/>
      <point x="138.5375" y="41.05"/>
      <point x="138.5375" y="34.825" type="curve" smooth="yes"/>
      <point x="138.5375" y="2.125"/>
      <point x="202.8" y="-13.0"/>
    </contour>
    <contour>
      <point x="281.45" y="253.3125" type="line"/>
      <point x="289.0" y="400.1375" type="line"/>
      <point x="438.9125" y="400.1375" type="line"/>
      <point x="431.3625" y="253.3125" type="line"/>
    </contour>
  </outline>
</glyph>
<glyph name="dollar" format="2">
  <advance width="539.275"/>
  <unicode hex="0024"/>
  <outline>
    <contour>
      <point x="301.4625" y="-213.775" type="curve" smooth="yes"/>
      <point x="326.0" y="-213.775"/>
      <point x="328.225" y="-207.1"/>
      <point x="328.225" y="-189.85" type="curve" smooth="yes"/>
      <point x="328.225" y="-138.6625"/>
      <point x="327.775" y="-71.575"/>
      <point x="329.775" y="-2.4875" type="curve"/>
      <point x="412.5125" y="21.637500000000003"/>
      <point x="475.425" y="91.7"/>
      <point x="475.425" y="190.3125" type="curve" smooth="yes"/>
      <point x="475.425" y="239.4375"/>
      <point x="454.3625" y="277.3375"/>
      <point x="422.3625" y="310.7875" type="curve" smooth="yes"/>
      <point x="384.2375" y="350.975"/>
      <point x="309.575" y="395.2125"/>
      <point x="276.1875" y="427.9875" type="curve" smooth="yes"/>
      <point x="253.7625" y="449.8"/>
      <point x="241.2125" y="472.0"/>
      <point x="241.2125" y="497.1375" type="curve" smooth="yes"/>
      <point x="241.2125" y="544.125"/>
      <point x="275.1625" y="558.4875"/>
      <point x="302.5875" y="558.4875" type="curve" smooth="yes"/>
      <point x="357.6" y="558.4875"/>
      <point x="401.275" y="534.8"/>
      <point x="425.8875" y="518.7625" type="curve" smooth="yes"/>
      <point x="440.95" y="509.2125"/>
      <point x="451.625" y="500.825"/>
      <point x="460.6875" y="500.825" type="curve" smooth="yes"/>
      <point x="473.75" y="500.825"/>
      <point x="481.2" y="523.7875"/>
      <point x="481.2" y="559.1375" type="curve" smooth="yes"/>
      <point x="481.2" y="578.6125"/>
      <point x="477.3625" y="593.125"/>
      <point x="453.6" y="606.475" type="curve" smooth="yes"/>
      <point x="428.5" y="626.0"/>
      <point x="393.525" y="641.9375"/>
      <point x="353.425" y="647.55" type="curve"/>
      <point x="356.5875" y="705.85"/>
      <point x="359.75" y="747.2125"/>
      <point x="359.75" y="751.825" type="curve" smooth="yes"/>
      <point x="359.75" y="789.425"/>
      <point x="300.775" y="806.0"/>
      <point x="261.85" y="806.0" type="curve" smooth="yes"/>
      <point x="237.7" y="806.0"/>
      <point x="235.0875" y="799.7125"/>
      <point x="235.0875" y="782.4625" type="curve" smooth="yes"/>
      <point x="234.7" y="748.95"/>
      <point x="234.5375" y="699.4625"/>
      <point x="233.375" y="644.875" type="curve"/>
      <point x="137.625" y="624.4625"/>
      <point x="87.275" y="549.525"/>
      <point x="87.275" y="456.375" type="curve" smooth="yes"/>
      <point x="87.275" y="396.025"/>
      <point x="117.0125" y="353.5125"/>
      <point x="154.525" y="319.225" type="curve" smooth="yes"/>
      <point x="195.4" y="281.35"/>
      <point x="256.6125" y="245.05"/>
      <point x="286.325" y="213.5625" type="curve" smooth="yes"/>
      <point x="305.425" y="193.6875"/>
      <point x="317.75" y="172.0375"/>
      <point x="317.75" y="145.9" type="curve" smooth="yes"/>
      <point x="317.75" y="101.42500000000001"/>
      <point x="280.725" y="81.0625"/>
      <point x="243.7875" y="81.0625" type="curve" smooth="yes"/>
      <point x="179.3" y="81.0625"/>
      <point x="139.55" y="102.8125"/>
      <point x="112.6125" y="120.2375" type="curve" smooth="yes"/>
      <point x="97.0625" y="130.725"/>
      <point x="87.225" y="140.275"/>
      <point x="77.1" y="140.275" type="curve" smooth="yes"/>
      <point x="63.0375" y="140.275"/>
      <point x="55.3625" y="107.625"/>
      <point x="55.3625" y="79.6375" type="curve" smooth="yes"/>
      <point x="55.3625" y="59.9375"/>
      <point x="59.425" y="47.1"/>
      <point x="84.1875" y="31.525" type="curve" smooth="yes"/>
      <point x="110.5125" y="11.712499999999999"/>
      <point x="152.9375" y="-6.7124999999999995"/>
      <point x="211.3375" y="-10.55" type="curve"/>
      <point x="207.5625" y="-92.575"/>
      <point x="203.95" y="-152.7625"/>
      <point x="203.95" y="-159.2125" type="curve" smooth="yes"/>
      <point x="203.95" y="-196.8125"/>
      <point x="263.3125" y="-213.775"/>
    </contour>
  </outline>
</glyph>
<glyph name="ampersand" format="2">
  <advance width="759.8"/>
  <unicode hex="0026"/>
  <outline>
    <contour>
      <point x="354.2625" y="-13.0" type="curve" smooth="yes"/>
      <point x="637.875" y="-13.0"/>
      <point x="707.675" y="153.35"/>
      <point x="707.675" y="226.875" type="curve" smooth="yes"/>
      <point x="707.675" y="284.45"/>
      <point x="687.1625" y="319.4875"/>
      <point x="653.875" y="331.8125" type="curve"/>
      <point x="593.2625" y="331.8125" type="line"/>
      <point x="656.3625" y="396.05"/>
      <point x="708.55" y="443.0125"/>
      <point x="717.8125" y="453.8875" type="curve" smooth="yes"/>
      <point x="724.0375" y="461.95"/>
      <point x="729.975" y="473.5625"/>
      <point x="729.975" y="483.6875" type="curve" smooth="yes"/>
      <point x="729.975" y="512.225"/>
      <point x="711.7875" y="547.275"/>
      <point x="691.9875" y="571.3625" type="curve" smooth="yes"/>
      <point x="682.8625" y="582.325"/>
      <point x="676.025" y="587.775"/>
      <point x="670.9625" y="587.775" type="curve" smooth="yes"/>
      <point x="666.9" y="587.775"/>
      <point x="661.9" y="582.775"/>
      <point x="655.675" y="574.9375" type="curve" smooth="yes"/>
      <point x="610.7125" y="519.85"/>
      <point x="393.2125" y="295.7875"/>
      <point x="382.7625" y="284.95" type="curve" smooth="yes"/>
      <point x="372.9875" y="274.7875"/>
      <point x="370.9875" y="266.8875"/>
      <point x="370.9875" y="255.15" type="curve" smooth="yes"/>
      <point x="370.9875" y="226.225"/>
      <point x="390.5625" y="189.4"/>
      <point x="411.75" y="164.925" type="curve" smooth="yes"/>
      <point x="420.875" y="154.35"/>
      <point x="426.55" y="149.2875"/>
      <point x="431.225" y="149.2875" type="curve" smooth="yes"/>
      <point x="435.675" y="149.2875"/>
      <point x="440.5125" y="153.9"/>
      <point x="446.125" y="161.125" type="curve" smooth="yes"/>
      <point x="483.5875" y="207.75"/>
      <point x="524.85" y="254.5625"/>
      <point x="556.0875" y="289.9625" type="curve"/>
      <point x="575.6125" y="289.1875"/>
      <point x="596.425" y="251.3"/>
      <point x="596.425" y="214.6125" type="curve" smooth="yes"/>
      <point x="596.425" y="136.025"/>
      <point x="513.95" y="52.5625"/>
      <point x="391.2125" y="52.5625" type="curve" smooth="yes"/>
      <point x="282.25" y="52.5625"/>
      <point x="204.125" y="113.325"/>
      <point x="204.125" y="212.8" type="curve" smooth="yes"/>
      <point x="204.125" y="280.1"/>
      <point x="241.65" y="340.975"/>
      <point x="329.0625" y="352.0" type="curve" smooth="yes"/>
      <point x="338.5125" y="353.8375"/>
      <point x="342.675" y="363.0625"/>
      <point x="342.675" y="372.0625" type="curve" smooth="yes"/>
      <point x="342.675" y="387.3875"/>
      <point x="339.7375" y="391.55"/>
      <point x="331.575" y="395.8375" type="curve" smooth="yes"/>
      <point x="311.7" y="406.25"/>
      <point x="272.675" y="436.2875"/>
      <point x="272.675" y="490.5" type="curve" smooth="yes"/>
      <point x="272.675" y="540.825"/>
      <point x="299.9125" y="575.35"/>
      <point x="348.0875" y="575.35" type="curve" smooth="yes"/>
      <point x="387.65" y="575.35"/>
      <point x="416.9125" y="561.15"/>
      <point x="440.5" y="544.6875" type="curve" smooth="yes"/>
      <point x="448.3375" y="540.9125"/>
      <point x="454.5625" y="537.75"/>
      <point x="458.175" y="537.75" type="curve" smooth="yes"/>
      <point x="466.7875" y="537.75"/>
      <point x="477.3" y="555.875"/>
      <point x="477.3" y="587.5125" type="curve" smooth="yes"/>
      <point x="477.3" y="601.4125"/>
      <point x="474.2375" y="610.4125"/>
      <point x="465.85" y="615.35" type="curve" smooth="yes"/>
      <point x="429.825" y="635.2875"/>
      <point x="369.0875" y="652.0"/>
      <point x="305.5375" y="652.0" type="curve" smooth="yes"/>
      <point x="212.8625" y="652.0"/>
      <point x="123.6375" y="616.2875"/>
      <point x="123.6375" y="517.775" type="curve" smooth="yes"/>
      <point x="123.6375" y="440.0"/>
      <point x="180.6625" y="399.45"/>
      <point x="237.1125" y="377.0" type="curve"/>
      <point x="118.2875" y="377.0"/>
      <point x="56.5375" y="303.0375"/>
      <point x="56.5375" y="208.525" type="curve" smooth="yes"/>
      <point x="56.5375" y="75.6"/>
      <point x="178.9625" y="-13.0"/>
    </contour>
  </outline>
</glyph>
<glyph name="quotesingle" format="2">
  <advance width="195.8"/>
  <unicode hex="0027"/>
  <outline>
    <contour>
      <point x="87.825" y="428.5" type="curve" smooth="yes"/>
      <point x="110.9125" y="428.5"/>
      <point x="121.42500000000001" y="436.725"/>
      <point x="140.9375" y="477.4" type="curve" smooth="yes"/>
      <point x="165.1875" y="527.55"/>
      <point x="201.475" y="611.075"/>
      <point x="201.475" y="626.975" type="curve" smooth="yes"/>
      <point x="201.475" y="646.325"/>
      <point x="176.775" y="652.0"/>
      <point x="128.6" y="652.0" type="curve" smooth="yes"/>
      <point x="78.425" y="652.0"/>
      <point x="56.0125" y="643.9375"/>
      <point x="55.2375" y="616.8125" type="curve" smooth="yes"/>
      <point x="53.6875" y="587.325"/>
      <point x="55.1625" y="491.5125"/>
      <point x="57.0" y="469.775" type="curve" smooth="yes"/>
      <point x="60.0625" y="436.4"/>
      <point x="65.9" y="428.5"/>
    </contour>
  </outline>
</glyph>
<glyph name="parenleft" format="2">
  <advance width="359.3875"/>
  <unicode hex="0028"/>
  <outline>
    <contour>
      <point x="287.35" y="-244.0" type="curve" smooth="yes"/>
      <point x="307.4375" y="-244.0"/>
      <point x="312.05" y="-239.325"/>
      <point x="312.05" y="-227.65" type="curve" smooth="yes"/>
      <point x="312.05" y="-216.1375"/>
      <point x="216.5875" y="-66.0"/>
      <point x="216.5875" y="237.0" type="curve" smooth="yes"/>
      <point x="216.5875" y="430.0"/>
      <point x="276.4" y="599.0125"/>
      <point x="333.775" y="694.35" type="curve" smooth="yes"/>
      <point x="347.1875" y="721.625"/>
      <point x="348.8" y="728.75"/>
      <point x="348.8" y="735.875" type="curve" smooth="yes"/>
      <point x="348.8" y="748.6125"/>
      <point x="338.475" y="756.0"/>
      <point x="316.2875" y="756.0" type="curve" smooth="yes"/>
      <point x="289.625" y="756.0"/>
      <point x="259.0625" y="748.7125"/>
      <point x="240.425" y="728.4625" type="curve" smooth="yes"/>
      <point x="152.3125" y="633.1875"/>
      <point x="74.2875" y="461.025"/>
      <point x="74.2875" y="242.2875" type="curve" smooth="yes"/>
      <point x="74.2875" y="86.0875"/>
      <point x="108.025" y="-57.8"/>
      <point x="204.0875" y="-214.1375" type="curve" smooth="yes"/>
      <point x="219.5" y="-237.6125"/>
      <point x="268.025" y="-244.0"/>
    </contour>
  </outline>
</glyph>
<glyph name="parenright" format="2">
  <advance width="365.5125"/>
  <unicode hex="0029"/>
  <outline>
    <contour>
      <point x="50.225" y="-244.0" type="curve" smooth="yes"/>
      <point x="76.8875" y="-244.0"/>
      <point x="107.45" y="-237.4875"/>
      <point x="126.0875" y="-217.2375" type="curve" smooth="yes"/>
      <point x="214.2" y="-121.9625"/>
      <point x="292.225" y="50.975"/>
      <point x="292.225" y="269.9375" type="curve" smooth="yes"/>
      <point x="292.225" y="425.9125"/>
      <point x="258.4875" y="569.4125"/>
      <point x="162.425" y="725.3625" type="curve" smooth="yes"/>
      <point x="147.0125" y="748.8375"/>
      <point x="98.1" y="756.0"/>
      <point x="79.1625" y="756.0" type="curve" smooth="yes"/>
      <point x="58.6875" y="756.0"/>
      <point x="54.4625" y="750.55"/>
      <point x="54.4625" y="739.2625" type="curve" smooth="yes"/>
      <point x="54.4625" y="728.1375"/>
      <point x="149.925" y="577.225"/>
      <point x="149.925" y="274.6125" type="curve" smooth="yes"/>
      <point x="149.925" y="81.225"/>
      <point x="89.725" y="-87.4"/>
      <point x="32.35" y="-182.35" type="curve" smooth="yes"/>
      <point x="18.9375" y="-209.625"/>
      <point x="17.325" y="-217.525"/>
      <point x="17.325" y="-224.65" type="curve" smooth="yes"/>
      <point x="17.325" y="-237.3875"/>
      <point x="27.65" y="-244.0"/>
    </contour>
  </outline>
</glyph>
<glyph name="asterisk" format="2">
  <advance width="481.0"/>
  <unicode hex="002A"/>
  <outline>
    <contour>
      <point x="279.575" y="297.375" type="curve" smooth="yes"/>
      <point x="294.3125" y="297.375"/>
      <point x="301.9875" y="304.275"/>
      <point x="301.9875" y="318.4625" type="curve" smooth="yes"/>
      <point x="301.9875" y="364.0875"/>
      <point x="288.0875" y="418.275"/>
      <point x="283.8" y="489.6625" type="curve"/>
      <point x="335.8375" y="443.1875"/>
      <point x="366.575" y="399.1625"/>
      <point x="404.525" y="369.35" type="curve" smooth="yes"/>
      <point x="409.5875" y="364.675"/>
      <point x="414.2625" y="362.45"/>
      <point x="419.325" y="362.45" type="curve" smooth="yes"/>
      <point x="440.575" y="362.45"/>
      <point x="467.375" y="415.05"/>
      <point x="467.375" y="436.95" type="curve" smooth="yes"/>
      <point x="467.375" y="449.85"/>
      <point x="463.15" y="459.525"/>
      <point x="455.15" y="465.3625" type="curve" smooth="yes"/>
      <point x="432.375" y="482.2625"/>
      <point x="374.6125" y="491.775"/>
      <point x="309.7625" y="523.2375" type="curve"/>
      <point x="373.35" y="544.8"/>
      <point x="431.275" y="543.1875"/>
      <point x="460.9875" y="561.675" type="curve" smooth="yes"/>
      <point x="470.05" y="566.9"/>
      <point x="476.95" y="578.1875"/>
      <point x="476.95" y="594.375" type="curve" smooth="yes"/>
      <point x="476.95" y="618.4375"/>
      <point x="456.8875" y="669.2625"/>
      <point x="438.8625" y="669.2625" type="curve" smooth="yes"/>
      <point x="435.025" y="669.2625"/>
      <point x="430.575" y="668.2625"/>
      <point x="425.7375" y="665.0375" type="curve" smooth="yes"/>
      <point x="387.05" y="640.675"/>
      <point x="347.8625" y="598.775"/>
      <point x="291.25" y="559.1" type="curve"/>
      <point x="307.825" y="621.7875"/>
      <point x="340.175" y="675.2"/>
      <point x="340.175" y="710.85" type="curve" smooth="yes"/>
      <point x="340.175" y="731.525"/>
      <point x="313.525" y="756.0"/>
      <point x="254.45" y="756.0" type="curve" smooth="yes"/>
      <point x="239.325" y="756.0"/>
      <point x="232.0375" y="749.1"/>
      <point x="232.0375" y="733.75" type="curve" smooth="yes"/>
      <point x="232.8125" y="696.125"/>
      <point x="240.4875" y="654.45"/>
      <point x="245.3875" y="603.225" type="curve" smooth="yes"/>
      <point x="246.6125" y="590.6125"/>
      <point x="247.8375" y="578.0"/>
      <point x="248.0625" y="564.0" type="curve"/>
      <point x="196.8625" y="611.35"/>
      <point x="166.4125" y="654.825"/>
      <point x="128.4" y="684.025" type="curve" smooth="yes"/>
      <point x="122.95" y="689.0875"/>
      <point x="117.8875" y="691.3125"/>
      <point x="112.825" y="691.3125" type="curve" smooth="yes"/>
      <point x="97.475" y="691.3125"/>
      <point x="65.9375" y="642.3875"/>
      <point x="65.9375" y="615.975" type="curve" smooth="yes"/>
      <point x="65.9375" y="603.6875"/>
      <point x="70.775" y="594.2375"/>
      <point x="77.3875" y="588.4" type="curve" smooth="yes"/>
      <point x="104.425" y="565.625"/>
      <point x="163.125" y="556.725"/>
      <point x="224.4875" y="529.5875" type="curve"/>
      <point x="158.4125" y="506.0875"/>
      <point x="98.1" y="507.3125"/>
      <point x="73.2625" y="492.3125" type="curve" smooth="yes"/>
      <point x="64.2" y="486.475"/>
      <point x="56.3" y="475.1875"/>
      <point x="56.3" y="457.3875" type="curve" smooth="yes"/>
      <point x="56.3" y="436.3875"/>
      <point x="74.3" y="385.1125"/>
      <point x="94.0" y="385.1125" type="curve" smooth="yes"/>
      <point x="97.45" y="385.1125"/>
      <point x="101.9" y="386.1125"/>
      <point x="106.9625" y="388.95" type="curve" smooth="yes"/>
      <point x="148.3625" y="414.475"/>
      <point x="186.1625" y="454.6"/>
      <point x="242.0" y="492.3375" type="curve"/>
      <point x="225.8125" y="421.5125"/>
      <point x="193.075" y="370.425"/>
      <point x="193.075" y="342.1375" type="curve" smooth="yes"/>
      <point x="193.075" y="320.6875"/>
      <point x="220.1125" y="297.375"/>
    </contour>
  </outline>
</glyph>
<glyph name="plus" format="2">
  <advance width="568.375"/>
  <unicode hex="002B"/>
  <outline>
    <contour>
      <point x="309.1" y="82.9375" type="curve" smooth="yes"/>
      <point x="330.9" y="82.9375"/>
      <point x="335.45" y="87.1625"/>
      <point x="335.45" y="102.0625" type="curve" smooth="yes"/>
      <point x="335.45" y="134.1125"/>
      <point x="339.55" y="203.6625"/>
      <point x="343.325" y="271.95" type="curve"/>
      <point x="502.7625" y="271.95" type="line" smooth="yes"/>
      <point x="520.5375" y="271.95"/>
      <point x="532.375" y="296.85"/>
      <point x="532.375" y="331.775" type="curve" smooth="yes"/>
      <point x="532.375" y="352.025"/>
      <point x="529.15" y="356.4125"/>
      <point x="519.7" y="356.4125" type="curve" smooth="yes"/>
      <point x="343.875" y="356.4125" type="line"/>
      <point x="347.65" y="428.725"/>
      <point x="353.1375" y="489.2"/>
      <point x="353.1375" y="496.75" type="curve" smooth="yes"/>
      <point x="353.1375" y="529.2"/>
      <point x="301.475" y="540.9375"/>
      <point x="271.1625" y="540.9375" type="curve" smooth="yes"/>
      <point x="249.3625" y="540.9375"/>
      <point x="244.2" y="535.4875"/>
      <point x="244.2" y="521.2" type="curve" smooth="yes"/>
      <point x="244.2" y="489.15"/>
      <point x="240.4875" y="422.6375"/>
      <point x="237.325" y="356.4125" type="curve"/>
      <point x="82.9875" y="356.4125" type="line" smooth="yes"/>
      <point x="65.6" y="356.4125"/>
      <point x="53.375" y="332.675"/>
      <point x="53.375" y="296.5875" type="curve" smooth="yes"/>
      <point x="53.375" y="276.3375"/>
      <point x="56.375" y="271.95"/>
      <point x="66.05" y="271.95" type="curve" smooth="yes"/>
      <point x="236.775" y="271.95" type="line"/>
      <point x="233.0" y="198.1875"/>
      <point x="226.5125" y="135.0625"/>
      <point x="226.5125" y="127.125" type="curve" smooth="yes"/>
      <point x="226.5125" y="94.0625"/>
      <point x="278.7875" y="82.9375"/>
    </contour>
  </outline>
</glyph>
<glyph name="comma" format="2">
  <advance width="275.0"/>
  <unicode hex="002C"/>
  <outline>
    <contour>
      <point x="60.6" y="-78.0" type="curve" smooth="yes"/>
      <point x="84.4625" y="-78.0"/>
      <point x="95.075" y="-74.6125"/>
      <point x="112.9375" y="-61.65" type="curve" smooth="yes"/>
      <point x="150.1625" y="-30.225"/>
      <point x="223.7375" y="50.7125"/>
      <point x="223.7375" y="81.7125" type="curve" smooth="yes"/>
      <point x="223.7375" y="95.225"/>
      <point x="217.2875" y="108.9"/>
      <point x="201.1" y="126.7" type="curve" smooth="yes"/>
      <point x="186.9125" y="141.5"/>
      <point x="155.4125" y="165.1"/>
      <point x="139.0625" y="165.1" type="curve" smooth="yes"/>
      <point x="130.1625" y="165.1"/>
      <point x="126.7125" y="162.2625"/>
      <point x="121.0375" y="146.4625" type="curve" smooth="yes"/>
      <point x="103.6125" y="102.61250000000001"/>
      <point x="48.325" y="-3.924999999999997"/>
      <point x="28.75" y="-40.9125" type="curve" smooth="yes"/>
      <point x="21.975" y="-52.9125"/>
      <point x="18.362499999999997" y="-58.1375"/>
      <point x="18.362499999999997" y="-60.75" type="curve" smooth="yes"/>
      <point x="18.362499999999997" y="-63.75"/>
      <point x="41.125" y="-78.0"/>
    </contour>
  </outline>
</glyph>
<glyph name="hyphen" format="2">
  <advance width="275.0"/>
  <unicode hex="002D"/>
  <outline>
    <contour>
      <point x="22.35" y="252.175" type="curve" smooth="yes"/>
      <point x="235.1625" y="252.175" type="line" smooth="yes"/>
      <point x="250.55" y="252.175"/>
      <point x="259.6125" y="280.3"/>
      <point x="259.6125" y="321.125" type="curve" smooth="yes"/>
      <point x="259.6125" y="345.275"/>
      <point x="257.0" y="348.5"/>
      <point x="248.9375" y="348.5" type="curve" smooth="yes"/>
      <point x="36.125" y="348.5" type="line" smooth="yes"/>
      <point x="20.7375" y="348.5"/>
      <point x="11.675" y="319.375"/>
      <point x="11.675" y="279.55" type="curve" smooth="yes"/>
      <point x="11.675" y="255.4"/>
      <point x="14.287500000000001" y="252.175"/>
    </contour>
  </outline>
</glyph>
<glyph name="period" format="2">
  <advance width="275.0"/>
  <unicode hex="002E"/>
  <outline>
    <contour>
      <point x="130.2875" y="0.0" type="curve" smooth="yes"/>
      <point x="175.275" y="0.0"/>
      <point x="216.775" y="22.675"/>
      <point x="216.775" y="77.36250000000001" type="curve" smooth="yes"/>
      <point x="216.775" y="117.48750000000001"/>
      <point x="189.3" y="158.9875"/>
      <point x="150.1875" y="158.9875" type="curve" smooth="yes"/>
      <point x="112.75" y="158.9875"/>
      <point x="61.699999999999996" y="122.5125"/>
      <point x="61.699999999999996" y="71.75" type="curve" smooth="yes"/>
      <point x="61.699999999999996" y="18.9625"/>
      <point x="93.3625" y="0.0"/>
    </contour>
  </outline>
</glyph>
<glyph name="slash" format="2">
  <advance width="506.375"/>
  <unicode hex="002F"/>
  <outline>
    <contour>
      <point x="126.2125" y="-34.6125" type="curve" smooth="yes"/>
      <point x="144.2375" y="-34.6125"/>
      <point x="156.525" y="-30.225"/>
      <point x="169.875" y="0.6000000000000014" type="curve" smooth="yes"/>
      <point x="204.95" y="71.675"/>
      <point x="442.375" y="532.7125"/>
      <point x="462.35" y="567.525" type="curve" smooth="yes"/>
      <point x="472.9625" y="587.65"/>
      <point x="486.2125" y="614.7"/>
      <point x="486.2125" y="621.6" type="curve" smooth="yes"/>
      <point x="486.2125" y="645.6875"/>
      <point x="412.3125" y="675.0"/>
      <point x="381.0625" y="675.0" type="curve" smooth="yes"/>
      <point x="363.0375" y="675.0"/>
      <point x="351.3625" y="670.6125"/>
      <point x="337.4" y="639.7875" type="curve" smooth="yes"/>
      <point x="277.475" y="544.0625"/>
      <point x="108.13749999999999" y="173.9375"/>
      <point x="43.7625" y="71.7" type="curve" smooth="yes"/>
      <point x="32.475" y="49.06250000000001"/>
      <point x="21.0625" y="26.85"/>
      <point x="21.0625" y="19.400000000000002" type="curve" smooth="yes"/>
      <point x="21.0625" y="-4.687499999999998"/>
      <point x="101.0875" y="-34.6125"/>
    </contour>
  </outline>
</glyph>
<glyph name="zero" format="2">
  <advance width="589.6125"/>
  <unicode hex="0030"/>
  <outline>
    <contour>
      <point x="280.7375" y="-13.0" type="curve" smooth="yes"/>
      <point x="461.15" y="-13.0"/>
      <point x="550.275" y="134.0"/>
      <point x="550.275" y="374.0" type="curve" smooth="yes"/>
      <point x="550.275" y="562.0"/>
      <point x="459.15" y="652.0"/>
      <point x="331.8" y="652.0" type="curve" smooth="yes"/>
      <point x="149.775" y="652.0"/>
      <point x="60.0375" y="506.0"/>
      <point x="60.0375" y="266.0" type="curve" smooth="yes"/>
      <point x="60.0375" y="78.0"/>
      <point x="152.3875" y="-13.0"/>
    </contour>
    <contour>
      <point x="293.5375" y="46.95" type="curve" smooth="yes"/>
      <point x="241.125" y="46.95"/>
      <point x="207.0125" y="139.7625"/>
      <point x="207.0125" y="270.675" type="curve" smooth="yes"/>
      <point x="207.0125" y="461.6875"/>
      <point x="244.675" y="590.825"/>
      <point x="316.775" y="590.825" type="curve" smooth="yes"/>
      <point x="370.025" y="590.825"/>
      <point x="403.9125" y="498.4"/>
      <point x="403.9125" y="368.7125" type="curve" smooth="yes"/>
      <point x="403.9125" y="178.475"/>
      <point x="365.6375" y="46.95"/>
    </contour>
  </outline>
</glyph>
<glyph name="one" format="2">
  <advance width="432.9875"/>
  <unicode hex="0031"/>
  <outline>
    <contour>
      <point x="301.875" y="-13.0" type="curve" smooth="yes"/>
      <point x="332.3125" y="-13.0"/>
      <point x="335.7625" y="-6.324999999999999"/>
      <point x="335.7625" y="10.925" type="curve" smooth="yes"/>
      <point x="335.7625" y="244.725"/>
      <point x="364.4125" y="581.375"/>
      <point x="364.4125" y="597.825" type="curve" smooth="yes"/>
      <point x="364.4125" y="635.425"/>
      <point x="284.8625" y="652.0"/>
      <point x="262.6375" y="652.0" type="curve" smooth="yes"/>
      <point x="252.9" y="652.0"/>
      <point x="73.325" y="515.8125"/>
      <point x="63.9375" y="505.8125" type="curve" smooth="yes"/>
      <point x="55.4875" y="496.75"/>
      <point x="53.875" y="474.8875"/>
      <point x="53.875" y="457.0875" type="curve" smooth="yes"/>
      <point x="53.875" y="420.875"/>
      <point x="62.1" y="404.45"/>
      <point x="70.9375" y="404.45" type="curve" smooth="yes"/>
      <point x="79.6125" y="404.45"/>
      <point x="148.975" y="475.3"/>
      <point x="202.25" y="511.4375" type="curve"/>
      <point x="198.4125" y="389.35"/>
      <point x="176.6" y="55.400000000000006"/>
      <point x="176.6" y="41.5625" type="curve" smooth="yes"/>
      <point x="176.6" y="3.9625000000000004"/>
      <point x="254.15" y="-13.0"/>
    </contour>
  </outline>
</glyph>
<glyph name="two" format="2">
  <advance width="554.9625"/>
  <unicode hex="0032"/>
  <outline>
    <contour>
      <point x="84.8625" y="0.0" type="curve" smooth="yes"/>
      <point x="457.175" y="0.0" type="line" smooth="yes"/>
      <point x="471.5625" y="0.0"/>
      <point x="486.9125" y="21.9375"/>
      <point x="486.9125" y="62.5375" type="curve" smooth="yes"/>
      <point x="486.9125" y="90.975"/>
      <point x="484.9125" y="104.325"/>
      <point x="479.075" y="104.325" type="curve" smooth="yes"/>
      <point x="473.4" y="104.325"/>
      <point x="367.35" y="90.1625"/>
      <point x="290.8125" y="90.1625" type="curve" smooth="yes"/>
      <point x="266.1" y="90.1625"/>
      <point x="243.4875" y="90.1625"/>
      <point x="221.2625" y="90.1625" type="curve"/>
      <point x="278.55" y="150.4875"/>
      <point x="347.725" y="220.2125"/>
      <point x="401.9" y="291.0" type="curve" smooth="yes"/>
      <point x="448.2625" y="352.8125"/>
      <point x="478.6875" y="416.6875"/>
      <point x="478.6875" y="488.4625" type="curve" smooth="yes"/>
      <point x="478.6875" y="617.45"/>
      <point x="375.7" y="652.0"/>
      <point x="277.0" y="652.0" type="curve" smooth="yes"/>
      <point x="200.2" y="652.0"/>
      <point x="140.4875" y="635.35"/>
      <point x="104.75" y="609.0625" type="curve" smooth="yes"/>
      <point x="88.525" y="596.8375"/>
      <point x="84.525" y="584.325"/>
      <point x="84.525" y="567.4875" type="curve" smooth="yes"/>
      <point x="84.525" y="516.15"/>
      <point x="97.7125" y="505.475"/>
      <point x="111.225" y="505.475" type="curve" smooth="yes"/>
      <point x="124.0" y="505.475"/>
      <point x="164.7125" y="562.775"/>
      <point x="240.0125" y="562.775" type="curve" smooth="yes"/>
      <point x="281.025" y="562.775"/>
      <point x="320.425" y="533.225"/>
      <point x="320.425" y="469.375" type="curve" smooth="yes"/>
      <point x="320.425" y="429.9125"/>
      <point x="307.3875" y="387.4875"/>
      <point x="278.8625" y="337.6125" type="curve" smooth="yes"/>
      <point x="241.0125" y="271.35"/>
      <point x="166.3125" y="184.9375"/>
      <point x="77.025" y="97.875" type="curve" smooth="yes"/>
      <point x="62.5125" y="84.36250000000001"/>
      <point x="59.2875" y="73.2375"/>
      <point x="59.2875" y="61.95" type="curve" smooth="yes"/>
      <point x="59.2875" y="46.6625"/>
      <point x="71.125" y="0.0"/>
    </contour>
  </outline>
</glyph>
<glyph name="three" format="2">
  <advance width="556.95"/>
  <unicode hex="0033"/>
  <outline>
    <contour>
      <point x="227.25" y="-13.0" type="curve" smooth="yes"/>
      <point x="393.0625" y="-13.0"/>
      <point x="488.775" y="82.6"/>
      <point x="488.775" y="192.7375" type="curve" smooth="yes"/>
      <point x="488.775" y="281.575"/>
      <point x="431.225" y="342.125"/>
      <point x="341.5875" y="355.9" type="curve"/>
      <point x="378.65" y="364.6125"/>
      <point x="477.2875" y="419.325"/>
      <point x="477.2875" y="510.0" type="curve" smooth="yes"/>
      <point x="477.2875" y="606.2"/>
      <point x="399.0875" y="652.0"/>
      <point x="275.725" y="652.0" type="curve" smooth="yes"/>
      <point x="201.25" y="652.0"/>
      <point x="148.8" y="639.0"/>
      <point x="110.8375" y="617.55" type="curve" smooth="yes"/>
      <point x="93.0" y="607.55"/>
      <point x="84.225" y="593.7125"/>
      <point x="84.225" y="571.3625" type="curve" smooth="yes"/>
      <point x="84.225" y="525.7625"/>
      <point x="90.0625" y="520.5375"/>
      <point x="101.9625" y="520.5375" type="curve" smooth="yes"/>
      <point x="110.4125" y="520.5375"/>
      <point x="125.8" y="530.25"/>
      <point x="148.675" y="541.9" type="curve" smooth="yes"/>
      <point x="174.0" y="554.775"/>
      <point x="204.9375" y="565.1625"/>
      <point x="240.1625" y="565.1625" type="curve" smooth="yes"/>
      <point x="301.7125" y="565.1625"/>
      <point x="329.375" y="527.55"/>
      <point x="329.375" y="478.0125" type="curve" smooth="yes"/>
      <point x="329.375" y="404.8"/>
      <point x="255.9" y="363.2875"/>
      <point x="202.1375" y="358.3875" type="curve" smooth="yes"/>
      <point x="192.6875" y="357.775"/>
      <point x="187.075" y="345.8375"/>
      <point x="187.075" y="326.1" type="curve" smooth="yes"/>
      <point x="187.075" y="313.2"/>
      <point x="188.9125" y="307.1375"/>
      <point x="197.0375" y="307.1375" type="curve" smooth="yes"/>
      <point x="274.4625" y="307.1375"/>
      <point x="336.2875" y="270.9125"/>
      <point x="336.2875" y="185.2125" type="curve" smooth="yes"/>
      <point x="336.2875" y="105.7875"/>
      <point x="281.825" y="73.0"/>
      <point x="214.0" y="73.0" type="curve" smooth="yes"/>
      <point x="135.5375" y="73.0"/>
      <point x="82.8" y="115.625"/>
      <point x="71.5375" y="115.625" type="curve" smooth="yes"/>
      <point x="57.8625" y="115.625"/>
      <point x="55.025" y="107.625"/>
      <point x="55.025" y="69.675" type="curve" smooth="yes"/>
      <point x="55.025" y="40.6125"/>
      <point x="65.5375" y="27.775"/>
      <point x="83.375" y="17.1625" type="curve" smooth="yes"/>
      <point x="114.375" y="-0.6125"/>
      <point x="153.9875" y="-13.0"/>
    </contour>
  </outline>
</glyph>
<glyph name="four" format="2">
  <advance width="563.875"/>
  <unicode hex="0034"/>
  <outline>
    <contour>
      <point x="377.6875" y="-13.0" type="curve" smooth="yes"/>
      <point x="407.35" y="-13.0"/>
      <point x="409.575" y="-6.324999999999999"/>
      <point x="409.575" y="10.925" type="curve" smooth="yes"/>
      <point x="409.575" y="67.8"/>
      <point x="411.1875" y="126.8625"/>
      <point x="414.5125" y="179.6" type="curve"/>
      <point x="517.75" y="179.6" type="line" smooth="yes"/>
      <point x="538.0375" y="179.6"/>
      <point x="540.75" y="218.3"/>
      <point x="540.75" y="237.3" type="curve" smooth="yes"/>
      <point x="540.75" y="256.55"/>
      <point x="537.75" y="261.0"/>
      <point x="532.75" y="261.0" type="curve" smooth="yes"/>
      <point x="519.425" y="261.0"/>
      <point x="485.6625" y="257.225"/>
      <point x="418.125" y="255.45" type="curve"/>
      <point x="424.125" y="388.7875"/>
      <point x="438.6125" y="581.7625"/>
      <point x="438.6125" y="598.2125" type="curve" smooth="yes"/>
      <point x="438.6125" y="635.8125"/>
      <point x="371.9625" y="652.0"/>
      <point x="329.9125" y="652.0" type="curve" smooth="yes"/>
      <point x="315.7875" y="652.0"/>
      <point x="310.175" y="649.0"/>
      <point x="301.275" y="637.875" type="curve" smooth="yes"/>
      <point x="267.975" y="594.925"/>
      <point x="50.2" y="286.3625"/>
      <point x="37.425" y="259.1" type="curve" smooth="yes"/>
      <point x="34.2" y="252.875"/>
      <point x="33.5875" y="244.975"/>
      <point x="33.5875" y="238.9125" type="curve" smooth="yes"/>
      <point x="33.5875" y="210.9875"/>
      <point x="47.3625" y="179.6"/>
      <point x="66.1375" y="179.6" type="curve" smooth="yes"/>
      <point x="266.35" y="179.6" type="line"/>
      <point x="262.4125" y="130.275"/>
      <point x="256.025" y="60.4375"/>
      <point x="256.025" y="41.5625" type="curve" smooth="yes"/>
      <point x="256.025" y="3.9625000000000004"/>
      <point x="329.9625" y="-13.0"/>
    </contour>
    <contour>
      <point x="115.275" y="252.0" type="line"/>
      <point x="137.35" y="290.8875"/>
      <point x="247.1625" y="450.9"/>
      <point x="282.6125" y="489.9" type="curve"/>
      <point x="282.0" y="448.0"/>
      <point x="273.7375" y="336.2375"/>
      <point x="268.7375" y="252.0" type="curve"/>
    </contour>
  </outline>
</glyph>
<glyph name="five" format="2">
  <advance width="543.4875"/>
  <unicode hex="0035"/>
  <outline>
    <contour>
      <point x="236.55" y="-13.0" type="curve" smooth="yes"/>
      <point x="356.8375" y="-13.0"/>
      <point x="484.5625" y="50.9125"/>
      <point x="484.5625" y="203.35" type="curve" smooth="yes"/>
      <point x="484.5625" y="328.9625"/>
      <point x="409.0125" y="391.9625"/>
      <point x="249.275" y="391.9625" type="curve" smooth="yes"/>
      <point x="234.05" y="391.9625"/>
      <point x="214.3375" y="391.35"/>
      <point x="201.4" y="390.125" type="curve"/>
      <point x="215.825" y="528.8125" type="line"/>
      <point x="436.675" y="528.8125" type="line" smooth="yes"/>
      <point x="461.6375" y="528.8125"/>
      <point x="475.825" y="553.0375"/>
      <point x="475.825" y="609.175" type="curve" smooth="yes"/>
      <point x="475.825" y="630.65"/>
      <point x="470.9875" y="639.0"/>
      <point x="457.1875" y="639.0" type="curve" smooth="yes"/>
      <point x="131.4" y="639.0" type="line"/>
      <point x="94.5625" y="297.0875" type="line"/>
      <point x="117.5" y="299.8625"/>
      <point x="161.05" y="302.8625"/>
      <point x="182.15" y="302.8625" type="curve" smooth="yes"/>
      <point x="288.0375" y="302.8625"/>
      <point x="333.2375" y="254.975"/>
      <point x="333.2375" y="191.8375" type="curve" smooth="yes"/>
      <point x="333.2375" y="111.375"/>
      <point x="283.7125" y="73.3875"/>
      <point x="220.85" y="73.3875" type="curve" smooth="yes"/>
      <point x="133.3625" y="73.3875"/>
      <point x="103.1625" y="113.6875"/>
      <point x="89.6125" y="113.6875" type="curve" smooth="yes"/>
      <point x="76.7125" y="113.6875"/>
      <point x="70.2" y="106.85"/>
      <point x="70.2" y="65.575" type="curve" smooth="yes"/>
      <point x="70.2" y="40.225"/>
      <point x="80.9375" y="26.3875"/>
      <point x="96.0" y="16.0" type="curve" smooth="yes"/>
      <point x="121.925" y="0.2624999999999993"/>
      <point x="162.5375" y="-13.0"/>
    </contour>
  </outline>
</glyph>
<glyph name="six" format="2">
  <advance width="575.3125"/>
  <unicode hex="0036"/>
  <outline>
    <contour>
      <point x="292.7625" y="-13.0" type="curve" smooth="yes"/>
      <point x="448.4625" y="-13.0"/>
      <point x="538.65" y="89.9125"/>
      <point x="538.65" y="221.0" type="curve" smooth="yes"/>
      <point x="538.65" y="362.525"/>
      <point x="452.375" y="418.6125"/>
      <point x="329.3625" y="418.6125" type="curve" smooth="yes"/>
      <point x="270.3125" y="418.6125"/>
      <point x="230.4625" y="399.275"/>
      <point x="217.5875" y="388.2375" type="curve"/>
      <point x="235.8" y="492.175"/>
      <point x="323.8875" y="580.0875"/>
      <point x="437.1125" y="580.0875" type="curve" smooth="yes"/>
      <point x="446.5625" y="580.0875"/>
      <point x="449.7875" y="588.9875"/>
      <point x="449.7875" y="600.725" type="curve" smooth="yes"/>
      <point x="449.7875" y="631.325"/>
      <point x="438.4" y="652.0"/>
      <point x="395.7" y="652.0" type="curve" smooth="yes"/>
      <point x="273.85" y="652.0"/>
      <point x="58.4875" y="543.3125"/>
      <point x="58.4875" y="252.025" type="curve" smooth="yes"/>
      <point x="58.4875" y="90.0"/>
      <point x="128.225" y="-13.0"/>
    </contour>
    <contour>
      <point x="298.9875" y="48.337500000000006" type="curve" smooth="yes"/>
      <point x="222.825" y="48.337500000000006"/>
      <point x="205.4625" y="152.1875"/>
      <point x="205.4625" y="228.7125" type="curve" smooth="yes"/>
      <point x="205.4625" y="240.4875"/>
      <point x="205.85000000000002" y="259.4875"/>
      <point x="207.2375" y="266.1" type="curve" smooth="yes"/>
      <point x="219.275" y="324.3"/>
      <point x="262.3625" y="356.6625"/>
      <point x="309.25" y="356.6625" type="curve" smooth="yes"/>
      <point x="351.4625" y="356.6625"/>
      <point x="392.2875" y="317.7875"/>
      <point x="392.2875" y="216.1625" type="curve" smooth="yes"/>
      <point x="392.2875" y="107.15"/>
      <point x="346.6875" y="48.337500000000006"/>
    </contour>
  </outline>
</glyph>
<glyph name="seven" format="2">
  <advance width="513.875"/>
  <unicode hex="0037"/>
  <outline>
    <contour>
      <point x="156.1125" y="-13.0" type="curve" smooth="yes"/>
      <point x="183.8125" y="-13.0"/>
      <point x="202.1625" y="-11.0"/>
      <point x="212.0625" y="4.9625" type="curve" smooth="yes"/>
      <point x="305.3" y="149.325"/>
      <point x="448.3625" y="437.6"/>
      <point x="470.5375" y="506.2875" type="curve" smooth="yes"/>
      <point x="475.25" y="520.225"/>
      <point x="483.1875" y="551.0875"/>
      <point x="483.1875" y="565.8875" type="curve" smooth="yes"/>
      <point x="483.1875" y="612.325"/>
      <point x="474.25" y="639.0"/>
      <point x="460.0625" y="639.0" type="curve" smooth="yes"/>
      <point x="120.4375" y="639.0" type="line" smooth="yes"/>
      <point x="95.35" y="639.0"/>
      <point x="77.1" y="605.875"/>
      <point x="77.1" y="521.2375" type="curve" smooth="yes"/>
      <point x="77.1" y="492.4125"/>
      <point x="81.1625" y="488.4125"/>
      <point x="92.9" y="488.4125" type="curve" smooth="yes"/>
      <point x="102.9" y="488.4125"/>
      <point x="208.5" y="498.7375"/>
      <point x="356.0375" y="498.7375" type="curve"/>
      <point x="325.0" y="393.7"/>
      <point x="184.3" y="136.1875"/>
      <point x="97.325" y="31.9875" type="curve" smooth="yes"/>
      <point x="91.2625" y="24.925"/>
      <point x="87.7125" y="18.700000000000003"/>
      <point x="87.7125" y="11.412500000000001" type="curve" smooth="yes"/>
      <point x="87.7125" y="-1.2624999999999993"/>
      <point x="121.9625" y="-13.0"/>
    </contour>
  </outline>
</glyph>
<glyph name="eight" format="2">
  <advance width="575.1"/>
  <unicode hex="0038"/>
  <outline>
    <contour>
      <point x="257.4875" y="-13.0" type="curve" smooth="yes"/>
      <point x="433.2125" y="-13.0"/>
      <point x="513.4375" y="87.575"/>
      <point x="513.4375" y="189.6375" type="curve" smooth="yes"/>
      <point x="513.4375" y="256.375"/>
      <point x="480.8" y="312.85"/>
      <point x="399.425" y="358.15" type="curve"/>
      <point x="466.5875" y="382.6375"/>
      <point x="510.05" y="437.9625"/>
      <point x="510.05" y="502.2" type="curve" smooth="yes"/>
      <point x="510.05" y="580.625"/>
      <point x="448.5875" y="652.0"/>
      <point x="307.3875" y="652.0" type="curve" smooth="yes"/>
      <point x="181.1875" y="652.0"/>
      <point x="90.05" y="578.8625"/>
      <point x="90.05" y="473.6625" type="curve" smooth="yes"/>
      <point x="90.05" y="408.3375"/>
      <point x="123.4125" y="350.5"/>
      <point x="184.3875" y="314.5625" type="curve"/>
      <point x="103.8875" y="280.0125"/>
      <point x="60.8125" y="223.2375"/>
      <point x="60.8125" y="153.45" type="curve" smooth="yes"/>
      <point x="60.8125" y="70.125"/>
      <point x="121.85" y="-13.0"/>
    </contour>
    <contour>
      <point x="270.875" y="48.725" type="curve" smooth="yes"/>
      <point x="201.1375" y="48.725"/>
      <point x="171.0375" y="97.875"/>
      <point x="171.0375" y="151.4875" type="curve" smooth="yes"/>
      <point x="171.0375" y="207.9625"/>
      <point x="210.125" y="249.5125"/>
      <point x="250.5" y="275.7375" type="curve"/>
      <point x="301.9625" y="241.85"/>
      <point x="369.075" y="202.05"/>
      <point x="369.075" y="132.5625" type="curve" smooth="yes"/>
      <point x="369.075" y="72.375"/>
      <point x="319.5375" y="48.725"/>
    </contour>
    <contour>
      <point x="338.4375" y="393.75" type="curve"/>
      <point x="268.075" y="429.6875"/>
      <point x="228.8375" y="465.2375"/>
      <point x="228.8375" y="518.4125" type="curve" smooth="yes"/>
      <point x="228.8375" y="569.0125"/>
      <point x="266.8875" y="590.825"/>
      <point x="310.5125" y="590.825" type="curve" smooth="yes"/>
      <point x="362.5875" y="590.825"/>
      <point x="402.825" y="559.075"/>
      <point x="402.825" y="502.2" type="curve" smooth="yes"/>
      <point x="402.825" y="459.7375"/>
      <point x="377.1375" y="421.6625"/>
    </contour>
  </outline>
</glyph>
<glyph name="nine" format="2">
  <advance width="552.25"/>
  <unicode hex="0039"/>
  <outline>
    <contour>
      <point x="186.4375" y="-13.0" type="curve" smooth="yes"/>
      <point x="308.2875" y="-13.0"/>
      <point x="523.65" y="95.6875"/>
      <point x="523.65" y="386.975" type="curve" smooth="yes"/>
      <point x="523.65" y="549.0"/>
      <point x="453.9125" y="652.0"/>
      <point x="289.375" y="652.0" type="curve" smooth="yes"/>
      <point x="133.675" y="652.0"/>
      <point x="43.4875" y="549.0875"/>
      <point x="43.4875" y="418.0" type="curve" smooth="yes"/>
      <point x="43.4875" y="276.475"/>
      <point x="129.7625" y="220.3875"/>
      <point x="252.775" y="220.3875" type="curve" smooth="yes"/>
      <point x="311.825" y="220.3875"/>
      <point x="351.675" y="239.725"/>
      <point x="364.55" y="250.7625" type="curve"/>
      <point x="346.3375" y="146.825"/>
      <point x="258.25" y="58.9125"/>
      <point x="145.025" y="58.9125" type="curve" smooth="yes"/>
      <point x="135.575" y="58.9125"/>
      <point x="132.35" y="50.0125"/>
      <point x="132.35" y="38.275000000000006" type="curve" smooth="yes"/>
      <point x="132.35" y="7.675000000000001"/>
      <point x="143.7375" y="-13.0"/>
    </contour>
    <contour>
      <point x="272.8875" y="281.1125" type="curve" smooth="yes"/>
      <point x="230.675" y="281.1125"/>
      <point x="189.85000000000002" y="319.9875"/>
      <point x="189.85000000000002" y="421.6125" type="curve" smooth="yes"/>
      <point x="189.85000000000002" y="530.625"/>
      <point x="235.45" y="589.4375"/>
      <point x="283.15" y="589.4375" type="curve" smooth="yes"/>
      <point x="359.3125" y="589.4375"/>
      <point x="376.675" y="485.5875"/>
      <point x="376.675" y="409.0625" type="curve" smooth="yes"/>
      <point x="376.675" y="397.9"/>
      <point x="376.2875" y="377.0625"/>
      <point x="374.9" y="371.675" type="curve" smooth="yes"/>
      <point x="362.25" y="313.475"/>
      <point x="319.775" y="281.1125"/>
    </contour>
  </outline>
</glyph>
<glyph name="colon" format="2">
  <advance width="275.0"/>
  <unicode hex="003A"/>
  <outline>
    <contour>
      <point x="133.05" y="183.13750000000002" type="curve" smooth="yes"/>
      <point x="174.3625" y="183.13750000000002"/>
      <point x="220.375" y="216.8375"/>
      <point x="220.7625" y="259.88750000000005" type="curve" smooth="yes"/>
      <point x="221.53750000000002" y="314.7125"/>
      <point x="187.1625" y="335.38750000000005"/>
      <point x="152.95" y="335.38750000000005" type="curve" smooth="yes"/>
      <point x="111.8375" y="335.38750000000005"/>
      <point x="65.6875" y="311.775"/>
      <point x="65.6875" y="255.50000000000003" type="curve" smooth="yes"/>
      <point x="65.6875" y="220.47500000000002"/>
      <point x="90.8375" y="183.13750000000002"/>
    </contour>
    <contour>
      <point x="142.3" y="153.99999999999997" type="curve" smooth="yes"/>
      <point x="183.8" y="153.99999999999997"/>
      <point x="229.95" y="177.61249999999998"/>
      <point x="229.95" y="233.8875" type="curve" smooth="yes"/>
      <point x="229.95" y="268.9125"/>
      <point x="204.4125" y="306.25"/>
      <point x="162.5875" y="306.25" type="curve" smooth="yes"/>
      <point x="120.8875" y="306.25"/>
      <point x="74.875" y="272.54999999999995"/>
      <point x="74.875" y="228.8875" type="curve" smooth="yes"/>
      <point x="74.875" y="174.67499999999998"/>
      <point x="108.475" y="153.99999999999997"/>
    </contour>
  </outline>
</glyph>
<glyph name="semicolon" format="2">
  <advance width="290.0875"/>
  <unicode hex="003B"/>
  <outline>
    <contour>
      <point x="166.35" y="337.75" type="curve" smooth="yes"/>
      <point x="203.7875" y="337.75"/>
      <point x="254.8375" y="373.0"/>
      <point x="254.8375" y="420.7" type="curve" smooth="yes"/>
      <point x="254.8375" y="471.65"/>
      <point x="223.175" y="490.0"/>
      <point x="186.25" y="490.0" type="curve" smooth="yes"/>
      <point x="140.875" y="490.0"/>
      <point x="99.7625" y="467.9375"/>
      <point x="99.7625" y="416.3125" type="curve" smooth="yes"/>
      <point x="99.7625" y="377.4125"/>
      <point x="127.2375" y="337.75"/>
    </contour>
    <contour>
      <point x="60.6" y="-78.6125" type="curve" smooth="yes"/>
      <point x="84.4625" y="-78.6125"/>
      <point x="95.075" y="-75.225"/>
      <point x="112.9375" y="-62.2625" type="curve" smooth="yes"/>
      <point x="150.1625" y="-30.8375"/>
      <point x="223.7375" y="50.1"/>
      <point x="223.7375" y="81.1" type="curve" smooth="yes"/>
      <point x="223.7375" y="94.6125"/>
      <point x="217.2875" y="108.2875"/>
      <point x="201.1" y="126.0875" type="curve" smooth="yes"/>
      <point x="186.9125" y="140.8875"/>
      <point x="155.4125" y="164.4875"/>
      <point x="139.0625" y="164.4875" type="curve" smooth="yes"/>
      <point x="130.1625" y="164.4875"/>
      <point x="126.7125" y="161.65"/>
      <point x="121.0375" y="145.85" type="curve" smooth="yes"/>
      <point x="103.6125" y="102.0"/>
      <point x="48.325" y="-4.537499999999994"/>
      <point x="28.75" y="-41.525" type="curve" smooth="yes"/>
      <point x="21.975" y="-53.525"/>
      <point x="18.362499999999997" y="-58.75"/>
      <point x="18.362499999999997" y="-61.3625" type="curve" smooth="yes"/>
      <point x="18.362499999999997" y="-64.3625"/>
      <point x="41.125" y="-78.6125"/>
    </contour>
  </outline>
</glyph>
<glyph name="less" format="2">
  <advance width="540.0"/>
  <unicode hex="003C"/>
  <outline>
    <contour>
      <point x="423.65" y="96.7875" type="curve" smooth="yes"/>
      <point x="433.8125" y="96.7875"/>
      <point x="437.4875" y="122.8125"/>
      <point x="437.4875" y="146.9375" type="curve" smooth="yes"/>
      <point x="437.4875" y="164.8"/>
      <point x="434.425" y="178.7625"/>
      <point x="406.95" y="191.8875" type="curve" smooth="yes"/>
      <point x="201.825" y="287.4" type="line"/>
      <point x="455.75" y="392.875" type="line" smooth="yes"/>
      <point x="478.65" y="402.7125"/>
      <point x="484.3875" y="431.1625"/>
      <point x="484.3875" y="483.9375" type="curve" smooth="yes"/>
      <point x="484.3875" y="515.825"/>
      <point x="477.7125" y="528.05"/>
      <point x="470.2625" y="528.05" type="curve" smooth="yes"/>
      <point x="464.425" y="528.05"/>
      <point x="455.5875" y="525.825"/>
      <point x="440.1375" y="519.2125" type="curve" smooth="yes"/>
      <point x="90.425" y="367.6625" type="line" smooth="yes"/>
      <point x="74.3625" y="360.4375"/>
      <point x="66.3625" y="348.15"/>
      <point x="66.3625" y="328.8" type="curve" smooth="yes"/>
      <point x="66.3625" y="291.8375"/>
      <point x="71.2" y="260.7875"/>
      <point x="91.4875" y="250.95" type="curve" smooth="yes"/>
      <point x="403.65" y="104.175" type="line" smooth="yes"/>
      <point x="416.65" y="98.175"/>
      <point x="419.65" y="96.7875"/>
    </contour>
  </outline>
</glyph>
<glyph name="equal" format="2">
  <advance width="556.125"/>
  <unicode hex="003D"/>
  <outline>
    <contour>
      <point x="330.85" y="444.15" type="curve" smooth="yes"/>
      <point x="255.79999999999998" y="444.15" type="line" smooth="yes"/>
      <point x="252.81249999999997" y="444.15"/>
      <point x="247.56249999999997" y="433.625"/>
      <point x="247.56249999999997" y="408.6875" type="curve" smooth="yes"/>
      <point x="247.56249999999997" y="389.7375"/>
      <point x="249.46249999999998" y="387.675"/>
      <point x="253.64999999999998" y="387.675" type="curve" smooth="yes"/>
      <point x="328.70000000000005" y="387.675" type="line" smooth="yes"/>
      <point x="331.6875" y="387.675"/>
      <point x="336.9375" y="398.5875"/>
      <point x="336.9375" y="424.1375" type="curve" smooth="yes"/>
      <point x="336.9375" y="442.0875"/>
      <point x="335.0375" y="444.15"/>
    </contour>
    <contour>
      <point x="319.85" y="244.4375" type="curve" smooth="yes"/>
      <point x="244.79999999999998" y="244.4375" type="line" smooth="yes"/>
      <point x="241.81249999999997" y="244.4375"/>
      <point x="236.17499999999998" y="232.525"/>
      <point x="236.17499999999998" y="206.975" type="curve" smooth="yes"/>
      <point x="236.17499999999998" y="189.6375"/>
      <point x="238.46249999999998" y="187.575"/>
      <point x="242.64999999999998" y="187.575" type="curve" smooth="yes"/>
      <point x="317.70000000000005" y="187.575" type="line" smooth="yes"/>
      <point x="320.3" y="187.575"/>
      <point x="325.9375" y="197.4875"/>
      <point x="325.9375" y="222.8125" type="curve" smooth="yes"/>
      <point x="325.9375" y="241.7625"/>
      <point x="324.0375" y="244.4375"/>
    </contour>
  </outline>
</glyph>
<glyph name="greater" format="2">
  <advance width="554.5"/>
  <unicode hex="003E"/>
  <outline>
    <contour>
      <point x="85.8625" y="96.4" type="curve" smooth="yes"/>
      <point x="91.7" y="96.4"/>
      <point x="100.5375" y="98.625"/>
      <point x="115.9875" y="105.2375" type="curve" smooth="yes"/>
      <point x="463.8625" y="256.175" type="line" smooth="yes"/>
      <point x="483.375" y="264.625"/>
      <point x="489.7625" y="295.9"/>
      <point x="489.7625" y="326.6625" type="curve" smooth="yes"/>
      <point x="489.7625" y="352.2125"/>
      <point x="485.3125" y="363.6625"/>
      <point x="464.6375" y="373.5" type="curve" smooth="yes"/>
      <point x="152.8625" y="520.275" type="line" smooth="yes"/>
      <point x="139.8625" y="526.275"/>
      <point x="136.475" y="527.6625"/>
      <point x="132.475" y="527.6625" type="curve" smooth="yes"/>
      <point x="122.3125" y="527.6625"/>
      <point x="118.6375" y="501.6375"/>
      <point x="118.6375" y="477.5125" type="curve" smooth="yes"/>
      <point x="118.6375" y="459.65"/>
      <point x="121.7" y="445.6875"/>
      <point x="149.175" y="432.95" type="curve" smooth="yes"/>
      <point x="354.3" y="337.05" type="line"/>
      <point x="100.375" y="231.575" type="line" smooth="yes"/>
      <point x="77.475" y="221.7375"/>
      <point x="71.7375" y="191.7375"/>
      <point x="71.7375" y="138.9625" type="curve" smooth="yes"/>
      <point x="71.7375" y="107.075"/>
      <point x="78.4125" y="96.4"/>
    </contour>
  </outline>
</glyph>
<glyph name="question" format="2">
  <advance width="447.0"/>
  <unicode hex="003F"/>
  <outline>
    <contour>
      <point x="148.025" y="230.275" type="curve" smooth="yes"/>
      <point x="162.025" y="230.275"/>
      <point x="165.5" y="249.25"/>
      <point x="205.2375" y="279.0125" type="curve" smooth="yes"/>
      <point x="299.25" y="347.225"/>
      <point x="420.65" y="377.925"/>
      <point x="420.65" y="498.7125" type="curve" smooth="yes"/>
      <point x="420.65" y="538.65"/>
      <point x="404.5875" y="572.875"/>
      <point x="381.1375" y="598.9375" type="curve" smooth="yes"/>
      <point x="342.4" y="641.9"/>
      <point x="274.475" y="652.0"/>
      <point x="215.8625" y="652.0" type="curve" smooth="yes"/>
      <point x="157.9875" y="652.0"/>
      <point x="87.0875" y="633.7375"/>
      <point x="47.0625" y="598.5375" type="curve" smooth="yes"/>
      <point x="33.425" y="589.4125"/>
      <point x="30.424999999999997" y="577.45"/>
      <point x="30.424999999999997" y="562.7125" type="curve" smooth="yes"/>
      <point x="30.424999999999997" y="523.95"/>
      <point x="39.875" y="507.725"/>
      <point x="52.775" y="507.725" type="curve" smooth="yes"/>
      <point x="56.3875" y="507.725"/>
      <point x="62.9375" y="512.9875"/>
      <point x="76.65" y="524.4125" type="curve" smooth="yes"/>
      <point x="104.1625" y="544.125"/>
      <point x="144.7125" y="566.0"/>
      <point x="195.3375" y="566.0" type="curve" smooth="yes"/>
      <point x="235.775" y="566.0"/>
      <point x="260.5875" y="536.4375"/>
      <point x="260.5875" y="494.975" type="curve" smooth="yes"/>
      <point x="260.5875" y="447.4375"/>
      <point x="217.075" y="398.525"/>
      <point x="165.7125" y="349.9125" type="curve" smooth="yes"/>
      <point x="140.0375" y="324.3375"/>
      <point x="128.0625" y="297.725"/>
      <point x="128.0625" y="270.4" type="curve" smooth="yes"/>
      <point x="128.0625" y="250.05"/>
      <point x="136.025" y="230.275"/>
    </contour>
    <contour>
      <point x="165.2125" y="-0.6125" type="curve" smooth="yes"/>
      <point x="210.2" y="-0.6125"/>
      <point x="251.7" y="21.45"/>
      <point x="251.7" y="73.075" type="curve" smooth="yes"/>
      <point x="251.7" y="111.975"/>
      <point x="224.225" y="151.6375"/>
      <point x="185.1125" y="151.6375" type="curve" smooth="yes"/>
      <point x="147.675" y="151.6375"/>
      <point x="96.625" y="116.3875"/>
      <point x="96.625" y="68.075" type="curve" smooth="yes"/>
      <point x="96.625" y="17.7375"/>
      <point x="127.9" y="-0.6125"/>
    </contour>
  </outline>
</glyph>
<glyph name="at" format="2">
  <advance width="869.925"/>
  <unicode hex="0040"/>
  <outline>
    <contour>
      <point x="155.175" y="-125.4875" type="curve" smooth="yes"/>
      <point x="163.625" y="-125.4875"/>
      <point x="169.4625" y="-122.2625"/>
      <point x="169.4625" y="-117.0375" type="curve" smooth="yes"/>
      <point x="169.4625" y="-111.0375"/>
      <point x="164.075" y="-98.1"/>
      <point x="159.85" y="-83.5875" type="curve" smooth="yes"/>
      <point x="133.75" y="7.4875"/>
      <point x="120.975" y="93.075"/>
      <point x="120.975" y="192.3875" type="curve" smooth="yes"/>
      <point x="120.975" y="434.4375"/>
      <point x="242.4125" y="583.95"/>
      <point x="473.6125" y="583.95" type="curve" smooth="yes"/>
      <point x="718.975" y="583.95"/>
      <point x="794.025" y="483.5625"/>
      <point x="794.025" y="365.7" type="curve" smooth="yes"/>
      <point x="794.025" y="280.1625"/>
      <point x="756.6" y="199.8625"/>
      <point x="710.7125" y="144.85000000000002" type="curve" smooth="yes"/>
      <point x="694.875" y="124.11250000000001"/>
      <point x="681.2" y="111.2125"/>
      <point x="673.975" y="111.2125" type="curve" smooth="yes"/>
      <point x="665.425" y="111.2125"/>
      <point x="663.65" y="120.5"/>
      <point x="663.65" y="157.72500000000002" type="curve" smooth="yes"/>
      <point x="663.65" y="226.15"/>
      <point x="673.3625" y="372.9125"/>
      <point x="673.3625" y="380.525" type="curve"/>
      <point x="677.75" y="380.525"/>
      <point x="685.8125" y="396.0375"/>
      <point x="685.8125" y="415.9375" type="curve" smooth="yes"/>
      <point x="685.8125" y="424.6125"/>
      <point x="683.5875" y="425.0"/>
      <point x="679.975" y="426.0" type="curve" smooth="yes"/>
      <point x="570.225" y="443.675"/>
      <point x="492.0875" y="449.8375"/>
      <point x="442.7875" y="449.8375" type="curve" smooth="yes"/>
      <point x="367.8" y="449.8375"/>
      <point x="317.25" y="414.0"/>
      <point x="275.475" y="357.225" type="curve" smooth="yes"/>
      <point x="231.475" y="297.6125"/>
      <point x="229.0875" y="120.6125"/>
      <point x="229.0875" y="78.725" type="curve" smooth="yes"/>
      <point x="229.0875" y="62.400000000000006"/>
      <point x="230.0875" y="51.625"/>
      <point x="232.475" y="40.725" type="curve" smooth="yes"/>
      <point x="237.7" y="10.9"/>
      <point x="302.8375" y="-13.0"/>
      <point x="316.5125" y="-13.0" type="curve" smooth="yes"/>
      <point x="365.6125" y="-13.0"/>
      <point x="498.4625" y="152.6625"/>
      <point x="531.0625" y="234.7875" type="curve"/>
      <point x="527.125" y="191.5375"/>
      <point x="523.9625" y="114.8625"/>
      <point x="523.9625" y="78.725" type="curve" smooth="yes"/>
      <point x="523.9625" y="62.400000000000006"/>
      <point x="524.575" y="51.625"/>
      <point x="526.9625" y="40.725" type="curve" smooth="yes"/>
      <point x="532.1875" y="10.9"/>
      <point x="597.7125" y="-13.0"/>
      <point x="611.0" y="-13.0" type="curve" smooth="yes"/>
      <point x="625.775" y="-13.0"/>
      <point x="653.55" y="4.6125"/>
      <point x="684.3875" y="35.6125" type="curve" smooth="yes"/>
      <point x="789.275" y="141.375"/>
      <point x="853.7875" y="261.1125"/>
      <point x="853.7875" y="378.1125" type="curve" smooth="yes"/>
      <point x="853.7875" y="486.4"/>
      <point x="796.25" y="652.0"/>
      <point x="478.575" y="652.0" type="curve" smooth="yes"/>
      <point x="185.25" y="652.0"/>
      <point x="41.0625" y="480.925"/>
      <point x="41.0625" y="222.0875" type="curve" smooth="yes"/>
      <point x="41.0625" y="124.0875"/>
      <point x="63.125" y="16.475"/>
      <point x="108.6375" y="-101.2625" type="curve" smooth="yes"/>
      <point x="115.475" y="-118.7125"/>
      <point x="135.825" y="-125.4875"/>
    </contour>
    <contour>
      <point x="380.9375" y="110.60000000000001" type="curve" smooth="yes"/>
      <point x="372.3875" y="110.60000000000001"/>
      <point x="370.0" y="115.60000000000001"/>
      <point x="370.0" y="155.275" type="curve" smooth="yes"/>
      <point x="370.0" y="309.25"/>
      <point x="396.75" y="396.075"/>
      <point x="453.6625" y="396.075" type="curve" smooth="yes"/>
      <point x="475.25" y="396.075"/>
      <point x="505.2625" y="393.3"/>
      <point x="542.35" y="384.8125" type="curve"/>
      <point x="528.4" y="264.0375"/>
      <point x="400.975" y="110.60000000000001"/>
    </contour>
  </outline>
</glyph>
<glyph name="A" format="2">
  <advance width="649.8625"/>
  <unicode hex="0041"/>
  <anchor x="305.325" y="0.0" name="bottom"/>
  <anchor x="528.9625" y="0.0" name="ogonek"/>
  <anchor x="376.925" y="652.0" name="top"/>
  <outline>
    <contour>
      <point x="77.36250000000001" y="-13.0" type="curve" smooth="yes"/>
      <point x="89.7125" y="-13.0"/>
      <point x="91.1" y="-9.1625"/>
      <point x="93.48750000000001" y="-3.3875" type="curve" smooth="yes"/>
      <point x="110.8375" y="44.4375"/>
      <point x="168.025" y="171.9375"/>
      <point x="177.5125" y="190.0375" type="curve"/>
      <point x="198.4875" y="191.0375"/>
      <point x="245.2375" y="193.425"/>
      <point x="293.5625" y="193.425" type="curve" smooth="yes"/>
      <point x="333.125" y="193.425"/>
      <point x="393.575" y="191.425"/>
      <point x="420.0875" y="189.2" type="curve"/>
      <point x="433.8375" y="141.4375"/>
      <point x="450.4625" y="78.95"/>
      <point x="455.0125" y="50.175" type="curve" smooth="yes"/>
      <point x="457.4" y="35.1125"/>
      <point x="462.2375" y="27.4375"/>
      <point x="468.3" y="21.375" type="curve" smooth="yes"/>
      <point x="490.3875" y="-0.7124999999999995"/>
      <point x="548.8125" y="-13.0"/>
      <point x="593.35" y="-13.0" type="curve" smooth="yes"/>
      <point x="625.4" y="-13.0"/>
      <point x="630.6875" y="-6.324999999999999"/>
      <point x="630.6875" y="6.637500000000001" type="curve" smooth="yes"/>
      <point x="630.6875" y="10.025"/>
      <point x="629.6875" y="15.0875"/>
      <point x="626.075" y="28.9875" type="curve" smooth="yes"/>
      <point x="604.0375" y="113.6375"/>
      <point x="495.5875" y="478.475"/>
      <point x="467.2375" y="605.825" type="curve" smooth="yes"/>
      <point x="462.175" y="630.3625"/>
      <point x="397.75" y="652.0"/>
      <point x="330.875" y="652.0" type="curve" smooth="yes"/>
      <point x="300.6" y="652.0"/>
      <point x="295.15" y="647.9375"/>
      <point x="290.7" y="633.75" type="curve" smooth="yes"/>
      <point x="259.8125" y="561.175"/>
      <point x="93.9" y="222.26250000000002"/>
      <point x="16.637500000000003" y="63.362500000000004" type="curve" smooth="yes"/>
      <point x="10.9625" y="51.400000000000006"/>
      <point x="9.1875" y="46.625"/>
      <point x="9.1875" y="40.95" type="curve" smooth="yes"/>
      <point x="9.1875" y="8.25"/>
      <point x="44.5" y="-13.0"/>
    </contour>
    <contour>
      <point x="208.3125" y="263.6625" type="line"/>
      <point x="235.9875" y="324.975"/>
      <point x="303.7125" y="471.9375"/>
      <point x="331.1375" y="514.9125" type="curve"/>
      <point x="342.85" y="474.2"/>
      <point x="387.25" y="320.6"/>
      <point x="401.1875" y="263.6625" type="curve"/>
    </contour>
  </outline>
</glyph>
<glyph name="B" format="2">
  <advance width="654.1"/>
  <unicode hex="0042"/>
  <anchor x="314.6" y="0.0" name="bottom"/>
  <anchor x="351.5375" y="652.0" name="top"/>
  <outline>
    <contour>
      <point x="76.5625" y="0.0" type="curve"/>
      <point x="352.1625" y="0.0" type="line" smooth="yes"/>
      <point x="510.8" y="0.0"/>
      <point x="603.275" y="91.5875"/>
      <point x="603.275" y="201.5125" type="curve" smooth="yes"/>
      <point x="603.275" y="285.475"/>
      <point x="543.8625" y="341.6125"/>
      <point x="448.275" y="350.6125" type="curve"/>
      <point x="497.55" y="362.45"/>
      <point x="588.175" y="406.8"/>
      <point x="588.175" y="505.1" type="curve" smooth="yes"/>
      <point x="588.175" y="599.125"/>
      <point x="516.375" y="639.0"/>
      <point x="385.4125" y="639.0" type="curve" smooth="yes"/>
      <point x="108.275" y="639.0" type="line"/>
      <point x="104.7875" y="433.6375"/>
      <point x="79.275" y="55.175"/>
    </contour>
    <contour>
      <point x="308.125" y="68.2375" type="curve" smooth="yes"/>
      <point x="253.175" y="68.2375"/>
      <point x="238.1125" y="77.9125"/>
      <point x="239.3375" y="114.4625" type="curve" smooth="yes"/>
      <point x="241.175" y="173.2375"/>
      <point x="243.95" y="260.85"/>
      <point x="247.3375" y="312.65" type="curve"/>
      <point x="264.0875" y="312.65"/>
      <point x="281.45" y="312.65"/>
      <point x="300.65" y="311.425" type="curve" smooth="yes"/>
      <point x="365.1" y="305.3"/>
      <point x="440.375" y="280.5"/>
      <point x="440.375" y="190.425" type="curve" smooth="yes"/>
      <point x="440.375" y="121.0125"/>
      <point x="392.3625" y="68.2375"/>
    </contour>
    <contour>
      <point x="250.72500000000002" y="355.1625" type="curve"/>
      <point x="251.4375" y="414.675"/>
      <point x="259.6625" y="537.525"/>
      <point x="265.4375" y="569.6625" type="curve"/>
      <point x="280.15" y="570.4375"/>
      <point x="300.8375" y="571.9875"/>
      <point x="315.55" y="571.9875" type="curve" smooth="yes"/>
      <point x="389.4625" y="571.9875"/>
      <point x="427.5" y="541.3125"/>
      <point x="427.5" y="483.4" type="curve" smooth="yes"/>
      <point x="427.5" y="448.3625"/>
      <point x="413.0125" y="414.1"/>
      <point x="386.2375" y="391.4875" type="curve" smooth="yes"/>
      <point x="355.875" y="366.45"/>
      <point x="316.225" y="355.1625"/>
    </contour>
  </outline>
</glyph>
<glyph name="C" format="2">
  <advance width="656.3"/>
  <unicode hex="0043"/>
  <anchor x="372.9625" y="0.0" name="bottom"/>
  <anchor x="411.9625" y="652.0" name="top"/>
  <outline>
    <contour>
      <point x="400.45" y="-13.0" type="curve" smooth="yes"/>
      <point x="482.5875" y="-13.0"/>
      <point x="539.025" y="-2.25"/>
      <point x="585.2375" y="14.362499999999999" type="curve" smooth="yes"/>
      <point x="606.875" y="21.5875"/>
      <point x="619.675" y="47.55"/>
      <point x="619.675" y="98.0125" type="curve" smooth="yes"/>
      <point x="619.675" y="109.6875"/>
      <point x="618.45" y="115.6875"/>
      <point x="611.775" y="115.6875" type="curve" smooth="yes"/>
      <point x="607.55" y="115.6875"/>
      <point x="600.55" y="113.30000000000001"/>
      <point x="590.55" y="109.525" type="curve" smooth="yes"/>
      <point x="542.85" y="91.30000000000001"/>
      <point x="489.2875" y="79.775"/>
      <point x="419.2375" y="79.775" type="curve" smooth="yes"/>
      <point x="291.775" y="79.775"/>
      <point x="214.10000000000002" y="147.95"/>
      <point x="214.10000000000002" y="314.1625" type="curve" smooth="yes"/>
      <point x="214.10000000000002" y="500.1375"/>
      <point x="307.3125" y="559.7125"/>
      <point x="412.5375" y="559.7125" type="curve" smooth="yes"/>
      <point x="529.2875" y="559.7125"/>
      <point x="586.3875" y="512.7375"/>
      <point x="603.775" y="512.7375" type="curve" smooth="yes"/>
      <point x="626.3125" y="512.7375"/>
      <point x="630.0875" y="565.075"/>
      <point x="630.0875" y="580.6875" type="curve" smooth="yes"/>
      <point x="630.0875" y="598.1"/>
      <point x="628.4125" y="611.8375"/>
      <point x="606.1875" y="620.6125" type="curve" smooth="yes"/>
      <point x="551.7125" y="641.8375"/>
      <point x="486.1" y="652.0"/>
      <point x="403.6" y="652.0" type="curve" smooth="yes"/>
      <point x="180.85" y="652.0"/>
      <point x="50.8125" y="548.275"/>
      <point x="50.8125" y="289.3375" type="curve" smooth="yes"/>
      <point x="50.8125" y="61.0625"/>
      <point x="196.9" y="-13.0"/>
    </contour>
  </outline>
</glyph>
<glyph name="D" format="2">
  <advance width="763.2375"/>
  <unicode hex="0044"/>
  <anchor x="360.4" y="0.0" name="bottom"/>
  <anchor x="375.9" y="326.0" name="center"/>
  <anchor x="412.0375" y="652.0" name="top"/>
  <outline>
    <contour>
      <point x="76.5625" y="0.0" type="curve"/>
      <point x="362.6875" y="0.0" type="line" smooth="yes"/>
      <point x="586.4" y="0.0"/>
      <point x="729.2875" y="109.8375"/>
      <point x="729.2875" y="364.3875" type="curve" smooth="yes"/>
      <point x="729.2875" y="595.4875"/>
      <point x="586.1125" y="639.0"/>
      <point x="412.675" y="639.0" type="curve" smooth="yes"/>
      <point x="108.275" y="639.0" type="line"/>
      <point x="104.7875" y="433.6375"/>
      <point x="77.725" y="40.0625"/>
    </contour>
    <contour>
      <point x="328.3375" y="70.6875" type="curve" smooth="yes"/>
      <point x="251.3375" y="70.6875"/>
      <point x="239.95" y="76.6875"/>
      <point x="239.95" y="115.6875" type="curve" smooth="yes"/>
      <point x="239.95" y="301.8125"/>
      <point x="258.3375" y="495.3625"/>
      <point x="264.2125" y="562.925" type="curve"/>
      <point x="294.2875" y="566.7"/>
      <point x="325.2625" y="568.7"/>
      <point x="368.55" y="568.7" type="curve" smooth="yes"/>
      <point x="496.175" y="568.7"/>
      <point x="563.2875" y="511.8875"/>
      <point x="563.2875" y="358.1875" type="curve" smooth="yes"/>
      <point x="563.2875" y="122.3875"/>
      <point x="469.45" y="70.6875"/>
    </contour>
  </outline>
</glyph>
<glyph name="E" format="2">
  <advance width="553.0"/>
  <unicode hex="0045"/>
  <anchor x="283.9" y="0.0" name="bottom"/>
  <anchor x="423.9" y="0.0" name="ogonek"/>
  <anchor x="308.3875" y="652.0" name="top"/>
  <anchor x="26.9" y="652.0" name="topleft"/>
  <outline>
    <contour>
      <point x="76.5625" y="0.0" type="curve"/>
      <point x="496.7" y="0.0" type="line" smooth="yes"/>
      <point x="517.175" y="0.0"/>
      <point x="524.725" y="51.1125"/>
      <point x="524.725" y="69.725" type="curve" smooth="yes"/>
      <point x="524.725" y="88.75"/>
      <point x="524.725" y="95.36250000000001"/>
      <point x="518.5" y="95.36250000000001" type="curve" smooth="yes"/>
      <point x="509.6625" y="95.36250000000001"/>
      <point x="445.4125" y="79.2625"/>
      <point x="328.725" y="79.2625" type="curve" smooth="yes"/>
      <point x="251.72500000000002" y="79.2625"/>
      <point x="240.3375" y="87.1"/>
      <point x="240.3375" y="121.2" type="curve" smooth="yes"/>
      <point x="240.3375" y="174.1125"/>
      <point x="244.175" y="250.05"/>
      <point x="246.1125" y="290.5625" type="curve"/>
      <point x="275.0875" y="290.5625" type="line" smooth="yes"/>
      <point x="378.1125" y="290.5625"/>
      <point x="449.7875" y="284.4"/>
      <point x="456.85" y="284.4" type="curve" smooth="yes"/>
      <point x="464.525" y="284.4"/>
      <point x="470.525" y="318.0375"/>
      <point x="470.525" y="341.6125" type="curve" smooth="yes"/>
      <point x="470.525" y="360.025"/>
      <point x="466.3" y="366.6375"/>
      <point x="455.725" y="366.6375" type="curve" smooth="yes"/>
      <point x="248.72500000000002" y="366.6375" type="line"/>
      <point x="251.4375" y="433.5"/>
      <point x="258.825" y="534.85"/>
      <point x="264.6" y="562.3125" type="curve"/>
      <point x="292.925" y="562.3125" type="line" smooth="yes"/>
      <point x="385.5375" y="562.3125"/>
      <point x="463.1125" y="556.375"/>
      <point x="469.7875" y="556.375" type="curve" smooth="yes"/>
      <point x="477.4625" y="556.375"/>
      <point x="483.4625" y="589.7875"/>
      <point x="483.4625" y="613.3625" type="curve" smooth="yes"/>
      <point x="483.4625" y="631.775"/>
      <point x="479.625" y="639.0"/>
      <point x="468.6625" y="639.0" type="curve" smooth="yes"/>
      <point x="108.6625" y="639.0" type="line"/>
      <point x="105.175" y="433.6375"/>
      <point x="79.6625" y="55.175"/>
    </contour>
  </outline>
</glyph>
<glyph name="F" format="2">
  <advance width="507.675"/>
  <unicode hex="0046"/>
  <anchor x="128.9" y="0.0" name="bottom"/>
  <anchor x="292.9" y="652.0" name="top"/>
  <outline>
    <contour>
      <point x="201.8375" y="-13.0" type="curve" smooth="yes"/>
      <point x="231.8875" y="-13.0"/>
      <point x="235.72500000000002" y="-6.324999999999999"/>
      <point x="235.72500000000002" y="10.925" type="curve" smooth="yes"/>
      <point x="235.72500000000002" y="80.475"/>
      <point x="239.5" y="194.6375"/>
      <point x="242.72500000000002" y="268.1125" type="curve"/>
      <point x="270.8625" y="268.1125" type="line" smooth="yes"/>
      <point x="373.8875" y="268.1125"/>
      <point x="445.5625" y="262.175"/>
      <point x="452.2375" y="262.175" type="curve" smooth="yes"/>
      <point x="459.9125" y="262.175"/>
      <point x="465.9125" y="294.975"/>
      <point x="465.9125" y="318.55" type="curve" smooth="yes"/>
      <point x="465.9125" y="337.575"/>
      <point x="462.075" y="344.1875"/>
      <point x="451.1125" y="344.1875" type="curve" smooth="yes"/>
      <point x="246.95" y="344.1875" type="line"/>
      <point x="249.66250000000002" y="401.0375"/>
      <point x="258.05" y="534.85"/>
      <point x="261.6" y="562.3125" type="curve"/>
      <point x="291.5375" y="562.3125" type="line" smooth="yes"/>
      <point x="384.15" y="562.3125"/>
      <point x="458.8875" y="556.9875"/>
      <point x="465.95" y="556.9875" type="curve" smooth="yes"/>
      <point x="473.625" y="556.9875"/>
      <point x="479.625" y="589.7875"/>
      <point x="479.625" y="613.3625" type="curve" smooth="yes"/>
      <point x="479.625" y="631.775"/>
      <point x="475.7875" y="639.0"/>
      <point x="464.825" y="639.0" type="curve" smooth="yes"/>
      <point x="104.825" y="639.0" type="line"/>
      <point x="104.825" y="521.6375"/>
      <point x="90.2125" y="230.725"/>
      <point x="83.1125" y="134.4375" type="curve" smooth="yes"/>
      <point x="80.1125" y="91.4125"/>
      <point x="76.5625" y="45.7875"/>
      <point x="76.5625" y="41.5625" type="curve" smooth="yes"/>
      <point x="76.5625" y="3.9625000000000004"/>
      <point x="153.725" y="-13.0"/>
    </contour>
  </outline>
</glyph>
<glyph name="G" format="2">
  <advance width="727.1875"/>
  <unicode hex="0047"/>
  <anchor x="363.9625" y="0.0" name="bottom"/>
  <anchor x="397.9625" y="652.0" name="top"/>
  <outline>
    <contour>
      <point x="392.3125" y="-13.0" type="curve" smooth="yes"/>
      <point x="510.725" y="-13.0"/>
      <point x="613.6125" y="7.3500000000000005"/>
      <point x="662.75" y="26.675" type="curve"/>
      <point x="668.975" y="142.95"/>
      <point x="675.5875" y="262.2875"/>
      <point x="679.3625" y="324.05" type="curve"/>
      <point x="440.55" y="324.05" type="line" smooth="yes"/>
      <point x="428.875" y="324.05"/>
      <point x="416.975" y="308.95"/>
      <point x="416.975" y="279.3125" type="curve" smooth="yes"/>
      <point x="416.975" y="262.2875"/>
      <point x="419.3625" y="247.2625"/>
      <point x="426.2" y="247.2625" type="curve" smooth="yes"/>
      <point x="433.0375" y="247.2625"/>
      <point x="462.775" y="249.8125"/>
      <point x="529.4875" y="249.8125" type="curve"/>
      <point x="528.7125" y="177.1375"/>
      <point x="522.55" y="102.2375"/>
      <point x="521.1625" y="77.5" type="curve"/>
      <point x="500.5125" y="73.2375"/>
      <point x="463.75" y="68.975"/>
      <point x="420.4" y="68.975" type="curve" smooth="yes"/>
      <point x="318.7625" y="68.975"/>
      <point x="214.10000000000002" y="129.5"/>
      <point x="214.10000000000002" y="311.65" type="curve" smooth="yes"/>
      <point x="214.10000000000002" y="481.7"/>
      <point x="297.5125" y="560.4875"/>
      <point x="418.6625" y="560.4875" type="curve" smooth="yes"/>
      <point x="496.5" y="560.4875"/>
      <point x="559.25" y="539.225"/>
      <point x="592.6375" y="523.9625" type="curve" smooth="yes"/>
      <point x="613.025" y="514.25"/>
      <point x="624.475" y="509.6375"/>
      <point x="631.25" y="509.6375" type="curve" smooth="yes"/>
      <point x="654.175" y="509.6375"/>
      <point x="657.95" y="560.0375"/>
      <point x="657.95" y="578.2" type="curve" smooth="yes"/>
      <point x="657.95" y="598.225"/>
      <point x="652.1125" y="609.35"/>
      <point x="637.925" y="615.1875" type="curve" smooth="yes"/>
      <point x="606.8375" y="629.1875"/>
      <point x="519.6875" y="652.0"/>
      <point x="403.6" y="652.0" type="curve" smooth="yes"/>
      <point x="180.85" y="652.0"/>
      <point x="50.8125" y="548.275"/>
      <point x="50.8125" y="289.3375" type="curve" smooth="yes"/>
      <point x="50.8125" y="85.0875"/>
      <point x="172.1" y="-13.0"/>
    </contour>
  </outline>
</glyph>
<glyph name="H" format="2">
  <advance width="804.9875"/>
  <unicode hex="0048"/>
  <anchor x="382.9" y="0.0" name="bottom"/>
  <anchor x="402.9" y="326.0" name="center"/>
  <anchor x="427.9" y="652.0" name="top"/>
  <anchor x="26.9" y="652.0" name="topleft"/>
  <outline>
    <contour>
      <point x="201.8375" y="-13.0" type="curve" smooth="yes"/>
      <point x="231.8875" y="-13.0"/>
      <point x="235.72500000000002" y="-6.324999999999999"/>
      <point x="235.72500000000002" y="10.925" type="curve" smooth="yes"/>
      <point x="235.72500000000002" y="93.525"/>
      <point x="238.72500000000002" y="187.6625"/>
      <point x="243.8875" y="276.5375" type="curve"/>
      <point x="305.35" y="281.7625"/>
      <point x="365.5875" y="284.375"/>
      <point x="424.2125" y="284.375" type="curve" smooth="yes"/>
      <point x="476.6125" y="284.375"/>
      <point x="528.4" y="282.375"/>
      <point x="576.9625" y="278.7625" type="curve"/>
      <point x="569.8" y="155.1"/>
      <point x="562.475" y="48.7875"/>
      <point x="562.475" y="41.5625" type="curve" smooth="yes"/>
      <point x="562.475" y="3.9625000000000004"/>
      <point x="639.6375" y="-13.0"/>
      <point x="687.75" y="-13.0" type="curve" smooth="yes"/>
      <point x="717.8" y="-13.0"/>
      <point x="722.025" y="-6.324999999999999"/>
      <point x="722.025" y="10.925" type="curve" smooth="yes"/>
      <point x="722.025" y="244.725"/>
      <point x="750.2875" y="581.375"/>
      <point x="750.2875" y="597.825" type="curve" smooth="yes"/>
      <point x="750.2875" y="635.425"/>
      <point x="672.7375" y="652.0"/>
      <point x="624.625" y="652.0" type="curve" smooth="yes"/>
      <point x="594.1875" y="652.0"/>
      <point x="590.7375" y="645.7125"/>
      <point x="590.7375" y="628.4625" type="curve" smooth="yes"/>
      <point x="590.35" y="570.05"/>
      <point x="586.575" y="469.2625"/>
      <point x="581.4125" y="368.925" type="curve"/>
      <point x="248.3375" y="368.925" type="line"/>
      <point x="255.8875" y="495.525"/>
      <point x="263.9875" y="589.825"/>
      <point x="263.9875" y="597.825" type="curve" smooth="yes"/>
      <point x="263.9875" y="635.425"/>
      <point x="186.825" y="652.0"/>
      <point x="138.7125" y="652.0" type="curve" smooth="yes"/>
      <point x="108.275" y="652.0"/>
      <point x="104.825" y="645.7125"/>
      <point x="104.825" y="628.4625" type="curve" smooth="yes"/>
      <point x="103.6625" y="477.5875"/>
      <point x="76.5625" y="57.2375"/>
      <point x="76.5625" y="41.5625" type="curve" smooth="yes"/>
      <point x="76.5625" y="3.9625000000000004"/>
      <point x="153.725" y="-13.0"/>
    </contour>
  </outline>
</glyph>
<glyph name="I" format="2">
  <advance width="323.075"/>
  <unicode hex="0049"/>
  <anchor x="155.3375" y="0.0" name="bottom"/>
  <anchor x="271.0625" y="10.0" name="ogonek"/>
  <anchor x="197.0875" y="652.0" name="top"/>
  <anchor x="30.0625" y="652.0" name="topleft"/>
  <outline>
    <contour>
      <point x="205.0" y="-13.0" type="curve" smooth="yes"/>
      <point x="235.05" y="-13.0"/>
      <point x="238.8875" y="-6.324999999999999"/>
      <point x="238.8875" y="10.925" type="curve" smooth="yes"/>
      <point x="238.8875" y="244.725"/>
      <point x="267.15" y="581.375"/>
      <point x="267.15" y="597.2125" type="curve" smooth="yes"/>
      <point x="267.15" y="635.425"/>
      <point x="189.9875" y="652.0"/>
      <point x="141.875" y="652.0" type="curve" smooth="yes"/>
      <point x="111.4375" y="652.0"/>
      <point x="107.9875" y="645.7125"/>
      <point x="107.9875" y="628.4625" type="curve" smooth="yes"/>
      <point x="106.825" y="477.5875"/>
      <point x="79.725" y="57.2375"/>
      <point x="79.725" y="41.5625" type="curve" smooth="yes"/>
      <point x="79.725" y="3.9625000000000004"/>
      <point x="156.8875" y="-13.0"/>
    </contour>
  </outline>
</glyph>
<glyph name="J" format="2">
  <advance width="377.0125"/>
  <unicode hex="004A"/>
  <anchor x="180.2875" y="0.0" name="bottom"/>
  <anchor x="254.4375" y="652.0" name="top"/>
  <outline>
    <contour>
      <point x="120.3875" y="-13.0" type="curve" smooth="yes"/>
      <point x="198.7" y="-13.0"/>
      <point x="257.375" y="25.8375"/>
      <point x="283.0875" y="103.975" type="curve" smooth="yes"/>
      <point x="314.7625" y="200.0"/>
      <point x="323.7625" y="518.5"/>
      <point x="323.7625" y="597.825" type="curve" smooth="yes"/>
      <point x="323.7625" y="635.425"/>
      <point x="246.6" y="652.0"/>
      <point x="198.4875" y="652.0" type="curve" smooth="yes"/>
      <point x="168.05" y="652.0"/>
      <point x="164.6" y="645.7125"/>
      <point x="164.6" y="628.4625" type="curve" smooth="yes"/>
      <point x="164.6" y="350.6125"/>
      <point x="153.33749999999998" y="104.05"/>
      <point x="125.3625" y="74.3375" type="curve" smooth="yes"/>
      <point x="114.26249999999999" y="62.175"/>
      <point x="101.1625" y="57.2375"/>
      <point x="84.0625" y="57.2375" type="curve" smooth="yes"/>
      <point x="61.275" y="57.2375"/>
      <point x="38.1625" y="67.375"/>
      <point x="30.8375" y="67.375" type="curve" smooth="yes"/>
      <point x="24.6125" y="67.375"/>
      <point x="20.0" y="53.6375"/>
      <point x="20.0" y="42.025" type="curve" smooth="yes"/>
      <point x="20.0" y="24.25"/>
      <point x="24.8375" y="3.775"/>
      <point x="35.6125" y="-1.0" type="curve"/>
      <point x="53.6125" y="-9.3875"/>
      <point x="86.9625" y="-13.0"/>
    </contour>
  </outline>
</glyph>
<glyph name="K" format="2">
  <advance width="668.975"/>
  <unicode hex="004B"/>
  <anchor x="292.9" y="0.0" name="bottom"/>
  <anchor x="336.9" y="652.0" name="top"/>
  <outline>
    <contour>
      <point x="201.8375" y="-13.0" type="curve" smooth="yes"/>
      <point x="231.8875" y="-13.0"/>
      <point x="235.72500000000002" y="-6.324999999999999"/>
      <point x="235.72500000000002" y="10.925" type="curve" smooth="yes"/>
      <point x="235.72500000000002" y="96.9125"/>
      <point x="239.5" y="199.3375"/>
      <point x="243.8875" y="291.5" type="curve"/>
      <point x="250.275" y="281.6"/>
      <point x="269.075" y="270.7625"/>
      <point x="283.9125" y="263.825" type="curve" smooth="yes"/>
      <point x="340.7" y="191.25"/>
      <point x="434.075" y="81.25"/>
      <point x="495.5125" y="5.475000000000001" type="curve" smooth="yes"/>
      <point x="505.25" y="-10.3875"/>
      <point x="512.925" y="-13.0"/>
      <point x="529.8875" y="-13.0" type="curve" smooth="yes"/>
      <point x="567.0625" y="-13.0"/>
      <point x="608.7875" y="9.637500000000001"/>
      <point x="638.3875" y="32.1125" type="curve" smooth="yes"/>
      <point x="647.45" y="39.337500000000006"/>
      <point x="654.2875" y="45.5625"/>
      <point x="654.2875" y="50.625" type="curve" smooth="yes"/>
      <point x="654.2875" y="56.075"/>
      <point x="652.675" y="60.1375"/>
      <point x="642.3875" y="73.1" type="curve" smooth="yes"/>
      <point x="564.8" y="148.0875"/>
      <point x="428.9" y="325.7875"/>
      <point x="400.8625" y="363.4625" type="curve"/>
      <point x="463.3375" y="436.475"/>
      <point x="578.0125" y="545.3625"/>
      <point x="626.325" y="594.4125" type="curve" smooth="yes"/>
      <point x="635.3875" y="604.7"/>
      <point x="639.225" y="609.7625"/>
      <point x="639.225" y="614.6" type="curve" smooth="yes"/>
      <point x="639.225" y="627.5625"/>
      <point x="611.975" y="652.0"/>
      <point x="577.375" y="652.0" type="curve" smooth="yes"/>
      <point x="552.6375" y="652.0"/>
      <point x="544.6375" y="642.65"/>
      <point x="530.575" y="627.1375" type="curve" smooth="yes"/>
      <point x="447.625" y="544.7125"/>
      <point x="301.3625" y="377.9875"/>
      <point x="245.1125" y="315.2625" type="curve"/>
      <point x="253.275" y="464.4375"/>
      <point x="263.9875" y="588.2125"/>
      <point x="263.9875" y="597.825" type="curve" smooth="yes"/>
      <point x="263.9875" y="635.425"/>
      <point x="186.825" y="652.0"/>
      <point x="138.7125" y="652.0" type="curve" smooth="yes"/>
      <point x="108.275" y="652.0"/>
      <point x="104.825" y="645.7125"/>
      <point x="104.825" y="628.4625" type="curve" smooth="yes"/>
      <point x="103.6625" y="477.5875"/>
      <point x="76.5625" y="57.2375"/>
      <point x="76.5625" y="41.5625" type="curve" smooth="yes"/>
      <point x="76.5625" y="3.9625000000000004"/>
      <point x="153.725" y="-13.0"/>
    </contour>
  </outline>
</glyph>
<glyph name="L" format="2">
  <advance width="496.475"/>
  <unicode hex="004C"/>
  <anchor x="280.8375" y="0.0" name="bottom"/>
  <anchor x="237.8375" y="326.0" name="center"/>
  <anchor x="244.8375" y="639.75" name="top"/>
  <anchor x="417.8375" y="524.0" name="topright"/>
  <outline>
    <contour>
      <point x="76.5625" y="0.0" type="curve"/>
      <point x="454.3125" y="0.0" type="line" smooth="yes"/>
      <point x="475.175" y="0.0"/>
      <point x="483.3375" y="48.05"/>
      <point x="483.3375" y="66.6625" type="curve" smooth="yes"/>
      <point x="483.3375" y="85.6875"/>
      <point x="483.3375" y="91.6875"/>
      <point x="477.275" y="91.6875" type="curve" smooth="yes"/>
      <point x="470.375" y="91.6875"/>
      <point x="402.425" y="79.2625"/>
      <point x="328.3375" y="79.2625" type="curve" smooth="yes"/>
      <point x="251.3375" y="79.2625"/>
      <point x="239.95" y="87.1"/>
      <point x="239.95" y="121.2" type="curve" smooth="yes"/>
      <point x="239.95" y="255.2375"/>
      <point x="266.2125" y="586.3125"/>
      <point x="266.2125" y="597.825" type="curve" smooth="yes"/>
      <point x="266.2125" y="635.425"/>
      <point x="189.05" y="652.0"/>
      <point x="140.9375" y="652.0" type="curve" smooth="yes"/>
      <point x="110.8875" y="652.0"/>
      <point x="107.05" y="645.7125"/>
      <point x="107.05" y="628.4625" type="curve" smooth="yes"/>
      <point x="104.3375" y="430.45"/>
      <point x="79.275" y="46.599999999999994"/>
    </contour>
  </outline>
</glyph>
<glyph name="M" format="2">
  <advance width="1002.275"/>
  <unicode hex="004D"/>
  <anchor x="457.75" y="0.0" name="bottom"/>
  <anchor x="516.25" y="652.0" name="top"/>
  <outline>
    <contour>
      <point x="135.1625" y="-13.0" type="curve" smooth="yes"/>
      <point x="148.2875" y="-13.0"/>
      <point x="152.35" y="-8.1625"/>
      <point x="152.9625" y="0.5125000000000002" type="curve" smooth="yes"/>
      <point x="157.8625" y="61.25"/>
      <point x="199.6375" y="399.2125"/>
      <point x="217.9" y="505.65" type="curve"/>
      <point x="248.65" y="413.9375"/>
      <point x="339.7125" y="124.8125"/>
      <point x="366.7625" y="38.075" type="curve" smooth="yes"/>
      <point x="372.6" y="8.8625"/>
      <point x="427.7" y="-13.0"/>
      <point x="488.025" y="-13.0" type="curve" smooth="yes"/>
      <point x="513.2375" y="-13.0"/>
      <point x="519.6875" y="-8.0"/>
      <point x="524.75" y="7.025" type="curve" smooth="yes"/>
      <point x="587.325" y="149.925"/>
      <point x="711.9" y="392.475"/>
      <point x="769.35" y="513.525" type="curve"/>
      <point x="770.575" y="467.7375"/>
      <point x="773.35" y="370.65"/>
      <point x="772.9625" y="271.8125" type="curve" smooth="yes"/>
      <point x="773.1875" y="178.075"/>
      <point x="771.6375" y="83.0"/>
      <point x="771.6375" y="42.7875" type="curve" smooth="yes"/>
      <point x="771.6375" y="5.800000000000001"/>
      <point x="844.125" y="-13.0"/>
      <point x="897.5875" y="-13.0" type="curve" smooth="yes"/>
      <point x="922.7375" y="-13.0"/>
      <point x="932.0875" y="-8.1625"/>
      <point x="932.0875" y="8.025" type="curve" smooth="yes"/>
      <point x="932.0875" y="107.71249999999999"/>
      <point x="919.9" y="477.5375"/>
      <point x="919.125" y="596.825" type="curve" smooth="yes"/>
      <point x="919.125" y="635.8125"/>
      <point x="828.0" y="652.0"/>
      <point x="774.5375" y="652.0" type="curve" smooth="yes"/>
      <point x="747.1625" y="652.0"/>
      <point x="738.425" y="649.1625"/>
      <point x="733.8125" y="637.875" type="curve" smooth="yes"/>
      <point x="704.0625" y="568.8375"/>
      <point x="556.15" y="267.5125"/>
      <point x="495.25" y="154.4" type="curve"/>
      <point x="462.6875" y="238.1625"/>
      <point x="384.8625" y="490.1625"/>
      <point x="348.0" y="599.2125" type="curve" smooth="yes"/>
      <point x="338.9375" y="634.2"/>
      <point x="257.5875" y="652.0"/>
      <point x="193.9" y="652.0" type="curve" smooth="yes"/>
      <point x="156.5625" y="652.0"/>
      <point x="153.3375" y="648.775"/>
      <point x="150.5" y="625.3625" type="curve" smooth="yes"/>
      <point x="138.3" y="515.3625"/>
      <point x="64.275" y="77.9"/>
      <point x="64.275" y="41.5625" type="curve" smooth="yes"/>
      <point x="64.275" y="3.9625000000000004"/>
      <point x="107.8125" y="-13.0"/>
    </contour>
  </outline>
</glyph>
<glyph name="N" format="2">
  <advance width="786.625"/>
  <unicode hex="004E"/>
  <anchor x="387.9875" y="0.0" name="bottom"/>
  <anchor x="428.1125" y="643.55" name="top"/>
  <outline>
    <contour>
      <point x="151.5125" y="-13.0" type="curve" smooth="yes"/>
      <point x="168.7" y="-13.0"/>
      <point x="171.3125" y="-6.7124999999999995"/>
      <point x="171.3125" y="11.700000000000001" type="curve" smooth="yes"/>
      <point x="171.3125" y="130.6"/>
      <point x="182.9625" y="404.9625"/>
      <point x="185.8" y="439.275" type="curve"/>
      <point x="223.15" y="396.1125"/>
      <point x="541.0125" y="52.5625"/>
      <point x="590.25" y="-0.38749999999999996" type="curve" smooth="yes"/>
      <point x="596.475" y="-7.8375"/>
      <point x="604.925" y="-13.0"/>
      <point x="612.6" y="-13.0" type="curve" smooth="yes"/>
      <point x="634.9125" y="-13.0"/>
      <point x="705.275" y="36.337500000000006"/>
      <point x="705.275" y="60.0375" type="curve" smooth="yes"/>
      <point x="705.275" y="146.7"/>
      <point x="731.925" y="571.9625"/>
      <point x="731.925" y="597.825" type="curve" smooth="yes"/>
      <point x="731.925" y="635.425"/>
      <point x="686.9375" y="652.0"/>
      <point x="657.2" y="652.0" type="curve" smooth="yes"/>
      <point x="639.0125" y="652.0"/>
      <point x="636.7875" y="646.1"/>
      <point x="636.7875" y="627.3" type="curve" smooth="yes"/>
      <point x="636.7875" y="435.1625"/>
      <point x="624.75" y="228.6125"/>
      <point x="621.9125" y="201.3375" type="curve"/>
      <point x="565.9625" y="254.28750000000002"/>
      <point x="244.225" y="605.0375"/>
      <point x="218.2375" y="639.775" type="curve" smooth="yes"/>
      <point x="212.4" y="647.225"/>
      <point x="203.5625" y="652.0"/>
      <point x="195.8875" y="652.0" type="curve" smooth="yes"/>
      <point x="172.4125" y="652.0"/>
      <point x="103.2125" y="603.05"/>
      <point x="103.2125" y="579.35" type="curve" smooth="yes"/>
      <point x="103.2125" y="492.6875"/>
      <point x="76.5625" y="67.0375"/>
      <point x="76.5625" y="41.5625" type="curve" smooth="yes"/>
      <point x="76.5625" y="3.9625000000000004"/>
      <point x="121.1625" y="-13.0"/>
    </contour>
  </outline>
</glyph>
<glyph name="O" format="2">
  <advance width="757.575"/>
  <unicode hex="004F"/>
  <anchor x="370.7375" y="0.0" name="bottom"/>
  <anchor x="387.7375" y="326.0" name="center"/>
  <anchor x="438.7375" y="10.0" name="ogonek"/>
  <anchor x="404.7375" y="652.0" name="top"/>
  <anchor x="50.7375" y="652.0" name="topleft"/>
  <anchor x="580.6" y="605.675" name="topright"/>
  <outline>
    <contour>
      <point x="370.325" y="-13.0" type="curve" smooth="yes"/>
      <point x="585.1" y="-13.0"/>
      <point x="719.0125" y="79.4875"/>
      <point x="719.0125" y="358.8" type="curve" smooth="yes"/>
      <point x="719.0125" y="593.5375"/>
      <point x="585.9125" y="652.0"/>
      <point x="405.8875" y="652.0" type="curve" smooth="yes"/>
      <point x="190.5" y="652.0"/>
      <point x="56.5875" y="559.9"/>
      <point x="56.5875" y="281.2" type="curve" smooth="yes"/>
      <point x="56.5875" y="46.46249999999999"/>
      <point x="189.6875" y="-13.0"/>
    </contour>
    <contour>
      <point x="399.5" y="50.95" type="curve" smooth="yes"/>
      <point x="279.625" y="50.95"/>
      <point x="219.875" y="128.875"/>
      <point x="219.875" y="284.8125" type="curve" smooth="yes"/>
      <point x="219.875" y="433.55"/>
      <point x="261.2875" y="593.5625"/>
      <point x="376.1" y="593.5625" type="curve" smooth="yes"/>
      <point x="495.975" y="593.5625"/>
      <point x="555.725" y="515.4125"/>
      <point x="555.725" y="360.7" type="curve" smooth="yes"/>
      <point x="555.725" y="210.35"/>
      <point x="514.925" y="50.95"/>
    </contour>
  </outline>
</glyph>
<glyph name="P" format="2">
  <advance width="613.4625"/>
  <unicode hex="0050"/>
  <anchor x="261.9" y="0.0" name="bottom"/>
  <anchor x="295.9" y="652.0" name="top"/>
  <outline>
    <contour>
      <point x="201.8375" y="-13.0" type="curve" smooth="yes"/>
      <point x="231.8875" y="-13.0"/>
      <point x="235.1125" y="-6.324999999999999"/>
      <point x="235.1125" y="10.925" type="curve" smooth="yes"/>
      <point x="235.1125" y="81.7125"/>
      <point x="237.72500000000002" y="161.75"/>
      <point x="241.1125" y="238.75" type="curve"/>
      <point x="246.5" y="231.525"/>
      <point x="267.4625" y="219.5"/>
      <point x="293.6625" y="219.5" type="curve" smooth="yes"/>
      <point x="479.7125" y="219.5"/>
      <point x="601.8" y="329.075"/>
      <point x="601.8" y="463.2625" type="curve" smooth="yes"/>
      <point x="601.8" y="572.55"/>
      <point x="530.8625" y="639.0"/>
      <point x="383.15" y="639.0" type="curve" smooth="yes"/>
      <point x="104.825" y="639.0" type="line"/>
      <point x="103.275" y="463.5875"/>
      <point x="76.5625" y="57.2375"/>
      <point x="76.5625" y="41.5625" type="curve" smooth="yes"/>
      <point x="76.5625" y="3.9625000000000004"/>
      <point x="153.725" y="-13.0"/>
    </contour>
    <contour>
      <point x="242.1125" y="273.9375" type="curve"/>
      <point x="245.60000000000002" y="343.1875"/>
      <point x="259.825" y="543.7125"/>
      <point x="261.6" y="569.6625" type="curve"/>
      <point x="273.7" y="570.4375"/>
      <point x="285.4125" y="571.9875"/>
      <point x="306.9" y="571.9875" type="curve" smooth="yes"/>
      <point x="403.8" y="571.9875"/>
      <point x="439.5125" y="513.8875"/>
      <point x="439.5125" y="444.75" type="curve" smooth="yes"/>
      <point x="439.5125" y="394.2625"/>
      <point x="421.8" y="349.5875"/>
      <point x="388.575" y="318.75" type="curve" smooth="yes"/>
      <point x="340.5625" y="274.9"/>
      <point x="278.5375" y="270.8375"/>
    </contour>
  </outline>
</glyph>
<glyph name="Q" format="2">
  <advance width="757.575"/>
  <unicode hex="0051"/>
  <outline>
    <contour>
      <point x="653.875" y="-126.0375" type="curve" smooth="yes"/>
      <point x="701.6" y="-126.0375"/>
      <point x="752.8" y="-63.125"/>
      <point x="752.8" y="-24.849999999999998" type="curve" smooth="yes"/>
      <point x="752.8" y="-17.5625"/>
      <point x="750.575" y="-14.787499999999998"/>
      <point x="742.9625" y="-13.5625" type="curve" smooth="yes"/>
      <point x="687.4" y="-8.662499999999998"/>
      <point x="600.1" y="15.2375"/>
      <point x="542.1375" y="31.300000000000004" type="curve"/>
      <point x="643.875" y="69.2"/>
      <point x="719.0125" y="183.7625"/>
      <point x="719.0125" y="358.8" type="curve" smooth="yes"/>
      <point x="719.0125" y="593.5375"/>
      <point x="585.9125" y="652.0"/>
      <point x="405.8875" y="652.0" type="curve" smooth="yes"/>
      <point x="190.5" y="652.0"/>
      <point x="56.5875" y="559.9"/>
      <point x="56.5875" y="281.2" type="curve" smooth="yes"/>
      <point x="56.5875" y="119.4"/>
      <point x="127.7125" y="32.225"/>
      <point x="267.4625" y="-1.5499999999999998" type="curve" smooth="yes"/>
      <point x="331.6875" y="-16.525"/>
      <point x="536.35" y="-100.85"/>
      <point x="603.65" y="-116.75" type="curve" smooth="yes"/>
      <point x="625.3625" y="-121.5875"/>
      <point x="638.75" y="-126.0375"/>
    </contour>
    <contour>
      <point x="399.5" y="39.925" type="curve" smooth="yes"/>
      <point x="279.625" y="39.925"/>
      <point x="219.875" y="119.075"/>
      <point x="219.875" y="278.6875" type="curve" smooth="yes"/>
      <point x="219.875" y="429.875"/>
      <point x="261.2875" y="593.5625"/>
      <point x="376.1" y="593.5625" type="curve" smooth="yes"/>
      <point x="495.975" y="593.5625"/>
      <point x="555.725" y="514.1875"/>
      <point x="555.725" y="356.4125" type="curve" smooth="yes"/>
      <point x="555.725" y="203.0"/>
      <point x="514.925" y="39.925"/>
    </contour>
  </outline>
</glyph>
<glyph name="R" format="2">
  <advance width="643.7875"/>
  <unicode hex="0052"/>
  <anchor x="319.65" y="0.0" name="bottom"/>
  <anchor x="353.65" y="652.0" name="top"/>
  <outline>
    <contour>
      <point x="201.8375" y="-13.0" type="curve" smooth="yes"/>
      <point x="231.8875" y="-13.0"/>
      <point x="235.72500000000002" y="-6.324999999999999"/>
      <point x="235.72500000000002" y="10.925" type="curve" smooth="yes"/>
      <point x="235.72500000000002" y="97.3"/>
      <point x="239.3375" y="188.6"/>
      <point x="244.1125" y="278.825" type="curve"/>
      <point x="252.95" y="268.6"/>
      <point x="276.2375" y="261.0875"/>
      <point x="284.85" y="259.925" type="curve"/>
      <point x="340.3625" y="174.6"/>
      <point x="424.2" y="63.137499999999996"/>
      <point x="473.0125" y="7.3875" type="curve" smooth="yes"/>
      <point x="484.625" y="-7.675000000000001"/>
      <point x="495.85" y="-13.0"/>
      <point x="515.0375" y="-13.0" type="curve" smooth="yes"/>
      <point x="553.475" y="-13.0"/>
      <point x="634.6" y="25.375"/>
      <point x="634.6" y="45.85" type="curve" smooth="yes"/>
      <point x="634.6" y="52.525000000000006"/>
      <point x="631.15" y="57.1375"/>
      <point x="619.8625" y="74.1625" type="curve" smooth="yes"/>
      <point x="595.2875" y="111.05000000000001"/>
      <point x="469.8375" y="268.7375"/>
      <point x="444.6" y="301.1" type="curve"/>
      <point x="530.7875" y="321.9625"/>
      <point x="598.15" y="399.0375"/>
      <point x="598.15" y="483.0375" type="curve" smooth="yes"/>
      <point x="598.15" y="584.9875"/>
      <point x="531.8" y="639.0"/>
      <point x="388.575" y="639.0" type="curve" smooth="yes"/>
      <point x="105.9875" y="639.0" type="line"/>
      <point x="103.6625" y="465.9125"/>
      <point x="76.5625" y="57.2375"/>
      <point x="76.5625" y="41.5625" type="curve" smooth="yes"/>
      <point x="76.5625" y="3.9625000000000004"/>
      <point x="153.725" y="-13.0"/>
    </contour>
    <contour>
      <point x="245.5" y="314.4625" type="curve"/>
      <point x="249.2125" y="383.9375"/>
      <point x="260.2125" y="536.95"/>
      <point x="262.9875" y="570.05" type="curve"/>
      <point x="276.5375" y="571.2125"/>
      <point x="289.0875" y="571.9875"/>
      <point x="306.125" y="571.9875" type="curve" smooth="yes"/>
      <point x="399.3125" y="571.9875"/>
      <point x="435.8625" y="523.9875"/>
      <point x="435.8625" y="462.2375" type="curve" smooth="yes"/>
      <point x="435.8625" y="422.2375"/>
      <point x="421.7" y="387.725"/>
      <point x="394.6375" y="361.05" type="curve" smooth="yes"/>
      <point x="351.05" y="318.625"/>
      <point x="284.0" y="311.75"/>
    </contour>
  </outline>
</glyph>
<glyph name="S" format="2">
  <advance width="551.525"/>
  <unicode hex="0053"/>
  <anchor x="255.05" y="0.0" name="bottom"/>
  <anchor x="301.9" y="652.0" name="top"/>
  <outline>
    <contour>
      <point x="265.275" y="-13.0" type="curve" smooth="yes"/>
      <point x="378.0" y="-13.0"/>
      <point x="488.2875" y="65.7375"/>
      <point x="488.2875" y="190.3125" type="curve" smooth="yes"/>
      <point x="488.2875" y="231.475"/>
      <point x="477.6375" y="271.825"/>
      <point x="441.35" y="308.95" type="curve" smooth="yes"/>
      <point x="392.8125" y="358.9375"/>
      <point x="304.0625" y="402.5625"/>
      <point x="267.6125" y="437.175" type="curve" smooth="yes"/>
      <point x="248.25" y="455.925"/>
      <point x="239.375" y="473.225"/>
      <point x="239.375" y="497.1375" type="curve" smooth="yes"/>
      <point x="239.375" y="546.575"/>
      <point x="278.225" y="559.7125"/>
      <point x="310.55" y="559.7125" type="curve" smooth="yes"/>
      <point x="373.525" y="559.7125"/>
      <point x="414.75" y="532.9625"/>
      <point x="442.425" y="514.475" type="curve" smooth="yes"/>
      <point x="454.425" y="506.15"/>
      <point x="464.4875" y="500.825"/>
      <point x="472.9375" y="500.825" type="curve" smooth="yes"/>
      <point x="486.0" y="500.825"/>
      <point x="493.45" y="523.7875"/>
      <point x="493.45" y="559.1375" type="curve" smooth="yes"/>
      <point x="493.45" y="576.775"/>
      <point x="490.225" y="590.0625"/>
      <point x="473.2" y="602.1875" type="curve" smooth="yes"/>
      <point x="425.5625" y="639.9625"/>
      <point x="355.5375" y="652.0"/>
      <point x="296.575" y="652.0" type="curve" smooth="yes"/>
      <point x="163.0" y="652.0"/>
      <point x="86.6625" y="563.4875"/>
      <point x="86.6625" y="456.375" type="curve" smooth="yes"/>
      <point x="86.6625" y="408.275"/>
      <point x="102.3125" y="363.3125"/>
      <point x="147.175" y="321.675" type="curve" smooth="yes"/>
      <point x="193.5625" y="278.9"/>
      <point x="268.8625" y="243.2125"/>
      <point x="305.925" y="204.9875" type="curve" smooth="yes"/>
      <point x="325.025" y="185.1125"/>
      <point x="334.2875" y="166.525"/>
      <point x="334.2875" y="144.0625" type="curve" smooth="yes"/>
      <point x="334.2875" y="99.5875"/>
      <point x="289.3" y="79.8375"/>
      <point x="249.9125" y="79.8375" type="curve" smooth="yes"/>
      <point x="193.3875" y="79.8375"/>
      <point x="144.45" y="104.0375"/>
      <point x="117.5125" y="120.85" type="curve" smooth="yes"/>
      <point x="97.675" y="132.5625"/>
      <point x="84.775" y="140.275"/>
      <point x="77.1" y="140.275" type="curve" smooth="yes"/>
      <point x="63.0375" y="140.275"/>
      <point x="55.3625" y="107.625"/>
      <point x="55.3625" y="79.6375" type="curve" smooth="yes"/>
      <point x="55.3625" y="59.9375"/>
      <point x="58.8125" y="45.2625"/>
      <point x="84.1875" y="31.525" type="curve" smooth="yes"/>
      <point x="126.825" y="5.199999999999999"/>
      <point x="180.4375" y="-13.0"/>
    </contour>
  </outline>
</glyph>
<glyph name="T" format="2">
  <advance width="535.575"/>
  <unicode hex="0054"/>
  <anchor x="257.35" y="0.0" name="bottom"/>
  <anchor x="284.4875" y="326.0" name="center"/>
  <anchor x="296.8" y="652.0" name="top"/>
  <outline>
    <contour>
      <point x="309.1375" y="-13.0" type="curve" smooth="yes"/>
      <point x="339.575" y="-13.0"/>
      <point x="343.4125" y="-6.324999999999999"/>
      <point x="343.4125" y="10.925" type="curve" smooth="yes"/>
      <point x="343.4125" y="198.46249999999998"/>
      <point x="360.5125" y="444.7875"/>
      <point x="367.9" y="545.775" type="curve"/>
      <point x="372.0625" y="545.775" type="line"/>
      <point x="431.175" y="545.775"/>
      <point x="524.4125" y="537.1625"/>
      <point x="533.8" y="537.1625" type="curve" smooth="yes"/>
      <point x="543.8" y="537.1625"/>
      <point x="549.4125" y="584.3375"/>
      <point x="549.4125" y="611.0125" type="curve" smooth="yes"/>
      <point x="549.4125" y="629.425"/>
      <point x="546.1875" y="639.0"/>
      <point x="534.45" y="639.0" type="curve" smooth="yes"/>
      <point x="52.675" y="639.0" type="line" smooth="yes"/>
      <point x="40.225" y="639.0"/>
      <point x="30.325" y="609.5875"/>
      <point x="30.325" y="568.2125" type="curve" smooth="yes"/>
      <point x="30.325" y="550.8"/>
      <point x="33.9375" y="537.1625"/>
      <point x="40.775" y="537.1625" type="curve" smooth="yes"/>
      <point x="50.55" y="537.1625"/>
      <point x="132.175" y="545.775"/>
      <point x="205.35" y="545.775" type="curve"/>
      <point x="210.125" y="545.775" type="line"/>
      <point x="205.125" y="339.0125"/>
      <point x="184.25" y="54.625"/>
      <point x="184.25" y="41.5625" type="curve" smooth="yes"/>
      <point x="184.25" y="3.9625000000000004"/>
      <point x="261.4125" y="-13.0"/>
    </contour>
  </outline>
</glyph>
<glyph name="U" format="2">
  <advance width="703.1"/>
  <unicode hex="0055"/>
  <anchor x="363.925" y="0.0" name="bottom"/>
  <anchor x="527.1" y="6.125" name="ogonek"/>
  <anchor x="398.7" y="652.0" name="top"/>
  <anchor x="649.475" y="608.0" name="topright"/>
  <outline>
    <contour>
      <point x="344.9" y="-13.0" type="curve" smooth="yes"/>
      <point x="440.6" y="-13.0"/>
      <point x="511.175" y="10.287500000000001"/>
      <point x="562.075" y="57.8" type="curve" smooth="yes"/>
      <point x="657.6875" y="147.25"/>
      <point x="686.6875" y="323.125"/>
      <point x="686.6875" y="597.825" type="curve" smooth="yes"/>
      <point x="686.6875" y="635.425"/>
      <point x="637.7375" y="652.0"/>
      <point x="605.7125" y="652.0" type="curve" smooth="yes"/>
      <point x="585.6875" y="652.0"/>
      <point x="583.4625" y="645.7125"/>
      <point x="583.4625" y="628.4625" type="curve" smooth="yes"/>
      <point x="583.4625" y="323.625"/>
      <point x="555.3625" y="178.9125"/>
      <point x="504.0625" y="119.42500000000001" type="curve" smooth="yes"/>
      <point x="477.025" y="88.48750000000001"/>
      <point x="433.725" y="71.1"/>
      <point x="396.3625" y="71.1" type="curve" smooth="yes"/>
      <point x="350.675" y="71.1"/>
      <point x="308.5375" y="84.875"/>
      <point x="281.1125" y="120.42500000000001" type="curve" smooth="yes"/>
      <point x="248.525" y="162.3625"/>
      <point x="238.03750000000002" y="243.85"/>
      <point x="238.03750000000002" y="331.5" type="curve" smooth="yes"/>
      <point x="238.03750000000002" y="416.5125"/>
      <point x="254.2" y="576.75"/>
      <point x="254.2" y="597.825" type="curve" smooth="yes"/>
      <point x="254.2" y="635.425"/>
      <point x="177.0375" y="652.0"/>
      <point x="128.925" y="652.0" type="curve" smooth="yes"/>
      <point x="98.4875" y="652.0"/>
      <point x="96.875" y="645.7125"/>
      <point x="95.0375" y="628.4625" type="curve" smooth="yes"/>
      <point x="94.425" y="618.4625"/>
      <point x="79.0375" y="450.4875"/>
      <point x="77.8125" y="298.0" type="curve" smooth="yes"/>
      <point x="77.2" y="195.0"/>
      <point x="90.5875" y="104.6125"/>
      <point x="143.65" y="54.225" type="curve" smooth="yes"/>
      <point x="189.325" y="11.225"/>
      <point x="266.3875" y="-13.0"/>
    </contour>
  </outline>
</glyph>
<glyph name="V" format="2">
  <advance width="622.9"/>
  <unicode hex="0056"/>
  <anchor x="293.475" y="0.0" name="bottom"/>
  <anchor x="359.05" y="652.0" name="top"/>
  <outline>
    <contour>
      <point x="327.525" y="-13.0" type="curve" smooth="yes"/>
      <point x="352.0625" y="-13.0"/>
      <point x="358.35" y="-7.9375"/>
      <point x="363.1875" y="2.575000000000001" type="curve" smooth="yes"/>
      <point x="398.6875" y="77.6"/>
      <point x="554.825" y="416.5125"/>
      <point x="623.3125" y="568.2875" type="curve" smooth="yes"/>
      <point x="628.9875" y="580.25"/>
      <point x="633.2125" y="589.925"/>
      <point x="633.2125" y="597.2125" type="curve" smooth="yes"/>
      <point x="633.2125" y="634.2625"/>
      <point x="592.45" y="652.0"/>
      <point x="564.7125" y="652.0" type="curve" smooth="yes"/>
      <point x="555.425" y="652.0"/>
      <point x="550.5875" y="649.775"/>
      <point x="547.975" y="642.1625" type="curve" smooth="yes"/>
      <point x="511.4625" y="538.2"/>
      <point x="370.1" y="210.425"/>
      <point x="329.2" y="138.1125" type="curve"/>
      <point x="303.0625" y="210.4125"/>
      <point x="224.025" y="563.6"/>
      <point x="217.53750000000002" y="597.9875" type="curve" smooth="yes"/>
      <point x="213.925" y="629.65"/>
      <point x="143.8" y="652.0"/>
      <point x="74.7875" y="652.0" type="curve" smooth="yes"/>
      <point x="47.6375" y="652.0"/>
      <point x="38.0625" y="647.55"/>
      <point x="38.0625" y="637.0375" type="curve" smooth="yes"/>
      <point x="38.0625" y="631.8125"/>
      <point x="40.2875" y="626.1375"/>
      <point x="43.2875" y="615.9125" type="curve" smooth="yes"/>
      <point x="55.5875" y="573.525"/>
      <point x="165.2625" y="174.3875"/>
      <point x="194.775" y="42.75" type="curve" smooth="yes"/>
      <point x="202.0625" y="8.025"/>
      <point x="262.4875" y="-13.0"/>
    </contour>
  </outline>
</glyph>
<glyph name="W" format="2">
  <advance width="994.1375"/>
  <unicode hex="0057"/>
  <anchor x="488.3125" y="0.0" name="bottom"/>
  <anchor x="552.9375" y="652.0" name="top"/>
  <outline>
    <contour>
      <point x="263.25" y="-13.0" type="curve" smooth="yes"/>
      <point x="285.95" y="-13.0"/>
      <point x="291.4" y="-10.1625"/>
      <point x="297.2375" y="5.1875" type="curve" smooth="yes"/>
      <point x="311.75" y="44.625"/>
      <point x="447.1875" y="336.1"/>
      <point x="508.5625" y="471.6" type="curve"/>
      <point x="541.475" y="368.55"/>
      <point x="634.3875" y="92.2625"/>
      <point x="646.6125" y="40.400000000000006" type="curve" smooth="yes"/>
      <point x="654.2875" y="7.025"/>
      <point x="723.775" y="-13.0"/>
      <point x="780.1125" y="-13.0" type="curve" smooth="yes"/>
      <point x="803.5875" y="-13.0"/>
      <point x="823.7375" y="-8.775"/>
      <point x="827.1875" y="10.350000000000001" type="curve" smooth="yes"/>
      <point x="847.5" y="112.475"/>
      <point x="990.575" y="565.1625"/>
      <point x="990.575" y="597.825" type="curve" smooth="yes"/>
      <point x="990.575" y="635.425"/>
      <point x="947.0375" y="652.0"/>
      <point x="919.075" y="652.0" type="curve" smooth="yes"/>
      <point x="908.0125" y="652.0"/>
      <point x="902.5" y="650.0"/>
      <point x="901.275" y="633.3625" type="curve" smooth="yes"/>
      <point x="898.2125" y="576.3"/>
      <point x="803.6" y="249.8375"/>
      <point x="774.5875" y="144.95" type="curve"/>
      <point x="737.25" y="247.9"/>
      <point x="658.55" y="513.9625"/>
      <point x="630.8875" y="605.6" type="curve" smooth="yes"/>
      <point x="625.6625" y="632.975"/>
      <point x="568.5625" y="652.0"/>
      <point x="517.425" y="652.0" type="curve" smooth="yes"/>
      <point x="496.5" y="652.0"/>
      <point x="490.05" y="648.8375"/>
      <point x="484.7625" y="633.5875" type="curve" smooth="yes"/>
      <point x="444.1" y="525.0"/>
      <point x="317.475" y="231.5"/>
      <point x="273.275" y="145.5625" type="curve"/>
      <point x="244.8875" y="309.9625"/>
      <point x="215.2625" y="565.45"/>
      <point x="214.03750000000002" y="593.5375" type="curve" smooth="yes"/>
      <point x="212.2" y="629.9125"/>
      <point x="132.425" y="652.0"/>
      <point x="85.475" y="652.0" type="curve" smooth="yes"/>
      <point x="62.3875" y="652.0"/>
      <point x="47.75" y="648.775"/>
      <point x="47.75" y="636.4875" type="curve" smooth="yes"/>
      <point x="47.75" y="631.875"/>
      <point x="49.5875" y="620.5875"/>
      <point x="51.2" y="610.1375" type="curve" smooth="yes"/>
      <point x="58.75" y="552.05"/>
      <point x="119.1" y="153.0375"/>
      <point x="131.075" y="41.95" type="curve" smooth="yes"/>
      <point x="134.3" y="3.575000000000001"/>
      <point x="208.5625" y="-13.0"/>
    </contour>
  </outline>
</glyph>
<glyph name="X" format="2">
  <advance width="594.9375"/>
  <unicode hex="0058"/>
  <anchor x="255.475" y="0.0" name="bottom"/>
  <anchor x="364.4" y="645.6125" name="top"/>
  <outline>
    <contour>
      <point x="69.6" y="-13.0" type="curve" smooth="yes"/>
      <point x="74.2125" y="-13.0"/>
      <point x="78.6625" y="-9.9375"/>
      <point x="92.3375" y="9.575000000000001" type="curve" smooth="yes"/>
      <point x="130.675" y="63.3375"/>
      <point x="211.6375" y="169.1"/>
      <point x="269.9875" y="239.425" type="curve"/>
      <point x="318.15" y="149.27499999999998"/>
      <point x="392.8625" y="20.65"/>
      <point x="404.225" y="4.9" type="curve" smooth="yes"/>
      <point x="412.225" y="-8.1625"/>
      <point x="424.6375" y="-13.0"/>
      <point x="440.825" y="-13.0" type="curve" smooth="yes"/>
      <point x="471.8125" y="-13.0"/>
      <point x="514.475" y="2.7375000000000007"/>
      <point x="541.175" y="18.8625" type="curve" smooth="yes"/>
      <point x="558.425" y="28.9875"/>
      <point x="564.325" y="35.05"/>
      <point x="564.325" y="42.175" type="curve" smooth="yes"/>
      <point x="564.325" y="46.2375"/>
      <point x="560.325" y="52.2375"/>
      <point x="555.1625" y="61.0125" type="curve" smooth="yes"/>
      <point x="521.325" y="118.48750000000001"/>
      <point x="455.725" y="225.725"/>
      <point x="396.225" y="332.225" type="curve"/>
      <point x="469.25" y="418.1875"/>
      <point x="519.35" y="474.8125"/>
      <point x="556.5625" y="535.35" type="curve" smooth="yes"/>
      <point x="562.175" y="546.4125"/>
      <point x="564.7875" y="556.3125"/>
      <point x="564.7875" y="566.7625" type="curve" smooth="yes"/>
      <point x="564.7875" y="604.85"/>
      <point x="531.575" y="652.0"/>
      <point x="519.8" y="652.0" type="curve" smooth="yes"/>
      <point x="515.575" y="652.0"/>
      <point x="511.5125" y="648.1625"/>
      <point x="500.55" y="631.75" type="curve" smooth="yes"/>
      <point x="477.325" y="590.775"/>
      <point x="397.55" y="474.8"/>
      <point x="348.5" y="413.775" type="curve"/>
      <point x="291.4875" y="514.425"/>
      <point x="242.25" y="606.725"/>
      <point x="224.3" y="635.8125" type="curve" smooth="yes"/>
      <point x="217.2375" y="647.9375"/>
      <point x="203.66250000000002" y="652.0"/>
      <point x="186.0875" y="652.0" type="curve" smooth="yes"/>
      <point x="147.9375" y="652.0"/>
      <point x="64.975" y="621.3"/>
      <point x="64.975" y="597.9875" type="curve" smooth="yes"/>
      <point x="64.975" y="593.15"/>
      <point x="67.2" y="588.0875"/>
      <point x="71.975" y="579.7" type="curve" smooth="yes"/>
      <point x="101.55" y="528.4875"/>
      <point x="156.0125" y="434.8125"/>
      <point x="222.4875" y="320.525" type="curve"/>
      <point x="142.3625" y="227.075"/>
      <point x="81.0625" y="162.9625"/>
      <point x="33.3875" y="96.7125" type="curve" smooth="yes"/>
      <point x="28.0" y="87.65"/>
      <point x="25.3875" y="79.1375"/>
      <point x="25.3875" y="70.4625" type="curve" smooth="yes"/>
      <point x="25.3875" y="29.8"/>
      <point x="60.1125" y="-13.0"/>
    </contour>
  </outline>
</glyph>
<glyph name="Y" format="2">
  <advance width="550.075"/>
  <unicode hex="0059"/>
  <anchor x="263.075" y="0.0" name="bottom"/>
  <anchor x="309.325" y="642.0" name="top"/>
  <anchor x="79.075" y="652.0" name="topleft"/>
  <outline>
    <contour>
      <point x="312.025" y="-13.0" type="curve" smooth="yes"/>
      <point x="342.4625" y="-13.0"/>
      <point x="345.9125" y="-6.324999999999999"/>
      <point x="345.9125" y="10.925" type="curve" smooth="yes"/>
      <point x="347.075" y="82.55"/>
      <point x="350.075" y="158.6875"/>
      <point x="353.075" y="244.4" type="curve"/>
      <point x="391.5375" y="310.325"/>
      <point x="502.3125" y="483.225"/>
      <point x="527.125" y="524.4625" type="curve" smooth="yes"/>
      <point x="539.4125" y="543.975"/>
      <point x="544.475" y="564.0625"/>
      <point x="544.475" y="580.3125" type="curve" smooth="yes"/>
      <point x="544.475" y="616.2"/>
      <point x="512.65" y="652.0"/>
      <point x="498.0375" y="652.0" type="curve" smooth="yes"/>
      <point x="490.3625" y="652.0"/>
      <point x="486.1375" y="645.1"/>
      <point x="476.175" y="626.4" type="curve" smooth="yes"/>
      <point x="456.4375" y="588.5375"/>
      <point x="371.575" y="435.7625"/>
      <point x="321.2125" y="357.3625" type="curve"/>
      <point x="295.7875" y="419.65"/>
      <point x="260.9625" y="507.0625"/>
      <point x="221.6125" y="596.925" type="curve" smooth="yes"/>
      <point x="209.8375" y="639.975"/>
      <point x="124.3875" y="652.0"/>
      <point x="71.1875" y="652.0" type="curve" smooth="yes"/>
      <point x="36.975" y="652.0"/>
      <point x="29.075" y="644.4875"/>
      <point x="29.075" y="632.5875" type="curve" smooth="yes"/>
      <point x="29.075" y="628.2"/>
      <point x="32.787499999999994" y="621.1"/>
      <point x="35.95" y="614.9375" type="curve" smooth="yes"/>
      <point x="68.425" y="553.25"/>
      <point x="136.425" y="400.325"/>
      <point x="200.46249999999998" y="266.425" type="curve"/>
      <point x="194.075" y="166.5625"/>
      <point x="186.75" y="51.337500000000006"/>
      <point x="186.75" y="41.5625" type="curve" smooth="yes"/>
      <point x="186.75" y="3.9625000000000004"/>
      <point x="263.9125" y="-13.0"/>
    </contour>
  </outline>
</glyph>
<glyph name="Z" format="2">
  <advance width="563.5"/>
  <unicode hex="005A"/>
  <anchor x="287.775" y="0.0" name="bottom"/>
  <anchor x="256.4" y="326.0" name="center"/>
  <anchor x="305.65" y="652.0" name="top"/>
  <outline>
    <contour>
      <point x="323.76250000000005" y="391.38750000000005" type="curve" smooth="yes"/>
      <point x="246.35" y="391.38750000000005" type="line" smooth="yes"/>
      <point x="240.1" y="391.38750000000005"/>
      <point x="232.11249999999995" y="389.88750000000005"/>
      <point x="232.11249999999995" y="360.27500000000003" type="curve" smooth="yes"/>
      <point x="232.11249999999995" y="341.4875"/>
      <point x="232.5625" y="333.5625"/>
      <point x="234.91249999999997" y="333.5625" type="curve" smooth="yes"/>
      <point x="237.1" y="333.5625"/>
      <point x="281.5375" y="335.71250000000003"/>
      <point x="217.025" y="335.71250000000003" type="curve" smooth="yes"/>
      <point x="230.825" y="335.71250000000003" type="line"/>
      <point x="218.7125" y="320.0625"/>
      <point x="223.1625" y="323.7625"/>
      <point x="218.66249999999997" y="314.625" type="curve" smooth="yes"/>
      <point x="217.47499999999997" y="311.15"/>
      <point x="217.86249999999995" y="310.125"/>
      <point x="217.86249999999995" y="305.48749999999995" type="curve" smooth="yes"/>
      <point x="217.86249999999995" y="298.04999999999995"/>
      <point x="234.58749999999998" y="247.61249999999995"/>
      <point x="250.08749999999998" y="247.61249999999995" type="curve" smooth="yes"/>
      <point x="355.8375" y="247.61249999999995" type="line" smooth="yes"/>
      <point x="360.925" y="247.61249999999995"/>
      <point x="369.6875" y="250.95"/>
      <point x="369.6875" y="274.8875" type="curve" smooth="yes"/>
      <point x="369.6875" y="296.73749999999995"/>
      <point x="368.85" y="305.4375"/>
      <point x="366.5" y="305.4375" type="curve" smooth="yes"/>
      <point x="366.63750000000005" y="305.4375"/>
      <point x="316.775" y="303.67499999999995"/>
      <point x="366.175" y="303.67499999999995" type="curve" smooth="yes"/>
      <point x="341.575" y="303.67499999999995" type="line"/>
      <point x="322.0625" y="272.525"/>
      <point x="378.20000000000005" y="351.1125"/>
      <point x="354.57500000000005" y="323.21250000000003" type="curve" smooth="yes"/>
      <point x="356.375" y="326.6875"/>
      <point x="356.375" y="330.0375"/>
      <point x="356.375" y="335.0625" type="curve" smooth="yes"/>
      <point x="356.375" y="342.5"/>
      <point x="339.26250000000005" y="391.38750000000005"/>
    </contour>
  </outline>
</glyph>
<glyph name="bracketleft" format="2">
  <advance width="365.5125"/>
  <unicode hex="005B"/>
  <outline>
    <contour>
      <point x="69.3" y="-244.0" type="curve"/>
      <point x="297.75" y="-244.0" type="line" smooth="yes"/>
      <point x="316.2" y="-244.0"/>
      <point x="320.975" y="-209.625"/>
      <point x="320.975" y="-192.75" type="curve" smooth="yes"/>
      <point x="320.975" y="-179.4"/>
      <point x="320.5875" y="-175.175"/>
      <point x="315.5875" y="-175.175" type="curve" smooth="yes"/>
      <point x="310.3625" y="-175.175"/>
      <point x="281.7875" y="-181.625"/>
      <point x="212.8875" y="-182.7875" type="curve"/>
      <point x="213.5" y="273.6875"/>
      <point x="255.1125" y="648.125"/>
      <point x="258.6625" y="697.075" type="curve"/>
      <point x="315.525" y="696.6875"/>
      <point x="347.525" y="693.3"/>
      <point x="353.3625" y="693.3" type="curve" smooth="yes"/>
      <point x="359.5875" y="693.3"/>
      <point x="364.3625" y="718.425"/>
      <point x="364.3625" y="736.4875" type="curve" smooth="yes"/>
      <point x="364.3625" y="751.55"/>
      <point x="361.75" y="756.0"/>
      <point x="352.3" y="756.0" type="curve" smooth="yes"/>
      <point x="119.3" y="756.0" type="line"/>
      <point x="112.3" y="550.0"/>
      <point x="69.3" y="-189.0"/>
    </contour>
  </outline>
</glyph>
<glyph name="backslash" format="2">
  <advance width="490.25"/>
  <unicode hex="005C"/>
  <outline>
    <contour>
      <point x="335.375" y="-34.6125" type="curve" smooth="yes"/>
      <point x="362.2375" y="-34.6125"/>
      <point x="435.3" y="-11.75"/>
      <point x="435.3" y="12.337500000000002" type="curve" smooth="yes"/>
      <point x="435.3" y="19.625000000000004"/>
      <point x="427.7875" y="41.1625"/>
      <point x="423.3375" y="54.12500000000001" type="curve" smooth="yes"/>
      <point x="378.075" y="157.975"/>
      <point x="266.8875" y="509.8875"/>
      <point x="215.95" y="637.625" type="curve" smooth="yes"/>
      <point x="205.8875" y="672.225"/>
      <point x="190.475" y="675.0"/>
      <point x="170.2875" y="675.0" type="curve" smooth="yes"/>
      <point x="128.625" y="675.0"/>
      <point x="70.3625" y="650.3"/>
      <point x="70.3625" y="627.4375" type="curve" smooth="yes"/>
      <point x="70.3625" y="620.7625"/>
      <point x="77.875" y="599.225"/>
      <point x="82.325" y="586.2625" type="curve" smooth="yes"/>
      <point x="104.3375" y="533.95"/>
      <point x="262.0125" y="74.6875"/>
      <point x="289.7125" y="2.762500000000003" type="curve" smooth="yes"/>
      <point x="300.6125" y="-31.225"/>
      <point x="315.1875" y="-34.6125"/>
    </contour>
  </outline>
</glyph>
<glyph name="bracketright" format="2">
  <advance width="385.5125"/>
  <unicode hex="005D"/>
  <outline>
    <contour>
      <point x="25.462500000000006" y="-244.0" type="curve" smooth="yes"/>
      <point x="258.85" y="-244.0" type="line"/>
      <point x="265.075" y="-43.8125"/>
      <point x="308.85" y="718.825"/>
      <point x="308.85" y="756.0" type="curve"/>
      <point x="80.7875" y="756.0" type="line" smooth="yes"/>
      <point x="61.95" y="756.0"/>
      <point x="57.175" y="721.625"/>
      <point x="57.175" y="704.75" type="curve" smooth="yes"/>
      <point x="57.175" y="691.4"/>
      <point x="57.5625" y="687.175"/>
      <point x="62.5625" y="687.175" type="curve" smooth="yes"/>
      <point x="67.7875" y="687.175"/>
      <point x="96.36250000000001" y="693.625"/>
      <point x="165.65" y="694.4" type="curve"/>
      <point x="163.875" y="232.49999999999997"/>
      <point x="121.875" y="-141.9375"/>
      <point x="119.1" y="-185.4625" type="curve"/>
      <point x="62.2375" y="-184.6875"/>
      <point x="30.625000000000004" y="-181.3"/>
      <point x="24.7875" y="-181.3" type="curve" smooth="yes"/>
      <point x="18.562500000000004" y="-181.3"/>
      <point x="13.787500000000001" y="-206.425"/>
      <point x="13.787500000000001" y="-224.4875" type="curve" smooth="yes"/>
      <point x="13.787500000000001" y="-239.55"/>
      <point x="16.400000000000002" y="-244.0"/>
    </contour>
  </outline>
</glyph>
<glyph name="asciicircum" format="2">
  <advance width="533.875"/>
  <unicode hex="005E"/>
  <outline>
    <contour>
      <point x="119.2125" y="374.4875" type="curve"/>
      <point x="139.8875" y="397.2625"/>
      <point x="239.125" y="480.8"/>
      <point x="298.2625" y="523.2625" type="curve"/>
      <point x="339.8125" y="481.5125"/>
      <point x="415.4625" y="394.425"/>
      <point x="429.525" y="374.4875" type="curve"/>
      <point x="453.9625" y="396.0875"/>
      <point x="468.3875" y="420.05"/>
      <point x="468.3875" y="436.1125" type="curve" smooth="yes"/>
      <point x="468.3875" y="447.3375"/>
      <point x="465.45" y="460.05"/>
      <point x="460.45" y="470.5" type="curve" smooth="yes"/>
      <point x="444.7" y="500.8"/>
      <point x="380.4375" y="591.4875"/>
      <point x="336.475" y="637.0375" type="curve" smooth="yes"/>
      <point x="324.125" y="649.1625"/>
      <point x="317.5125" y="652.0"/>
      <point x="306.775" y="652.0" type="curve" smooth="yes"/>
      <point x="294.8125" y="652.0"/>
      <point x="287.975" y="648.55"/>
      <point x="273.4" y="637.0375" type="curve" smooth="yes"/>
      <point x="229.9625" y="604.5625"/>
      <point x="116.3125" y="494.4625"/>
      <point x="99.475" y="469.4625" type="curve" smooth="yes"/>
      <point x="89.9625" y="455.725"/>
      <point x="88.575" y="446.275"/>
      <point x="88.575" y="433.5375" type="curve" smooth="yes"/>
      <point x="88.575" y="417.375"/>
      <point x="98.675" y="396.8625"/>
    </contour>
  </outline>
</glyph>
<glyph name="underscore" format="2">
  <advance width="500.0"/>
  <unicode hex="005F"/>
  <outline>
    <contour>
      <point x="-10.2" y="-140.0" type="curve" smooth="yes"/>
      <point x="503.8" y="-140.0" type="line" smooth="yes"/>
      <point x="520.8" y="-140.0"/>
      <point x="526.8" y="-119.0"/>
      <point x="526.8" y="-101.0" type="curve" smooth="yes"/>
      <point x="526.8" y="-95.0"/>
      <point x="523.8" y="-93.0"/>
      <point x="518.8" y="-93.0" type="curve" smooth="yes"/>
      <point x="4.800000000000001" y="-93.0" type="line" smooth="yes"/>
      <point x="-12.2" y="-93.0"/>
      <point x="-18.2" y="-115.0"/>
      <point x="-18.2" y="-133.0" type="curve" smooth="yes"/>
      <point x="-18.2" y="-139.0"/>
      <point x="-15.2" y="-140.0"/>
    </contour>
  </outline>
</glyph>
<glyph name="a" format="2">
  <advance width="670.1125"/>
  <unicode hex="0061"/>
  <anchor x="303.0" y="0.0" name="bottom"/>
  <anchor x="541.8625" y="10.0" name="ogonek"/>
  <anchor x="357.9875" y="524.0" name="top"/>
  <outline>
    <contour>
      <point x="162.2125" y="-13.0" type="curve" smooth="yes"/>
      <point x="219.0875" y="-13.0"/>
      <point x="373.4875" y="179.375"/>
      <point x="411.1875" y="274.7625" type="curve"/>
      <point x="407.6375" y="224.025"/>
      <point x="403.0875" y="135.0875"/>
      <point x="403.0875" y="93.0125" type="curve" smooth="yes"/>
      <point x="403.0875" y="74.9125"/>
      <point x="403.7" y="61.525000000000006"/>
      <point x="406.0875" y="50.0125" type="curve" smooth="yes"/>
      <point x="412.3125" y="14.5125"/>
      <point x="488.575" y="-13.0"/>
      <point x="503.8625" y="-13.0" type="curve" smooth="yes"/>
      <point x="547.0875" y="-13.0"/>
      <point x="639.4375" y="97.8"/>
      <point x="665.7" y="134.675" type="curve" smooth="yes"/>
      <point x="670.7625" y="141.575"/>
      <point x="673.6" y="149.25"/>
      <point x="673.6" y="156.925" type="curve" smooth="yes"/>
      <point x="673.6" y="174.2125"/>
      <point x="659.3125" y="195.1125"/>
      <point x="651.025" y="195.1125" type="curve" smooth="yes"/>
      <point x="647.4125" y="195.1125"/>
      <point x="645.8" y="192.725"/>
      <point x="640.9625" y="186.6625" type="curve"/>
      <point x="628.5375" y="170.3"/>
      <point x="585.125" y="118.78750000000001"/>
      <point x="572.8625" y="118.78750000000001" type="curve" smooth="yes"/>
      <point x="563.3125" y="118.78750000000001"/>
      <point x="559.925" y="124.5625"/>
      <point x="559.925" y="172.91250000000002" type="curve" smooth="yes"/>
      <point x="559.925" y="252.925"/>
      <point x="572.25" y="434.4625"/>
      <point x="572.25" y="443.4625" type="curve"/>
      <point x="577.8625" y="443.4625"/>
      <point x="587.3125" y="461.5875"/>
      <point x="587.3125" y="485.1" type="curve" smooth="yes"/>
      <point x="587.3125" y="494.3875"/>
      <point x="584.3125" y="495.3875"/>
      <point x="580.8625" y="496.0" type="curve" smooth="yes"/>
      <point x="456.7" y="516.675"/>
      <point x="366.7875" y="524.0"/>
      <point x="308.975" y="524.0" type="curve" smooth="yes"/>
      <point x="221.15" y="524.0"/>
      <point x="163.4375" y="482.775"/>
      <point x="115.05" y="417.0" type="curve" smooth="yes"/>
      <point x="64.05" y="348.0"/>
      <point x="61.05" y="141.6125"/>
      <point x="61.05" y="93.0125" type="curve" smooth="yes"/>
      <point x="61.05" y="74.9125"/>
      <point x="62.05" y="61.525000000000006"/>
      <point x="64.4375" y="50.0125" type="curve" smooth="yes"/>
      <point x="70.6625" y="14.5125"/>
      <point x="146.925" y="-13.0"/>
    </contour>
    <contour>
      <point x="230.825" y="118.17500000000001" type="curve" smooth="yes"/>
      <point x="221.275" y="118.17500000000001"/>
      <point x="217.8875" y="123.95"/>
      <point x="217.8875" y="171.6875" type="curve" smooth="yes"/>
      <point x="217.8875" y="356.7625"/>
      <point x="252.2875" y="464.4625"/>
      <point x="318.1375" y="464.4625" type="curve" smooth="yes"/>
      <point x="343.275" y="464.4625"/>
      <point x="377.6125" y="461.3"/>
      <point x="420.1875" y="451.425" type="curve"/>
      <point x="403.9125" y="305.525"/>
      <point x="254.025" y="118.17500000000001"/>
    </contour>
  </outline>
</glyph>
<glyph name="b" format="2">
  <advance width="626.1"/>
  <unicode hex="0062"/>
  <anchor x="312.025" y="0.0" name="bottom"/>
  <anchor x="211.0625" y="639.0" name="cross"/>
  <anchor x="450.2375" y="524.0" name="top"/>
  <outline>
    <contour>
      <point x="343.1375" y="-13.0" type="curve" smooth="yes"/>
      <point x="429.7375" y="-13.0"/>
      <point x="485.45" y="20.65"/>
      <point x="539.4125" y="94.0" type="curve" smooth="yes"/>
      <point x="583.275" y="153.7"/>
      <point x="583.3125" y="324.825"/>
      <point x="583.3125" y="372.8125" type="curve" smooth="yes"/>
      <point x="583.3125" y="423.3"/>
      <point x="581.5375" y="447.925"/>
      <point x="577.9875" y="460.9875" type="curve" smooth="yes"/>
      <point x="570.9875" y="496.875"/>
      <point x="495.1125" y="524.0"/>
      <point x="479.4375" y="524.0" type="curve" smooth="yes"/>
      <point x="422.5625" y="524.0"/>
      <point x="265.85" y="328.7625"/>
      <point x="236.375" y="232.7625" type="curve"/>
      <point x="239.8625" y="299.7625"/>
      <point x="270.0875" y="665.95"/>
      <point x="270.475" y="689.8" type="curve" smooth="yes"/>
      <point x="270.475" y="734.1375"/>
      <point x="196.5375" y="756.0"/>
      <point x="138.7875" y="756.0" type="curve" smooth="yes"/>
      <point x="119.7625" y="756.0"/>
      <point x="115.0875" y="749.9375"/>
      <point x="115.0875" y="736.3625" type="curve" smooth="yes"/>
      <point x="113.5375" y="669.5625"/>
      <point x="80.8" y="178.05"/>
      <point x="76.925" y="67.925" type="curve"/>
      <point x="71.925" y="67.925"/>
      <point x="62.474999999999994" y="49.4125"/>
      <point x="62.474999999999994" y="25.9" type="curve" smooth="yes"/>
      <point x="62.474999999999994" y="16.6125"/>
      <point x="65.475" y="15.6125"/>
      <point x="68.925" y="15.0" type="curve" smooth="yes"/>
      <point x="192.7" y="-5.2875000000000005"/>
      <point x="281.8375" y="-13.0"/>
    </contour>
    <contour>
      <point x="333.2" y="45.3125" type="curve" smooth="yes"/>
      <point x="308.0625" y="45.3125"/>
      <point x="273.725" y="48.475"/>
      <point x="230.7625" y="58.7375" type="curve"/>
      <point x="244.325" y="204.6375"/>
      <point x="388.7875" y="391.6"/>
      <point x="411.9875" y="391.6" type="curve" smooth="yes"/>
      <point x="424.6375" y="391.6"/>
      <point x="426.8625" y="376.1375"/>
      <point x="426.8625" y="306.7" type="curve" smooth="yes"/>
      <point x="426.8625" y="141.3875"/>
      <point x="395.5625" y="45.3125"/>
    </contour>
  </outline>
</glyph>
<glyph name="c" format="2">
  <advance width="439.425"/>
  <unicode hex="0063"/>
  <anchor x="234.2875" y="0.0" name="bottom"/>
  <anchor x="287.45" y="524.0" name="top"/>
  <outline>
    <contour>
      <point x="255.375" y="-13.0" type="curve" smooth="yes"/>
      <point x="310.3875" y="-13.0"/>
      <point x="366.775" y="9.875"/>
      <point x="406.7125" y="49.1375" type="curve" smooth="yes"/>
      <point x="414.55" y="56.3625"/>
      <point x="416.775" y="61.2"/>
      <point x="416.775" y="70.875" type="curve" smooth="yes"/>
      <point x="416.775" y="86.55"/>
      <point x="412.0" y="104.225"/>
      <point x="404.1625" y="104.225" type="curve" smooth="yes"/>
      <point x="400.1625" y="104.225"/>
      <point x="396.9375" y="101.8375"/>
      <point x="385.1625" y="94.7375" type="curve" smooth="yes"/>
      <point x="369.0625" y="84.3125"/>
      <point x="329.4125" y="64.9125"/>
      <point x="293.525" y="64.9125" type="curve" smooth="yes"/>
      <point x="225.575" y="64.9125"/>
      <point x="193.60000000000002" y="110.1625"/>
      <point x="193.60000000000002" y="215.3625" type="curve" smooth="yes"/>
      <point x="193.60000000000002" y="374.1375"/>
      <point x="237.6125" y="452.8625"/>
      <point x="284.3375" y="452.8625" type="curve" smooth="yes"/>
      <point x="320.6" y="452.8625"/>
      <point x="348.7625" y="435.7375"/>
      <point x="375.6375" y="414.275" type="curve" smooth="yes"/>
      <point x="383.4125" y="408.5625"/>
      <point x="389.25" y="405.7875"/>
      <point x="396.6375" y="405.7875" type="curve" smooth="yes"/>
      <point x="411.7625" y="405.7875"/>
      <point x="418.5375" y="446.1625"/>
      <point x="418.5375" y="464.0" type="curve" smooth="yes"/>
      <point x="418.5375" y="476.9"/>
      <point x="414.5375" y="487.9625"/>
      <point x="400.25" y="495.7375" type="curve" smooth="yes"/>
      <point x="371.025" y="512.775"/>
      <point x="332.8375" y="524.0"/>
      <point x="273.675" y="524.0" type="curve" smooth="yes"/>
      <point x="149.6" y="524.0"/>
      <point x="45.849999999999994" y="444.4875"/>
      <point x="45.849999999999994" y="220.1625" type="curve" smooth="yes"/>
      <point x="45.849999999999994" y="25.437499999999996"/>
      <point x="143.9" y="-13.0"/>
    </contour>
  </outline>
</glyph>
<glyph name="d" format="2">
  <advance width="673.175"/>
  <unicode hex="0064"/>
  <anchor x="303.0" y="0.0" name="bottom"/>
  <anchor x="323.0" y="262.0" name="center"/>
  <anchor x="489.8" y="639.0" name="cross"/>
  <anchor x="210.7375" y="544.2125" name="top"/>
  <anchor x="645.9625" y="606.1125" name="topright"/>
  <outline>
    <contour>
      <point x="162.2125" y="-13.0" type="curve" smooth="yes"/>
      <point x="219.0875" y="-13.0"/>
      <point x="373.4875" y="179.375"/>
      <point x="411.1875" y="274.7625" type="curve"/>
      <point x="407.6375" y="224.025"/>
      <point x="403.0875" y="135.0875"/>
      <point x="403.0875" y="93.0125" type="curve" smooth="yes"/>
      <point x="403.0875" y="74.9125"/>
      <point x="403.7" y="61.525000000000006"/>
      <point x="406.0875" y="50.0125" type="curve" smooth="yes"/>
      <point x="412.3125" y="14.5125"/>
      <point x="488.575" y="-13.0"/>
      <point x="503.8625" y="-13.0" type="curve" smooth="yes"/>
      <point x="547.0875" y="-13.0"/>
      <point x="639.4375" y="97.8"/>
      <point x="665.7" y="134.675" type="curve" smooth="yes"/>
      <point x="670.7625" y="141.575"/>
      <point x="673.6" y="148.8625"/>
      <point x="673.6" y="156.925" type="curve" smooth="yes"/>
      <point x="673.6" y="174.2125"/>
      <point x="659.3125" y="195.1125"/>
      <point x="651.4125" y="195.1125" type="curve" smooth="yes"/>
      <point x="647.4125" y="195.1125"/>
      <point x="645.8" y="192.725"/>
      <point x="640.9625" y="186.6625" type="curve"/>
      <point x="628.5375" y="170.3"/>
      <point x="585.125" y="119.17500000000001"/>
      <point x="572.8625" y="119.17500000000001" type="curve" smooth="yes"/>
      <point x="563.3125" y="119.17500000000001"/>
      <point x="559.925" y="124.5625"/>
      <point x="559.925" y="172.91250000000002" type="curve" smooth="yes"/>
      <point x="559.925" y="252.925"/>
      <point x="572.25" y="434.4625"/>
      <point x="572.25" y="443.4625" type="curve"/>
      <point x="577.8625" y="443.4625"/>
      <point x="587.3125" y="461.5875"/>
      <point x="587.3125" y="485.1" type="curve" smooth="yes"/>
      <point x="587.3125" y="494.3875"/>
      <point x="584.7" y="496.3875"/>
      <point x="580.8625" y="496.3875" type="curve" smooth="yes"/>
      <point x="576.8625" y="496.3875" type="line"/>
      <point x="580.35" y="553.6"/>
      <point x="590.6375" y="678.375"/>
      <point x="590.6375" y="689.8" type="curve" smooth="yes"/>
      <point x="590.6375" y="734.1375"/>
      <point x="517.0875" y="756.0"/>
      <point x="459.5625" y="756.0" type="curve" smooth="yes"/>
      <point x="440.3125" y="756.0"/>
      <point x="435.8625" y="749.9375"/>
      <point x="435.8625" y="736.3625" type="curve" smooth="yes"/>
      <point x="435.475" y="697.2625"/>
      <point x="432.25" y="633.2375"/>
      <point x="423.4125" y="515.9625" type="curve"/>
      <point x="379.85" y="520.45"/>
      <point x="337.0625" y="524.0"/>
      <point x="308.975" y="524.0" type="curve" smooth="yes"/>
      <point x="221.15" y="524.0"/>
      <point x="163.4375" y="482.775"/>
      <point x="115.05" y="417.0" type="curve" smooth="yes"/>
      <point x="64.05" y="348.0"/>
      <point x="61.05" y="141.6125"/>
      <point x="61.05" y="93.0125" type="curve" smooth="yes"/>
      <point x="61.05" y="74.9125"/>
      <point x="62.05" y="61.525000000000006"/>
      <point x="64.4375" y="50.0125" type="curve" smooth="yes"/>
      <point x="70.6625" y="14.5125"/>
      <point x="146.925" y="-13.0"/>
    </contour>
    <contour>
      <point x="230.825" y="118.5625" type="curve" smooth="yes"/>
      <point x="221.275" y="118.5625"/>
      <point x="217.8875" y="123.95"/>
      <point x="217.8875" y="171.6875" type="curve" smooth="yes"/>
      <point x="217.8875" y="356.7625"/>
      <point x="252.2875" y="464.4625"/>
      <point x="318.1375" y="464.4625" type="curve" smooth="yes"/>
      <point x="343.275" y="464.4625"/>
      <point x="377.6125" y="461.3"/>
      <point x="420.1875" y="451.425" type="curve"/>
      <point x="403.9125" y="305.525"/>
      <point x="254.025" y="118.5625"/>
    </contour>
  </outline>
</glyph>
<glyph name="e" format="2">
  <advance width="483.9875"/>
  <unicode hex="0065"/>
  <anchor x="232.1625" y="0.0" name="bottom"/>
  <anchor x="369.1625" y="0.0" name="ogonek"/>
  <anchor x="297.1625" y="524.0" name="top"/>
  <outline>
    <contour>
      <point x="256.5375" y="-13.0" type="curve" smooth="yes"/>
      <point x="322.575" y="-13.0"/>
      <point x="388.15" y="16.0"/>
      <point x="431.7625" y="60.775" type="curve" smooth="yes"/>
      <point x="441.4375" y="70.45"/>
      <point x="443.6625" y="77.7375"/>
      <point x="443.6625" y="83.7375" type="curve" smooth="yes"/>
      <point x="443.6625" y="102.475"/>
      <point x="438.8875" y="118.925"/>
      <point x="431.05" y="118.925" type="curve" smooth="yes"/>
      <point x="427.05" y="118.925"/>
      <point x="421.9875" y="115.3125"/>
      <point x="410.825" y="106.9875" type="curve" smooth="yes"/>
      <point x="387.375" y="90.4375"/>
      <point x="343.95" y="64.9125"/>
      <point x="303.1625" y="64.9125" type="curve" smooth="yes"/>
      <point x="230.53750000000002" y="64.9125"/>
      <point x="193.9875" y="106.4875"/>
      <point x="193.9875" y="214.75" type="curve" smooth="yes"/>
      <point x="193.9875" y="228.2375"/>
      <point x="193.9875" y="246.2125"/>
      <point x="194.7625" y="255.6625" type="curve"/>
      <point x="210.9625" y="253.3375"/>
      <point x="232.5875" y="251.4"/>
      <point x="254.9875" y="251.4" type="curve" smooth="yes"/>
      <point x="349.85" y="251.4"/>
      <point x="463.1" y="295.075"/>
      <point x="463.1" y="400.75" type="curve" smooth="yes"/>
      <point x="463.1" y="481.1875"/>
      <point x="408.5625" y="524.0"/>
      <point x="278.7125" y="524.0" type="curve" smooth="yes"/>
      <point x="147.1125" y="524.0"/>
      <point x="47.0125" y="444.4875"/>
      <point x="47.0125" y="220.1625" type="curve" smooth="yes"/>
      <point x="47.0125" y="22.374999999999996"/>
      <point x="148.125" y="-13.0"/>
    </contour>
    <contour>
      <point x="252.375" y="298.3625" type="curve" smooth="yes"/>
      <point x="225.3625" y="297.1375"/>
      <point x="203.4125" y="302.95"/>
      <point x="199.6375" y="306.05" type="curve"/>
      <point x="210.0625" y="431.2"/>
      <point x="247.75" y="468.725"/>
      <point x="288.9875" y="468.725" type="curve" smooth="yes"/>
      <point x="323.4875" y="468.725"/>
      <point x="342.3625" y="442.525"/>
      <point x="342.3625" y="406.8125" type="curve" smooth="yes"/>
      <point x="342.3625" y="327.7875"/>
      <point x="304.2625" y="301.425"/>
    </contour>
  </outline>
</glyph>
<glyph name="f" format="2">
  <advance width="357.0625"/>
  <unicode hex="0066"/>
  <anchor x="153.0" y="0.0" name="bottom"/>
  <anchor x="174.5" y="672.825" name="top"/>
  <outline>
    <contour>
      <point x="38.150000000000006" y="-244.0" type="curve" smooth="yes"/>
      <point x="81.5625" y="-244.0"/>
      <point x="131.3" y="-227.45"/>
      <point x="175.0375" y="-186.9375" type="curve" smooth="yes"/>
      <point x="220.0" y="-145.2"/>
      <point x="254.7375" y="-75.725"/>
      <point x="257.1875" y="28.962500000000006" type="curve" smooth="yes"/>
      <point x="263.925" y="429.725" type="line"/>
      <point x="389.425" y="429.725" type="line" smooth="yes"/>
      <point x="404.8125" y="429.725"/>
      <point x="414.2625" y="451.3375"/>
      <point x="414.2625" y="479.975" type="curve" smooth="yes"/>
      <point x="414.2625" y="496.3875"/>
      <point x="411.2625" y="499.0"/>
      <point x="403.2" y="499.0" type="curve" smooth="yes"/>
      <point x="263.3125" y="499.0" type="line"/>
      <point x="264.475" y="549.5625" type="line" smooth="yes"/>
      <point x="266.025" y="653.3"/>
      <point x="293.5125" y="677.6625"/>
      <point x="333.4875" y="677.6625" type="curve" smooth="yes"/>
      <point x="366.0875" y="677.6625"/>
      <point x="391.2" y="670.4625"/>
      <point x="399.65" y="669.075" type="curve" smooth="yes"/>
      <point x="405.7125" y="668.075"/>
      <point x="413.2" y="665.1375"/>
      <point x="416.975" y="665.1375" type="curve" smooth="yes"/>
      <point x="425.425" y="665.1375"/>
      <point x="431.875" y="680.5875"/>
      <point x="431.875" y="695.0375" type="curve" smooth="yes"/>
      <point x="431.875" y="711.45"/>
      <point x="429.0375" y="723.4125"/>
      <point x="417.9125" y="729.8625" type="curve" smooth="yes"/>
      <point x="399.0375" y="741.35"/>
      <point x="354.1625" y="756.0"/>
      <point x="309.1" y="756.0" type="curve" smooth="yes"/>
      <point x="263.2" y="756.0"/>
      <point x="209.275" y="745.1875"/>
      <point x="163.25" y="703.6125" type="curve" smooth="yes"/>
      <point x="114.35" y="659.55"/>
      <point x="101.925" y="598.0375"/>
      <point x="101.925" y="522.375" type="curve" smooth="yes"/>
      <point x="101.925" y="499.0" type="line"/>
      <point x="48.1375" y="499.0" type="line" smooth="yes"/>
      <point x="32.75" y="499.0"/>
      <point x="23.6875" y="477.3875"/>
      <point x="23.6875" y="448.75" type="curve" smooth="yes"/>
      <point x="23.6875" y="431.95"/>
      <point x="26.299999999999997" y="429.725"/>
      <point x="34.3625" y="429.725" type="curve" smooth="yes"/>
      <point x="106.925" y="429.725" type="line"/>
      <point x="106.925" y="104.92500000000001" type="line" smooth="yes"/>
      <point x="106.925" y="-120.6125"/>
      <point x="91.525" y="-167.275"/>
      <point x="14.2" y="-167.275" type="curve" smooth="yes"/>
      <point x="-18.437499999999996" y="-167.275"/>
      <point x="-61.5" y="-153.65"/>
      <point x="-81.02499999999999" y="-147.0" type="curve" smooth="yes"/>
      <point x="-87.63749999999999" y="-145.6125"/>
      <point x="-93.4125" y="-143.45"/>
      <point x="-96.02499999999999" y="-143.45" type="curve" smooth="yes"/>
      <point x="-103.3125" y="-143.45"/>
      <point x="-109.76249999999999" y="-154.575"/>
      <point x="-109.76249999999999" y="-175.025" type="curve" smooth="yes"/>
      <point x="-109.76249999999999" y="-191.7625"/>
      <point x="-106.375" y="-207.6625"/>
      <point x="-91.1875" y="-214.725" type="curve" smooth="yes"/>
      <point x="-73.0625" y="-223.725"/>
      <point x="-14.099999999999994" y="-244.0"/>
    </contour>
  </outline>
</glyph>
<glyph name="g" format="2">
  <advance width="629.8125"/>
  <unicode hex="0067"/>
  <anchor x="274.9375" y="-244.0" name="bottom"/>
  <anchor x="344.9375" y="524.0" name="top"/>
  <outline>
    <contour>
      <point x="327.675" y="-244.0" type="curve" smooth="yes"/>
      <point x="382.95" y="-244.0"/>
      <point x="443.0375" y="-228.0"/>
      <point x="488.225" y="-186.2625" type="curve" smooth="yes"/>
      <point x="531.9625" y="-145.975"/>
      <point x="561.4125" y="-82.175"/>
      <point x="561.4125" y="12.425000000000004" type="curve" smooth="yes"/>
      <point x="561.4125" y="227.375"/>
      <point x="563.25" y="373.8875"/>
      <point x="574.1875" y="443.4625" type="curve"/>
      <point x="579.8" y="443.4625"/>
      <point x="588.6375" y="461.5875"/>
      <point x="588.6375" y="485.1" type="curve" smooth="yes"/>
      <point x="588.6375" y="494.3875"/>
      <point x="586.25" y="495.3875"/>
      <point x="582.8" y="496.0" type="curve" smooth="yes"/>
      <point x="458.6375" y="516.675"/>
      <point x="368.725" y="524.0"/>
      <point x="310.9125" y="524.0" type="curve" smooth="yes"/>
      <point x="223.0875" y="524.0"/>
      <point x="165.375" y="482.775"/>
      <point x="116.9875" y="417.0" type="curve" smooth="yes"/>
      <point x="65.9875" y="348.0"/>
      <point x="62.9875" y="141.6125"/>
      <point x="62.9875" y="93.0125" type="curve" smooth="yes"/>
      <point x="62.9875" y="74.9125"/>
      <point x="63.9875" y="61.525000000000006"/>
      <point x="66.375" y="50.0125" type="curve" smooth="yes"/>
      <point x="72.6" y="14.5125"/>
      <point x="148.8625" y="-13.0"/>
      <point x="164.15" y="-13.0" type="curve" smooth="yes"/>
      <point x="221.025" y="-13.0"/>
      <point x="382.775" y="186.1125"/>
      <point x="414.9625" y="282.725" type="curve"/>
      <point x="413.7" y="221.45"/>
      <point x="414.5375" y="117.975"/>
      <point x="413.925" y="62.150000000000006" type="curve" smooth="yes"/>
      <point x="412.0875" y="-130.925"/>
      <point x="383.6" y="-159.3125"/>
      <point x="309.3375" y="-159.3125" type="curve" smooth="yes"/>
      <point x="200.3" y="-159.3125"/>
      <point x="119.6625" y="-111.4625"/>
      <point x="105.925" y="-111.4625" type="curve" smooth="yes"/>
      <point x="98.475" y="-111.4625"/>
      <point x="91.8" y="-125.2"/>
      <point x="91.8" y="-145.325" type="curve" smooth="yes"/>
      <point x="91.8" y="-160.225"/>
      <point x="94.575" y="-183.8625"/>
      <point x="112.825" y="-191.7625" type="curve" smooth="yes"/>
      <point x="165.4" y="-215.9875"/>
      <point x="238.2875" y="-244.0"/>
    </contour>
    <contour>
      <point x="232.7625" y="118.5625" type="curve" smooth="yes"/>
      <point x="223.2125" y="118.5625"/>
      <point x="219.825" y="123.95"/>
      <point x="219.825" y="172.3" type="curve" smooth="yes"/>
      <point x="219.825" y="356.7625"/>
      <point x="254.225" y="464.4625"/>
      <point x="320.075" y="464.4625" type="curve" smooth="yes"/>
      <point x="345.2125" y="464.4625"/>
      <point x="379.55" y="461.3"/>
      <point x="422.125" y="451.425" type="curve"/>
      <point x="405.85" y="305.525"/>
      <point x="255.9625" y="118.5625"/>
    </contour>
  </outline>
</glyph>
<glyph name="h" format="2">
  <advance width="677.95"/>
  <unicode hex="0068"/>
  <anchor x="321.1" y="0.0" name="bottom"/>
  <anchor x="321.1" y="378.0" name="center"/>
  <anchor x="212.675" y="639.0" name="cross"/>
  <anchor x="175.1" y="718.0" name="top"/>
  <outline>
    <contour>
      <point x="197.8375" y="-13.0" type="curve" smooth="yes"/>
      <point x="216.475" y="-13.0"/>
      <point x="221.925" y="-6.9375"/>
      <point x="221.925" y="6.637500000000001" type="curve" smooth="yes"/>
      <point x="221.925" y="64.2125"/>
      <point x="232.1625" y="115.2875"/>
      <point x="258.525" y="178.0" type="curve" smooth="yes"/>
      <point x="303.575" y="280.6625"/>
      <point x="391.35" y="392.2125"/>
      <point x="408.7375" y="392.2125" type="curve" smooth="yes"/>
      <point x="418.2875" y="392.2125"/>
      <point x="421.675" y="386.4375"/>
      <point x="421.2875" y="338.0875" type="curve" smooth="yes"/>
      <point x="420.9" y="302.6125"/>
      <point x="406.6375" y="127.75"/>
      <point x="406.6375" y="93.0125" type="curve" smooth="yes"/>
      <point x="406.6375" y="74.9125"/>
      <point x="407.25" y="61.525000000000006"/>
      <point x="409.6375" y="50.0125" type="curve" smooth="yes"/>
      <point x="415.8625" y="14.5125"/>
      <point x="492.125" y="-13.0"/>
      <point x="507.4125" y="-13.0" type="curve" smooth="yes"/>
      <point x="550.6375" y="-13.0"/>
      <point x="643.375" y="97.8"/>
      <point x="669.25" y="134.675" type="curve" smooth="yes"/>
      <point x="674.3125" y="141.575"/>
      <point x="677.15" y="149.25"/>
      <point x="677.15" y="157.5375" type="curve" smooth="yes"/>
      <point x="677.15" y="174.2125"/>
      <point x="662.8625" y="195.1125"/>
      <point x="654.575" y="195.1125" type="curve" smooth="yes"/>
      <point x="650.9625" y="195.1125"/>
      <point x="649.35" y="192.725"/>
      <point x="644.5125" y="186.6625" type="curve"/>
      <point x="632.0875" y="170.3"/>
      <point x="588.675" y="118.78750000000001"/>
      <point x="576.8" y="118.78750000000001" type="curve" smooth="yes"/>
      <point x="566.8625" y="118.78750000000001"/>
      <point x="563.0875" y="124.5625"/>
      <point x="563.475" y="172.91250000000002" type="curve" smooth="yes"/>
      <point x="563.8625" y="212.3875"/>
      <point x="577.35" y="380.4125"/>
      <point x="578.5125" y="417.9875" type="curve" smooth="yes"/>
      <point x="578.9" y="436.0875"/>
      <point x="577.5125" y="449.475"/>
      <point x="575.125" y="460.9875" type="curve" smooth="yes"/>
      <point x="568.9" y="496.875"/>
      <point x="493.025" y="524.0"/>
      <point x="477.7375" y="524.0" type="curve" smooth="yes"/>
      <point x="422.025" y="524.0"/>
      <point x="257.175" y="319.075"/>
      <point x="229.25" y="223.075" type="curve"/>
      <point x="229.25" y="249.3875"/>
      <point x="263.7375" y="664.0125"/>
      <point x="263.7375" y="689.8" type="curve" smooth="yes"/>
      <point x="263.7375" y="734.1375"/>
      <point x="189.8" y="756.0"/>
      <point x="132.05" y="756.0" type="curve" smooth="yes"/>
      <point x="113.025" y="756.0"/>
      <point x="108.35" y="749.9375"/>
      <point x="108.35" y="736.3625" type="curve" smooth="yes"/>
      <point x="108.35" y="678.8625"/>
      <point x="69.63749999999999" y="113.16250000000001"/>
      <point x="69.63749999999999" y="53.2" type="curve" smooth="yes"/>
      <point x="69.63749999999999" y="9.475000000000001"/>
      <point x="140.8625" y="-13.0"/>
    </contour>
  </outline>
</glyph>
<glyph name="j" format="2">
  <advance width="293.9625"/>
  <unicode hex="006A"/>
  <outline>
    <contour>
      <point x="-3.9124999999999996" y="-244.6125" type="curve" smooth="yes"/>
      <point x="42.6" y="-244.6125"/>
      <point x="103.5375" y="-221.8"/>
      <point x="146.1125" y="-174.3125" type="curve" smooth="yes"/>
      <point x="188.425" y="-129.25"/>
      <point x="220.6125" y="-67.3"/>
      <point x="227.4875" y="95.775" type="curve" smooth="yes"/>
      <point x="231.2625" y="207.925"/>
      <point x="235.7125" y="394.5875"/>
      <point x="235.7125" y="457.1875" type="curve" smooth="yes"/>
      <point x="235.7125" y="501.525"/>
      <point x="162.1625" y="523.3875"/>
      <point x="104.63749999999999" y="523.3875" type="curve" smooth="yes"/>
      <point x="85.38749999999999" y="523.3875"/>
      <point x="81.32499999999999" y="517.325"/>
      <point x="81.32499999999999" y="503.75" type="curve" smooth="yes"/>
      <point x="81.32499999999999" y="440.1875"/>
      <point x="78.32499999999999" y="285.625"/>
      <point x="73.775" y="145.3875" type="curve" smooth="yes"/>
      <point x="66.8375" y="-62.487500000000004"/>
      <point x="58.25" y="-118.7875"/>
      <point x="30.0875" y="-149.625" type="curve" smooth="yes"/>
      <point x="18.2125" y="-161.725"/>
      <point x="-0.8250000000000028" y="-167.8875"/>
      <point x="-25.5375" y="-167.8875" type="curve" smooth="yes"/>
      <point x="-54.65" y="-167.8875"/>
      <point x="-91.5625" y="-158.4"/>
      <point x="-98.175" y="-158.4" type="curve" smooth="yes"/>
      <point x="-106.7875" y="-158.4"/>
      <point x="-113.4625" y="-168.5875"/>
      <point x="-113.4625" y="-183.425" type="curve" smooth="yes"/>
      <point x="-113.4625" y="-206.7125"/>
      <point x="-110.85" y="-221.8375"/>
      <point x="-94.8875" y="-228.9" type="curve" smooth="yes"/>
      <point x="-77.5375" y="-236.35"/>
      <point x="-39.1125" y="-244.6125"/>
    </contour>
    <contour>
      <point x="159.075" y="621.125" type="curve" smooth="yes"/>
      <point x="202.35" y="621.125"/>
      <point x="256.875" y="652.8625"/>
      <point x="256.875" y="691.0125" type="curve" smooth="yes"/>
      <point x="256.875" y="739.7125"/>
      <point x="218.375" y="756.0"/>
      <point x="179.4875" y="756.0" type="curve" smooth="yes"/>
      <point x="129.7" y="756.0"/>
      <point x="80.975" y="734.45"/>
      <point x="80.975" y="684.3" type="curve" smooth="yes"/>
      <point x="80.975" y="653.5625"/>
      <point x="111.51249999999999" y="621.125"/>
    </contour>
  </outline>
</glyph>
<glyph name="k" format="2">
  <advance width="609.8375"/>
  <unicode hex="006B"/>
  <anchor x="290.0" y="0.0" name="bottom"/>
  <anchor x="398.0" y="640.0" name="top"/>
  <outline>
    <contour>
      <point x="202.7375" y="-13.0" type="curve" smooth="yes"/>
      <point x="221.375" y="-13.0"/>
      <point x="226.825" y="-6.9375"/>
      <point x="226.825" y="6.637500000000001" type="curve" smooth="yes"/>
      <point x="226.825" y="61.1125"/>
      <point x="228.7" y="102.8875"/>
      <point x="245.9875" y="156.3" type="curve" smooth="yes"/>
      <point x="284.0625" y="278.3375"/>
      <point x="374.55" y="396.0875"/>
      <point x="411.475" y="396.0875" type="curve" smooth="yes"/>
      <point x="427.7375" y="396.0875"/>
      <point x="444.7375" y="383.1125"/>
      <point x="444.7375" y="356.9875" type="curve" smooth="yes"/>
      <point x="444.7375" y="295.625"/>
      <point x="355.2" y="227.225"/>
      <point x="278.0" y="203.6" type="curve"/>
      <point x="326.125" y="170.3875"/>
      <point x="479.5375" y="20.7125"/>
      <point x="501.7625" y="-2.45" type="curve" smooth="yes"/>
      <point x="508.5375" y="-9.6125"/>
      <point x="513.7625" y="-13.0"/>
      <point x="518.6" y="-13.0" type="curve" smooth="yes"/>
      <point x="523.825" y="-13.0"/>
      <point x="530.275" y="-8.0"/>
      <point x="537.5625" y="2.45" type="curve" smooth="yes"/>
      <point x="561.3875" y="32.8875"/>
      <point x="581.7625" y="73.0625"/>
      <point x="581.7625" y="107.275" type="curve" smooth="yes"/>
      <point x="581.7625" y="123.4"/>
      <point x="576.6" y="138.4625"/>
      <point x="563.9875" y="151.85000000000002" type="curve" smooth="yes"/>
      <point x="537.15" y="181.625"/>
      <point x="476.45" y="235.775"/>
      <point x="446.6625" y="258.4" type="curve"/>
      <point x="486.725" y="278.8"/>
      <point x="581.55" y="342.7375"/>
      <point x="581.55" y="416.425" type="curve" smooth="yes"/>
      <point x="581.55" y="489.8625"/>
      <point x="506.45" y="524.0"/>
      <point x="475.275" y="524.0" type="curve" smooth="yes"/>
      <point x="423.6" y="524.0"/>
      <point x="276.8" y="375.2625"/>
      <point x="235.3125" y="247.1" type="curve"/>
      <point x="235.3125" y="281.9375"/>
      <point x="268.6375" y="664.0125"/>
      <point x="268.6375" y="689.8" type="curve" smooth="yes"/>
      <point x="268.6375" y="734.1375"/>
      <point x="194.7" y="756.0"/>
      <point x="136.95" y="756.0" type="curve" smooth="yes"/>
      <point x="117.925" y="756.0"/>
      <point x="113.25" y="749.9375"/>
      <point x="113.25" y="736.3625" type="curve" smooth="yes"/>
      <point x="111.69999999999999" y="656.775"/>
      <point x="74.5375" y="113.55000000000001"/>
      <point x="74.5375" y="53.2" type="curve" smooth="yes"/>
      <point x="74.5375" y="9.475000000000001"/>
      <point x="145.7625" y="-13.0"/>
    </contour>
  </outline>
</glyph>
<glyph name="l" format="2">
  <advance width="338.95"/>
  <unicode hex="006C"/>
  <anchor x="151.1" y="0.0" name="bottom"/>
  <anchor x="151.1" y="378.0" name="center"/>
  <anchor x="151.1" y="756.0" name="top"/>
  <anchor x="300.1" y="632.0" name="topright"/>
  <outline>
    <contour>
      <point x="169.6375" y="-13.0" type="curve" smooth="yes"/>
      <point x="212.8625" y="-13.0"/>
      <point x="305.2125" y="97.8"/>
      <point x="331.475" y="134.675" type="curve" smooth="yes"/>
      <point x="336.5375" y="141.575"/>
      <point x="339.375" y="149.25"/>
      <point x="339.375" y="156.925" type="curve" smooth="yes"/>
      <point x="339.375" y="174.2125"/>
      <point x="325.0875" y="195.1125"/>
      <point x="316.8" y="195.1125" type="curve" smooth="yes"/>
      <point x="313.1875" y="195.1125"/>
      <point x="311.575" y="192.725"/>
      <point x="306.7375" y="186.6625" type="curve"/>
      <point x="294.3125" y="170.3"/>
      <point x="250.9" y="118.78750000000001"/>
      <point x="238.6375" y="118.78750000000001" type="curve" smooth="yes"/>
      <point x="229.0875" y="118.78750000000001"/>
      <point x="225.7" y="124.5625"/>
      <point x="225.7" y="172.91250000000002" type="curve" smooth="yes"/>
      <point x="225.7" y="226.5"/>
      <point x="262.1875" y="664.625"/>
      <point x="262.1875" y="689.8" type="curve" smooth="yes"/>
      <point x="262.1875" y="734.1375"/>
      <point x="188.25" y="756.0"/>
      <point x="130.5" y="756.0" type="curve" smooth="yes"/>
      <point x="111.475" y="756.0"/>
      <point x="106.8" y="749.9375"/>
      <point x="106.8" y="736.3625" type="curve" smooth="yes"/>
      <point x="104.8625" y="622.2875"/>
      <point x="70.4125" y="153.6375"/>
      <point x="69.63749999999999" y="93.0125" type="curve" smooth="yes"/>
      <point x="69.63749999999999" y="68.7875"/>
      <point x="70.475" y="56.625"/>
      <point x="72.25" y="50.0125" type="curve" smooth="yes"/>
      <point x="78.475" y="14.5125"/>
      <point x="154.35" y="-13.0"/>
    </contour>
  </outline>
</glyph>
<glyph name="m" format="2">
  <advance width="1013.0125"/>
  <unicode hex="006D"/>
  <anchor x="468.8" y="-5.0" name="bottom"/>
  <anchor x="516.95" y="524.0" name="top"/>
  <outline>
    <contour>
      <point x="197.2875" y="-13.0" type="curve" smooth="yes"/>
      <point x="215.925" y="-13.0"/>
      <point x="221.375" y="-6.9375"/>
      <point x="221.375" y="6.637500000000001" type="curve" smooth="yes"/>
      <point x="221.375" y="64.2125"/>
      <point x="231.6125" y="115.2875"/>
      <point x="257.975" y="178.0" type="curve" smooth="yes"/>
      <point x="302.4125" y="280.6625"/>
      <point x="390.8" y="392.2125"/>
      <point x="408.1875" y="392.2125" type="curve" smooth="yes"/>
      <point x="417.7375" y="392.2125"/>
      <point x="420.7375" y="386.4375"/>
      <point x="420.7375" y="338.0875" type="curve" smooth="yes"/>
      <point x="420.7375" y="312.6875"/>
      <point x="410.7375" y="157.975"/>
      <point x="408.025" y="112.0" type="curve" smooth="yes"/>
      <point x="407.6375" y="95.8375"/>
      <point x="404.7" y="65.48750000000001"/>
      <point x="404.7" y="53.2" type="curve" smooth="yes"/>
      <point x="404.7" y="9.475000000000001"/>
      <point x="475.925" y="-13.0"/>
      <point x="532.9" y="-13.0" type="curve" smooth="yes"/>
      <point x="551.5375" y="-13.0"/>
      <point x="556.9875" y="-6.9375"/>
      <point x="556.9875" y="6.637500000000001" type="curve" smooth="yes"/>
      <point x="556.9875" y="64.2125"/>
      <point x="567.225" y="115.2875"/>
      <point x="593.5875" y="178.0" type="curve" smooth="yes"/>
      <point x="638.025" y="280.6625"/>
      <point x="726.4125" y="392.2125"/>
      <point x="743.8" y="392.2125" type="curve" smooth="yes"/>
      <point x="753.35" y="392.2125"/>
      <point x="756.7375" y="386.4375"/>
      <point x="756.35" y="338.0875" type="curve" smooth="yes"/>
      <point x="755.9625" y="302.6125"/>
      <point x="742.475" y="127.75"/>
      <point x="742.0875" y="93.0125" type="curve" smooth="yes"/>
      <point x="742.0875" y="74.9125"/>
      <point x="742.3125" y="61.525000000000006"/>
      <point x="744.7" y="50.0125" type="curve" smooth="yes"/>
      <point x="750.925" y="14.5125"/>
      <point x="827.1875" y="-13.0"/>
      <point x="842.475" y="-13.0" type="curve" smooth="yes"/>
      <point x="885.7" y="-13.0"/>
      <point x="978.05" y="97.8"/>
      <point x="1004.3125" y="134.675" type="curve" smooth="yes"/>
      <point x="1009.375" y="141.575"/>
      <point x="1012.2125" y="149.25"/>
      <point x="1012.2125" y="157.5375" type="curve" smooth="yes"/>
      <point x="1012.2125" y="174.2125"/>
      <point x="997.925" y="195.1125"/>
      <point x="989.6375" y="195.1125" type="curve" smooth="yes"/>
      <point x="986.025" y="195.1125"/>
      <point x="984.4125" y="192.725"/>
      <point x="979.575" y="186.6625" type="curve"/>
      <point x="967.15" y="170.3"/>
      <point x="923.7375" y="118.78750000000001"/>
      <point x="911.475" y="118.78750000000001" type="curve" smooth="yes"/>
      <point x="901.925" y="118.78750000000001"/>
      <point x="898.15" y="124.5625"/>
      <point x="898.5375" y="172.91250000000002" type="curve" smooth="yes"/>
      <point x="899.3125" y="212.3875"/>
      <point x="912.4125" y="380.4125"/>
      <point x="913.575" y="417.9875" type="curve" smooth="yes"/>
      <point x="913.9625" y="436.0875"/>
      <point x="912.575" y="449.475"/>
      <point x="910.1875" y="460.9875" type="curve" smooth="yes"/>
      <point x="903.9625" y="496.875"/>
      <point x="828.0875" y="524.0"/>
      <point x="812.8" y="524.0" type="curve" smooth="yes"/>
      <point x="757.0875" y="524.0"/>
      <point x="593.4625" y="320.3"/>
      <point x="564.3125" y="223.6875" type="curve"/>
      <point x="567.9875" y="257.9625"/>
      <point x="579.8" y="395.625"/>
      <point x="579.8" y="417.9875" type="curve" smooth="yes"/>
      <point x="579.8" y="436.0875"/>
      <point x="579.4125" y="449.475"/>
      <point x="577.025" y="460.9875" type="curve" smooth="yes"/>
      <point x="570.8" y="496.875"/>
      <point x="493.0875" y="524.0"/>
      <point x="477.1875" y="524.0" type="curve" smooth="yes"/>
      <point x="421.475" y="524.0"/>
      <point x="256.625" y="319.075"/>
      <point x="228.7" y="223.075" type="curve"/>
      <point x="232.375" y="264.7"/>
      <point x="246.8" y="432.625"/>
      <point x="246.8" y="457.8" type="curve" smooth="yes"/>
      <point x="246.8" y="502.1375"/>
      <point x="173.25" y="524.0"/>
      <point x="115.1125" y="524.0" type="curve" smooth="yes"/>
      <point x="96.475" y="524.0"/>
      <point x="91.8" y="517.9375"/>
      <point x="91.8" y="504.3625" type="curve" smooth="yes"/>
      <point x="91.8" y="446.8625"/>
      <point x="69.0875" y="113.55000000000001"/>
      <point x="69.0875" y="53.2" type="curve" smooth="yes"/>
      <point x="69.0875" y="9.475000000000001"/>
      <point x="140.3125" y="-13.0"/>
    </contour>
  </outline>
</glyph>
<glyph name="n" format="2">
  <advance width="677.7875"/>
  <unicode hex="006E"/>
  <anchor x="316.7625" y="0.0" name="bottom"/>
  <anchor x="345.375" y="524.0" name="top"/>
  <outline>
    <contour>
      <point x="197.2875" y="-13.0" type="curve" smooth="yes"/>
      <point x="215.925" y="-13.0"/>
      <point x="221.375" y="-6.9375"/>
      <point x="221.375" y="6.637500000000001" type="curve" smooth="yes"/>
      <point x="221.375" y="64.2125"/>
      <point x="231.6125" y="115.2875"/>
      <point x="257.975" y="178.0" type="curve" smooth="yes"/>
      <point x="303.025" y="280.6625"/>
      <point x="390.8" y="392.2125"/>
      <point x="408.1875" y="392.2125" type="curve" smooth="yes"/>
      <point x="417.7375" y="392.2125"/>
      <point x="421.125" y="386.4375"/>
      <point x="420.7375" y="338.0875" type="curve" smooth="yes"/>
      <point x="420.35" y="302.6125"/>
      <point x="406.0875" y="127.75"/>
      <point x="406.0875" y="93.0125" type="curve" smooth="yes"/>
      <point x="406.0875" y="74.9125"/>
      <point x="406.7" y="61.525000000000006"/>
      <point x="409.0875" y="50.0125" type="curve" smooth="yes"/>
      <point x="415.3125" y="14.5125"/>
      <point x="491.9625" y="-13.0"/>
      <point x="507.25" y="-13.0" type="curve" smooth="yes"/>
      <point x="550.475" y="-13.0"/>
      <point x="642.825" y="97.8"/>
      <point x="669.0875" y="134.675" type="curve" smooth="yes"/>
      <point x="674.15" y="141.575"/>
      <point x="676.9875" y="149.25"/>
      <point x="676.9875" y="156.925" type="curve" smooth="yes"/>
      <point x="676.9875" y="174.2125"/>
      <point x="662.7" y="195.1125"/>
      <point x="654.4125" y="195.1125" type="curve" smooth="yes"/>
      <point x="650.8" y="195.1125"/>
      <point x="649.1875" y="192.725"/>
      <point x="644.35" y="186.6625" type="curve"/>
      <point x="631.925" y="170.3"/>
      <point x="588.5125" y="118.78750000000001"/>
      <point x="576.25" y="118.78750000000001" type="curve" smooth="yes"/>
      <point x="566.3125" y="118.78750000000001"/>
      <point x="562.925" y="124.5625"/>
      <point x="562.925" y="172.91250000000002" type="curve" smooth="yes"/>
      <point x="562.925" y="212.3875"/>
      <point x="577.9625" y="380.4125"/>
      <point x="577.9625" y="417.9875" type="curve" smooth="yes"/>
      <point x="577.9625" y="436.0875"/>
      <point x="576.9625" y="449.475"/>
      <point x="574.575" y="460.9875" type="curve" smooth="yes"/>
      <point x="568.35" y="496.875"/>
      <point x="492.475" y="524.0"/>
      <point x="477.1875" y="524.0" type="curve" smooth="yes"/>
      <point x="421.475" y="524.0"/>
      <point x="256.625" y="319.075"/>
      <point x="228.7" y="223.075" type="curve"/>
      <point x="232.375" y="264.7"/>
      <point x="247.1875" y="432.625"/>
      <point x="247.1875" y="457.8" type="curve" smooth="yes"/>
      <point x="247.1875" y="502.1375"/>
      <point x="173.25" y="524.0"/>
      <point x="115.1125" y="524.0" type="curve" smooth="yes"/>
      <point x="96.475" y="524.0"/>
      <point x="91.8" y="517.9375"/>
      <point x="91.8" y="504.3625" type="curve" smooth="yes"/>
      <point x="91.8" y="446.8625"/>
      <point x="69.0875" y="113.55000000000001"/>
      <point x="69.0875" y="53.2" type="curve" smooth="yes"/>
      <point x="69.0875" y="9.475000000000001"/>
      <point x="140.3125" y="-13.0"/>
    </contour>
  </outline>
</glyph>
<glyph name="o" format="2">
  <advance width="559.8375"/>
  <unicode hex="006F"/>
  <anchor x="272.1625" y="0.0" name="bottom"/>
  <anchor x="282.1625" y="262.0" name="center"/>
  <anchor x="370.2" y="14.649999999999999" name="ogonek"/>
  <anchor x="307.325" y="524.0" name="top"/>
  <anchor x="420.1625" y="479.0" name="topright"/>
  <outline>
    <contour>
      <point x="283.9875" y="-13.0" type="curve" smooth="yes"/>
      <point x="422.0125" y="-13.0"/>
      <point x="522.825" y="66.7375"/>
      <point x="522.825" y="292.0" type="curve" smooth="yes"/>
      <point x="522.825" y="494.8875"/>
      <point x="421.2875" y="524.0"/>
      <point x="286.4625" y="524.0" type="curve" smooth="yes"/>
      <point x="148.4375" y="524.0"/>
      <point x="47.0125" y="444.875"/>
      <point x="47.0125" y="219.0" type="curve" smooth="yes"/>
      <point x="47.0125" y="16.112499999999997"/>
      <point x="148.1625" y="-13.0"/>
    </contour>
    <contour>
      <point x="270.6125" y="42.212500000000006" type="curve" smooth="yes"/>
      <point x="211.875" y="42.212500000000006"/>
      <point x="193.9875" y="76.8125"/>
      <point x="193.9875" y="212.3625" type="curve" smooth="yes"/>
      <point x="193.9875" y="380.9125"/>
      <point x="237.225" y="467.5625"/>
      <point x="299.0625" y="467.5625" type="curve" smooth="yes"/>
      <point x="357.1875" y="467.5625"/>
      <point x="375.6875" y="433.35"/>
      <point x="375.6875" y="296.8" type="curve" smooth="yes"/>
      <point x="375.6875" y="128.8625"/>
      <point x="332.225" y="42.212500000000006"/>
    </contour>
  </outline>
</glyph>
<glyph name="p" format="2">
  <advance width="618.1375"/>
  <unicode hex="0070"/>
  <anchor x="352.45" y="0.0" name="bottom"/>
  <anchor x="333.6625" y="514.0" name="top"/>
  <outline>
    <contour>
      <point x="182.0375" y="-244.0" type="curve" smooth="yes"/>
      <point x="201.675" y="-244.0"/>
      <point x="205.7375" y="-238.325"/>
      <point x="205.7375" y="-224.75" type="curve" smooth="yes"/>
      <point x="206.125" y="-195.3375"/>
      <point x="208.35" y="-141.4375"/>
      <point x="217.1875" y="-3.575000000000001" type="curve"/>
      <point x="265.4875" y="-8.675"/>
      <point x="310.275" y="-13.0"/>
      <point x="335.175" y="-13.0" type="curve" smooth="yes"/>
      <point x="421.775" y="-13.0"/>
      <point x="478.1" y="20.65"/>
      <point x="531.45" y="94.0" type="curve" smooth="yes"/>
      <point x="572.6375" y="150.4125"/>
      <point x="575.35" y="294.6125"/>
      <point x="575.35" y="373.425" type="curve" smooth="yes"/>
      <point x="575.35" y="423.3"/>
      <point x="573.575" y="447.925"/>
      <point x="570.025" y="460.9875" type="curve" smooth="yes"/>
      <point x="563.4125" y="496.875"/>
      <point x="487.15" y="524.0"/>
      <point x="471.475" y="524.0" type="curve" smooth="yes"/>
      <point x="414.6" y="524.0"/>
      <point x="257.8875" y="328.7625"/>
      <point x="228.4125" y="232.7625" type="curve"/>
      <point x="234.4125" y="299.575"/>
      <point x="246.125" y="435.3375"/>
      <point x="246.125" y="457.8" type="curve" smooth="yes"/>
      <point x="246.125" y="502.1375"/>
      <point x="172.575" y="524.0"/>
      <point x="114.4375" y="524.0" type="curve" smooth="yes"/>
      <point x="95.8" y="524.0"/>
      <point x="91.125" y="517.9375"/>
      <point x="91.125" y="504.3625" type="curve" smooth="yes"/>
      <point x="91.125" y="458.875"/>
      <point x="76.57499999999999" y="171.35"/>
      <point x="68.9625" y="67.925" type="curve"/>
      <point x="63.9625" y="67.925"/>
      <point x="54.512499999999996" y="49.4125"/>
      <point x="54.512499999999996" y="25.9" type="curve" smooth="yes"/>
      <point x="54.512499999999996" y="16.6125"/>
      <point x="57.512499999999996" y="15.0"/>
      <point x="60.9625" y="15.0" type="curve" smooth="yes"/>
      <point x="66.51249999999999" y="14.6125" type="line"/>
      <point x="57.512499999999996" y="-110.2375"/>
      <point x="51.125" y="-165.375"/>
      <point x="51.125" y="-178.1875" type="curve" smooth="yes"/>
      <point x="51.125" y="-222.525"/>
      <point x="125.675" y="-244.0"/>
    </contour>
    <contour>
      <point x="325.2375" y="45.3125" type="curve" smooth="yes"/>
      <point x="300.1" y="45.3125"/>
      <point x="265.7625" y="48.475"/>
      <point x="222.8" y="58.7375" type="curve"/>
      <point x="236.3625" y="204.6375"/>
      <point x="380.825" y="391.6"/>
      <point x="404.025" y="391.6" type="curve" smooth="yes"/>
      <point x="416.675" y="391.6"/>
      <point x="418.9" y="376.1375"/>
      <point x="418.9" y="306.0875" type="curve" smooth="yes"/>
      <point x="418.9" y="141.3875"/>
      <point x="387.6" y="45.3125"/>
    </contour>
  </outline>
</glyph>
<glyph name="q" format="2">
  <advance width="631.95"/>
  <unicode hex="0071"/>
  <outline>
    <contour>
      <point x="515.9375" y="-244.0" type="curve" smooth="yes"/>
      <point x="534.575" y="-244.0"/>
      <point x="539.025" y="-238.325"/>
      <point x="539.025" y="-224.75" type="curve" smooth="yes"/>
      <point x="539.4125" y="-113.4"/>
      <point x="569.5375" y="417.175"/>
      <point x="573.475" y="443.4625" type="curve"/>
      <point x="579.0875" y="443.4625"/>
      <point x="587.925" y="461.5875"/>
      <point x="587.925" y="485.1" type="curve" smooth="yes"/>
      <point x="587.925" y="494.3875"/>
      <point x="585.5375" y="495.3875"/>
      <point x="582.0875" y="496.0" type="curve" smooth="yes"/>
      <point x="456.7" y="516.675"/>
      <point x="366.7875" y="524.0"/>
      <point x="308.975" y="524.0" type="curve" smooth="yes"/>
      <point x="221.15" y="524.0"/>
      <point x="162.825" y="482.775"/>
      <point x="115.05" y="417.0" type="curve" smooth="yes"/>
      <point x="64.6625" y="348.0"/>
      <point x="61.05" y="141.6125"/>
      <point x="61.05" y="93.625" type="curve" smooth="yes"/>
      <point x="61.05" y="74.9125"/>
      <point x="62.05" y="61.525000000000006"/>
      <point x="64.4375" y="50.0125" type="curve" smooth="yes"/>
      <point x="71.275" y="14.5125"/>
      <point x="146.925" y="-13.0"/>
      <point x="162.2125" y="-13.0" type="curve" smooth="yes"/>
      <point x="219.0875" y="-13.0"/>
      <point x="380.8375" y="186.1125"/>
      <point x="413.025" y="282.725" type="curve"/>
      <point x="411.8625" y="215.8875"/>
      <point x="384.25" y="-139.0625"/>
      <point x="384.25" y="-178.575" type="curve" smooth="yes"/>
      <point x="384.25" y="-222.9125"/>
      <point x="457.8" y="-244.0"/>
    </contour>
    <contour>
      <point x="230.825" y="119.78750000000001" type="curve" smooth="yes"/>
      <point x="221.275" y="119.78750000000001"/>
      <point x="217.8875" y="125.17500000000001"/>
      <point x="217.8875" y="173.525" type="curve" smooth="yes"/>
      <point x="217.8875" y="357.9875"/>
      <point x="252.2875" y="465.6875"/>
      <point x="318.1375" y="465.6875" type="curve" smooth="yes"/>
      <point x="343.275" y="465.6875"/>
      <point x="377.6125" y="462.525"/>
      <point x="420.1875" y="452.65" type="curve"/>
      <point x="403.9125" y="306.75"/>
      <point x="254.025" y="119.78750000000001"/>
    </contour>
  </outline>
</glyph>
<glyph name="r" format="2">
  <advance width="426.7375"/>
  <unicode hex="0072"/>
  <anchor x="146.25" y="0.0" name="bottom"/>
  <anchor x="268.3" y="524.0" name="top"/>
  <outline>
    <contour>
      <point x="196.5125" y="-13.0" type="curve" smooth="yes"/>
      <point x="214.375" y="-13.0"/>
      <point x="220.2125" y="-6.9375"/>
      <point x="220.2125" y="6.637500000000001" type="curve" smooth="yes"/>
      <point x="220.2125" y="67.7"/>
      <point x="223.0875" y="117.225"/>
      <point x="241.7" y="178.0" type="curve" smooth="yes"/>
      <point x="273.7375" y="283.375"/>
      <point x="344.075" y="395.7875"/>
      <point x="401.725" y="395.7875" type="curve" smooth="yes"/>
      <point x="438.5875" y="395.7875"/>
      <point x="449.45" y="419.325"/>
      <point x="449.45" y="453.3125" type="curve" smooth="yes"/>
      <point x="449.45" y="497.425"/>
      <point x="439.475" y="524.0"/>
      <point x="401.7125" y="524.0" type="curve" smooth="yes"/>
      <point x="353.9125" y="524.0"/>
      <point x="285.7125" y="442.9125"/>
      <point x="232.25" y="277.7875" type="curve"/>
      <point x="235.925" y="319.8"/>
      <point x="247.1875" y="432.625"/>
      <point x="247.1875" y="457.8" type="curve" smooth="yes"/>
      <point x="247.1875" y="502.1375"/>
      <point x="173.25" y="524.0"/>
      <point x="115.1125" y="524.0" type="curve" smooth="yes"/>
      <point x="96.475" y="524.0"/>
      <point x="91.8" y="517.9375"/>
      <point x="91.8" y="504.3625" type="curve" smooth="yes"/>
      <point x="91.8" y="446.25"/>
      <point x="69.0875" y="113.9375"/>
      <point x="69.0875" y="53.2" type="curve" smooth="yes"/>
      <point x="69.0875" y="9.475000000000001"/>
      <point x="139.925" y="-13.0"/>
    </contour>
  </outline>
</glyph>
<glyph name="s" format="2">
  <advance width="455.8375"/>
  <unicode hex="0073"/>
  <anchor x="220.4375" y="0.0" name="bottom"/>
  <anchor x="254.6375" y="524.0" name="top"/>
  <outline>
    <contour>
      <point x="205.275" y="-13.0" type="curve" smooth="yes"/>
      <point x="309.1625" y="-13.0"/>
      <point x="414.5375" y="55.575"/>
      <point x="414.5375" y="160.4375" type="curve" smooth="yes"/>
      <point x="414.5375" y="212.475"/>
      <point x="397.5625" y="248.3125"/>
      <point x="351.1625" y="283.4125" type="curve" smooth="yes"/>
      <point x="268.675" y="349.6625"/>
      <point x="184.3875" y="351.9375"/>
      <point x="184.3875" y="402.1" type="curve" smooth="yes"/>
      <point x="184.3875" y="435.375"/>
      <point x="214.9125" y="450.25"/>
      <point x="240.85" y="450.25" type="curve" smooth="yes"/>
      <point x="323.3" y="450.25"/>
      <point x="383.0625" y="395.05"/>
      <point x="394.4125" y="395.05" type="curve" smooth="yes"/>
      <point x="404.025" y="395.05"/>
      <point x="412.8" y="413.4375"/>
      <point x="412.8" y="436.05" type="curve" smooth="yes"/>
      <point x="412.8" y="449.2375"/>
      <point x="412.6375" y="466.1"/>
      <point x="396.9375" y="476.2875" type="curve" smooth="yes"/>
      <point x="362.7125" y="504.325"/>
      <point x="310.8125" y="524.0"/>
      <point x="248.825" y="524.0" type="curve" smooth="yes"/>
      <point x="116.1625" y="524.0"/>
      <point x="59.5" y="438.55"/>
      <point x="59.5" y="359.925" type="curve" smooth="yes"/>
      <point x="59.5" y="303.85"/>
      <point x="82.25" y="259.725"/>
      <point x="132.9125" y="223.1375" type="curve" smooth="yes"/>
      <point x="208.6125" y="162.8625"/>
      <point x="285.3" y="163.875"/>
      <point x="285.3" y="112.6125" type="curve" smooth="yes"/>
      <point x="285.3" y="78.175"/>
      <point x="249.35" y="62.1375"/>
      <point x="218.7625" y="62.1375" type="curve" smooth="yes"/>
      <point x="129.15" y="62.1375"/>
      <point x="73.225" y="118.5"/>
      <point x="59.325" y="118.5" type="curve" smooth="yes"/>
      <point x="50.325" y="118.5"/>
      <point x="43.1" y="97.0125"/>
      <point x="43.1" y="77.5" type="curve" smooth="yes"/>
      <point x="43.1" y="65.5375"/>
      <point x="45.1" y="42.3875"/>
      <point x="61.575" y="33.2625" type="curve" smooth="yes"/>
      <point x="105.25" y="3.45"/>
      <point x="156.475" y="-13.0"/>
    </contour>
  </outline>
</glyph>
<glyph name="t" format="2">
  <advance width="389.0125"/>
  <unicode hex="0074"/>
  <anchor x="205.125" y="0.0" name="bottom"/>
  <anchor x="176.125" y="262.0" name="center"/>
  <anchor x="186.125" y="636.0" name="top"/>
  <anchor x="335.125" y="524.0" name="topright"/>
  <outline>
    <contour>
      <point x="200.825" y="-13.0" type="curve" smooth="yes"/>
      <point x="269.45" y="-13.0"/>
      <point x="329.1625" y="18.375"/>
      <point x="369.725" y="62.0" type="curve" smooth="yes"/>
      <point x="374.3375" y="67.225"/>
      <point x="376.5625" y="75.2875"/>
      <point x="376.5625" y="87.4125" type="curve" smooth="yes"/>
      <point x="376.5625" y="101.8625"/>
      <point x="371.3375" y="119.375"/>
      <point x="364.725" y="119.375" type="curve" smooth="yes"/>
      <point x="361.3375" y="119.375"/>
      <point x="350.7625" y="112.025"/>
      <point x="339.05" y="103.15" type="curve" smooth="yes"/>
      <point x="319.5875" y="86.9125"/>
      <point x="294.25" y="76.875"/>
      <point x="277.6" y="76.875" type="curve" smooth="yes"/>
      <point x="244.15" y="76.875"/>
      <point x="235.66250000000002" y="98.1"/>
      <point x="235.66250000000002" y="162.7375" type="curve" smooth="yes"/>
      <point x="235.66250000000002" y="260.3375"/>
      <point x="247.925" y="384.0375"/>
      <point x="254.05" y="429.725" type="curve"/>
      <point x="368.375" y="429.725" type="line" smooth="yes"/>
      <point x="384.7625" y="429.725"/>
      <point x="391.375" y="451.3375"/>
      <point x="391.375" y="479.975" type="curve" smooth="yes"/>
      <point x="391.375" y="495.775"/>
      <point x="388.375" y="499.0"/>
      <point x="380.925" y="499.0" type="curve" smooth="yes"/>
      <point x="259.1125" y="499.0" type="line"/>
      <point x="263.5" y="537.1"/>
      <point x="268.2125" y="580.475"/>
      <point x="268.2125" y="585.1875" type="curve" smooth="yes"/>
      <point x="268.2125" y="629.1375"/>
      <point x="193.8875" y="651.0"/>
      <point x="136.1375" y="651.0" type="curve" smooth="yes"/>
      <point x="117.1125" y="651.0"/>
      <point x="112.4375" y="645.9375"/>
      <point x="112.4375" y="632.3625" type="curve" smooth="yes"/>
      <point x="112.4375" y="626.8125"/>
      <point x="105.8875" y="553.8875"/>
      <point x="102.05" y="499.0" type="curve"/>
      <point x="68.3875" y="499.0" type="line" smooth="yes"/>
      <point x="51.775" y="499.0"/>
      <point x="45.775" y="479.225"/>
      <point x="45.775" y="449.3625" type="curve" smooth="yes"/>
      <point x="45.775" y="433.175"/>
      <point x="48.3875" y="429.725"/>
      <point x="56.45" y="429.725" type="curve" smooth="yes"/>
      <point x="98.825" y="429.725" type="line"/>
      <point x="95.7625" y="379.9125"/>
      <point x="84.1125" y="237.925"/>
      <point x="84.1125" y="133.9375" type="curve" smooth="yes"/>
      <point x="84.1125" y="36.925"/>
      <point x="117.8125" y="-13.0"/>
    </contour>
  </outline>
</glyph>
<glyph name="u" format="2">
  <advance width="673.1125"/>
  <unicode hex="0075"/>
  <anchor x="283.975" y="0.0" name="bottom"/>
  <anchor x="540.7" y="10.0" name="ogonek"/>
  <anchor x="325.8375" y="524.0" name="top"/>
  <anchor x="551.0375" y="479.0" name="topright"/>
  <outline>
    <contour>
      <point x="165.2125" y="-13.0" type="curve" smooth="yes"/>
      <point x="222.0875" y="-13.0"/>
      <point x="376.4875" y="179.375"/>
      <point x="413.8" y="274.7625" type="curve"/>
      <point x="410.25" y="224.025"/>
      <point x="406.0875" y="135.0875"/>
      <point x="406.0875" y="93.0125" type="curve" smooth="yes"/>
      <point x="406.0875" y="74.9125"/>
      <point x="406.3125" y="61.525000000000006"/>
      <point x="408.7" y="50.0125" type="curve" smooth="yes"/>
      <point x="414.925" y="14.5125"/>
      <point x="490.8" y="-13.0"/>
      <point x="506.8625" y="-13.0" type="curve" smooth="yes"/>
      <point x="550.0875" y="-13.0"/>
      <point x="642.4375" y="97.8"/>
      <point x="668.7" y="134.675" type="curve" smooth="yes"/>
      <point x="673.7625" y="141.575"/>
      <point x="676.6" y="149.25"/>
      <point x="676.6" y="156.925" type="curve" smooth="yes"/>
      <point x="676.6" y="174.2125"/>
      <point x="662.3125" y="195.1125"/>
      <point x="654.025" y="195.1125" type="curve" smooth="yes"/>
      <point x="650.4125" y="195.1125"/>
      <point x="648.8" y="192.725"/>
      <point x="643.9625" y="186.6625" type="curve"/>
      <point x="631.5375" y="170.3"/>
      <point x="588.125" y="118.78750000000001"/>
      <point x="575.8625" y="118.78750000000001" type="curve" smooth="yes"/>
      <point x="565.925" y="118.78750000000001"/>
      <point x="562.925" y="124.5625"/>
      <point x="562.925" y="172.91250000000002" type="curve" smooth="yes"/>
      <point x="562.925" y="252.925"/>
      <point x="576.8" y="449.1875"/>
      <point x="576.8" y="457.8" type="curve" smooth="yes"/>
      <point x="576.8" y="502.1375"/>
      <point x="505.025" y="524.0"/>
      <point x="448.05" y="524.0" type="curve" smooth="yes"/>
      <point x="429.025" y="524.0"/>
      <point x="423.9625" y="517.9375"/>
      <point x="423.9625" y="503.975" type="curve" smooth="yes"/>
      <point x="423.9625" y="446.0125"/>
      <point x="413.3375" y="393.3875"/>
      <point x="388.525" y="333.0" type="curve" smooth="yes"/>
      <point x="340.2125" y="224.1375"/>
      <point x="252.53750000000002" y="118.78750000000001"/>
      <point x="233.825" y="118.78750000000001" type="curve" smooth="yes"/>
      <point x="223.8875" y="118.78750000000001"/>
      <point x="220.8875" y="124.5625"/>
      <point x="220.8875" y="172.91250000000002" type="curve" smooth="yes"/>
      <point x="220.8875" y="235.125"/>
      <point x="246.25" y="396.975"/>
      <point x="247.8" y="457.8" type="curve" smooth="yes"/>
      <point x="248.1875" y="502.1375"/>
      <point x="174.6375" y="524.0"/>
      <point x="116.5" y="524.0" type="curve" smooth="yes"/>
      <point x="97.8625" y="524.0"/>
      <point x="92.8" y="517.9375"/>
      <point x="92.8" y="504.3625" type="curve" smooth="yes"/>
      <point x="88.925" y="420.125"/>
      <point x="64.05" y="195.275"/>
      <point x="64.05" y="93.0125" type="curve" smooth="yes"/>
      <point x="64.05" y="74.9125"/>
      <point x="64.6625" y="61.525000000000006"/>
      <point x="67.05" y="50.0125" type="curve" smooth="yes"/>
      <point x="73.6625" y="14.5125"/>
      <point x="149.925" y="-13.0"/>
    </contour>
  </outline>
</glyph>
<glyph name="v" format="2">
  <advance width="494.2"/>
  <unicode hex="0076"/>
  <anchor x="220.15" y="0.0" name="bottom"/>
  <anchor x="276.275" y="524.0" name="top"/>
  <outline>
    <contour>
      <point x="249.6875" y="-13.0" type="curve" smooth="yes"/>
      <point x="268.55" y="-13.0"/>
      <point x="274.0" y="-8.775"/>
      <point x="286.1875" y="6.412500000000001" type="curve" smooth="yes"/>
      <point x="373.9125" y="131.9375"/>
      <point x="475.425" y="321.4375"/>
      <point x="475.425" y="455.35" type="curve" smooth="yes"/>
      <point x="475.425" y="485.85"/>
      <point x="465.6875" y="496.5875"/>
      <point x="460.2375" y="503.65" type="curve" smooth="yes"/>
      <point x="446.5" y="520.225"/>
      <point x="419.0875" y="524.0"/>
      <point x="394.0625" y="524.0" type="curve" smooth="yes"/>
      <point x="382.55" y="524.0"/>
      <point x="373.8125" y="517.325"/>
      <point x="373.8125" y="508.0375" type="curve" smooth="yes"/>
      <point x="373.8125" y="487.8375"/>
      <point x="384.125" y="434.4625"/>
      <point x="381.025" y="383.9875" type="curve" smooth="yes"/>
      <point x="370.5625" y="261.3125"/>
      <point x="316.2625" y="150.3875"/>
      <point x="281.0875" y="109.6375" type="curve"/>
      <point x="274.8" y="113.9"/>
      <point x="272.8" y="125.3875"/>
      <point x="270.025" y="141.1" type="curve" smooth="yes"/>
      <point x="254.15" y="228.3125"/>
      <point x="221.91250000000002" y="426.9125"/>
      <point x="215.325" y="453.15" type="curve" smooth="yes"/>
      <point x="210.675" y="504.975"/>
      <point x="131.0125" y="524.0"/>
      <point x="74.0875" y="524.0" type="curve" smooth="yes"/>
      <point x="50.0625" y="524.0"/>
      <point x="40.7125" y="517.9375"/>
      <point x="40.7125" y="503.975" type="curve" smooth="yes"/>
      <point x="40.7125" y="489.8125"/>
      <point x="93.65" y="285.5375"/>
      <point x="129.6375" y="39.95" type="curve" smooth="yes"/>
      <point x="133.25" y="9.312500000000002"/>
      <point x="188.975" y="-13.0"/>
    </contour>
  </outline>
</glyph>
<glyph name="w" format="2">
  <advance width="837.35"/>
  <unicode hex="0077"/>
  <anchor x="377.7375" y="0.0" name="bottom"/>
  <anchor x="421.7375" y="524.0" name="top"/>
  <outline>
    <contour>
      <point x="215.9375" y="-13.0" type="curve" smooth="yes"/>
      <point x="234.8" y="-13.0"/>
      <point x="241.0875" y="-8.775"/>
      <point x="255.5" y="5.800000000000001" type="curve" smooth="yes"/>
      <point x="317.2625" y="83.9375"/>
      <point x="398.05" y="219.975"/>
      <point x="432.8875" y="326.075" type="curve"/>
      <point x="449.8625" y="273.225"/>
      <point x="474.425" y="169.39999999999998"/>
      <point x="501.4125" y="43.0125" type="curve" smooth="yes"/>
      <point x="507.6375" y="-0.4874999999999998"/>
      <point x="584.1875" y="-13.0"/>
      <point x="621.4" y="-13.0" type="curve" smooth="yes"/>
      <point x="642.1" y="-13.0"/>
      <point x="646.55" y="-10.6125"/>
      <point x="656.9" y="3.3500000000000005" type="curve" smooth="yes"/>
      <point x="744.325" y="139.9"/>
      <point x="820.0625" y="321.55"/>
      <point x="820.0625" y="436.3625" type="curve" smooth="yes"/>
      <point x="820.0625" y="466.8625"/>
      <point x="815.3875" y="489.4625"/>
      <point x="801.5875" y="504.4875" type="curve" smooth="yes"/>
      <point x="789.525" y="517.1625"/>
      <point x="770.3" y="524.0"/>
      <point x="746.725" y="524.0" type="curve" smooth="yes"/>
      <point x="724.1875" y="524.0"/>
      <point x="716.225" y="519.775"/>
      <point x="716.225" y="508.65" type="curve" smooth="yes"/>
      <point x="716.225" y="489.3875"/>
      <point x="733.15" y="429.3625"/>
      <point x="726.5625" y="336.2125" type="curve" smooth="yes"/>
      <point x="719.975" y="266.1125"/>
      <point x="687.75" y="159.05"/>
      <point x="646.8" y="107.5125" type="curve"/>
      <point x="639.7375" y="112.9375"/>
      <point x="637.575" y="122.1375"/>
      <point x="633.025" y="142.4625" type="curve" smooth="yes"/>
      <point x="611.8875" y="230.0625"/>
      <point x="569.55" y="427.3"/>
      <point x="559.5125" y="453.15" type="curve" smooth="yes"/>
      <point x="553.5125" y="470.2125"/>
      <point x="548.125" y="481.6625"/>
      <point x="537.225" y="492.5625" type="curve" smooth="yes"/>
      <point x="512.075" y="517.325"/>
      <point x="452.3" y="524.0"/>
      <point x="419.5" y="524.0" type="curve" smooth="yes"/>
      <point x="387.0625" y="524.0"/>
      <point x="382.8375" y="518.1"/>
      <point x="382.45" y="500.075" type="curve" smooth="yes"/>
      <point x="380.5125" y="440.3125"/>
      <point x="375.6" y="373.5125"/>
      <point x="356.95" y="306.225" type="curve" smooth="yes"/>
      <point x="330.2625" y="214.025"/>
      <point x="286.1875" y="140.0625"/>
      <point x="256.85" y="107.9" type="curve"/>
      <point x="252.175" y="114.48750000000001"/>
      <point x="249.175" y="127.85"/>
      <point x="246.4" y="148.8875" type="curve" smooth="yes"/>
      <point x="234.6875" y="237.2625"/>
      <point x="213.875" y="427.6875"/>
      <point x="210.0" y="453.15" type="curve" smooth="yes"/>
      <point x="206.9" y="511.875"/>
      <point x="128.0125" y="524.0"/>
      <point x="78.05" y="524.0" type="curve" smooth="yes"/>
      <point x="48.2875" y="524.0"/>
      <point x="42.45" y="517.9375"/>
      <point x="42.45" y="503.975" type="curve" smooth="yes"/>
      <point x="42.45" y="489.8125"/>
      <point x="78.2625" y="272.75"/>
      <point x="100.725" y="44.2375" type="curve" smooth="yes"/>
      <point x="104.5625" y="-1.0999999999999996"/>
      <point x="181.175" y="-13.0"/>
    </contour>
  </outline>
</glyph>
